<svg width="158" height="49" viewBox="0 0 158 49" fill="none" xmlns="http://www.w3.org/2000/svg">
<path d="M19.1055 31.7963H16.5935L14.8422 28.3334H4.24568L2.51203 31.7963H0L7.80143 16.2593H11.251L19.1055 31.7963ZM13.8692 26.2963L9.83582 18.1111H9.30511L5.23634 26.2963H13.8692Z" fill="#121A19"/>
<path d="M37.362 27.2778C37.362 30.2963 35.7875 31.8148 32.6386 31.8148H20.7331V16.2593H32.1256C33.5762 16.2593 34.6907 16.6111 35.5045 17.3148C36.389 18.0741 36.8313 19.1852 36.8313 20.6667C36.8313 22.2222 36.2652 23.2222 35.133 23.6667C35.8583 23.9074 36.4244 24.3704 36.7959 25.0556C37.1851 25.6852 37.362 26.4259 37.362 27.2778ZM34.62 20.6667C34.62 19.1296 33.7885 18.3704 32.1256 18.3704H22.962V22.8148H32.1256C32.9394 22.8148 33.5409 22.6667 33.93 22.3704C34.39 22.0556 34.62 21.4815 34.62 20.6667ZM35.1507 27.2778C35.1507 26.5 34.9207 25.8889 34.4608 25.4445C34.0008 25 33.3816 24.7778 32.6386 24.7778H22.962V29.6852H32.6386C34.3015 29.6852 35.1507 28.8889 35.1507 27.2778Z" fill="#121A19"/>
<path d="M55.9016 27.537C55.9016 29.4074 55.2294 30.6667 53.8849 31.2593C52.8235 31.7407 50.5945 32 47.1979 32C43.5714 32 41.2363 31.5741 40.2103 30.7407C39.3965 30.0741 38.972 28.6852 38.972 26.5926H41.1832C41.1832 28.037 41.5017 28.9444 42.1385 29.3333C42.74 29.7037 44.4206 29.8889 47.1979 29.8889C50.0107 29.8889 51.7267 29.7593 52.3812 29.5185C53.248 29.1852 53.6726 28.5185 53.6726 27.5185C53.6726 26.4815 53.3719 25.8333 52.7881 25.537C52.2928 25.2778 50.5945 25.1667 47.711 25.1667C44.2614 25.1667 41.9616 24.7407 40.8294 23.8704C39.9272 23.1852 39.485 22 39.485 20.3333C39.485 18.5185 40.0157 17.3333 41.0771 16.7778C42.0854 16.2593 44.2967 16 47.7287 16C51.0898 16 53.2834 16.4074 54.2741 17.2407C55.0878 17.9074 55.4947 19.2222 55.4947 21.1481H53.3365C53.3365 19.8519 53.0181 19.0185 52.3635 18.6481C51.7621 18.2963 50.223 18.1111 47.7463 18.1111C45.6766 18.1111 44.3852 18.1481 43.8899 18.2222C42.4393 18.4259 41.714 19.1481 41.714 20.3519C41.714 21.3889 42.1208 22.1111 42.9169 22.5185C43.6422 22.9074 45.5174 23.0926 48.5424 23.1111C51.5498 23.1296 53.4603 23.3333 54.2564 23.7222C55.3355 24.2778 55.9016 25.5556 55.9016 27.537Z" fill="#121A19"/>
<path d="M72.7074 31.7963H58.4844V16.2593H72.7074V18.3704H60.7133V22.8704H72.2651V24.9815H60.7133V29.7037H72.7074V31.7963Z" fill="#009A93"/>
<path d="M89 31.7963H75.3961V16.2593H77.6074V29.7037H89V31.7963Z" fill="#009A93"/>
</svg>
