<svg width="63" height="22" viewBox="0 0 63 22" fill="none" xmlns="http://www.w3.org/2000/svg">
<g clip-path="url(#clip0_1162_1725)">
<path fill-rule="evenodd" clip-rule="evenodd" d="M10.6283 0H11.319L11.3398 0.000695921C13.7021 0.0797673 15.9598 0.920221 17.7894 2.37403C19.619 0.920221 21.8767 0.0797673 24.239 0.000695921L24.2598 0H24.9505L24.9713 0.000695921C27.3335 0.0797673 29.5912 0.920221 31.4208 2.37403C33.2505 0.920221 35.5082 0.0797673 37.8704 0.000695921L37.8912 0H38.5819L38.6027 0.000695921C40.9649 0.0797674 43.2226 0.920222 45.0523 2.37403C46.8819 0.920222 49.1396 0.0797674 51.5018 0.000695921L51.5226 0H52.2134L52.2342 0.000695921C55.1147 0.0971174 57.8398 1.32571 59.8229 3.41806C61.8056 5.51005 62.888 8.298 62.8402 11.1805C62.7923 14.063 61.6178 16.8134 59.5665 18.8382C57.5148 20.8632 54.7502 22 51.868 22C49.3811 22 46.9817 21.1536 45.0523 19.6205C43.1229 21.1536 40.7235 22 38.2366 22C35.7496 22 33.3502 21.1536 31.4208 19.6205C29.4915 21.1536 27.0921 22 24.6051 22C22.1182 22 19.7188 21.1536 17.7894 19.6205C15.86 21.1536 13.4606 22 10.9737 22C8.09148 22 5.32685 20.8632 3.27519 18.8382C1.22389 16.8134 0.0494047 14.063 0.00152336 11.1805C-0.0463577 8.298 1.03611 5.51005 3.01881 3.41806C5.00184 1.32571 7.72696 0.0971174 10.6075 0.000695921L10.6283 0ZM19.5487 17.8631C21.0045 18.9459 22.7754 19.5389 24.6051 19.5389C26.4348 19.5389 28.2057 18.9459 29.6615 17.8631C28.1547 15.9713 27.305 13.6234 27.2644 11.1805C27.2218 8.61446 28.0749 6.12334 29.6615 4.13144C28.2896 3.11108 26.6342 2.52301 24.9082 2.46113H24.3021C22.5761 2.52301 20.9207 3.11108 19.5487 4.13144C21.1353 6.12334 21.9884 8.61446 21.9458 11.1805C21.9052 13.6234 21.0555 15.9713 19.5487 17.8631ZM17.7894 5.89364C18.9056 7.39886 19.5038 9.24175 19.4723 11.1398C19.4424 12.9418 18.8468 14.6749 17.7894 16.1009C16.732 14.6749 16.1364 12.9418 16.1065 11.1398C16.075 9.24175 16.6732 7.39886 17.7894 5.89364ZM16.0301 4.13144C14.4435 6.12334 13.5903 8.61446 13.633 11.1805C13.6735 13.6234 14.5233 15.9713 16.0301 17.8631C14.5742 18.9459 12.8033 19.5389 10.9737 19.5389C8.7474 19.5389 6.60812 18.661 5.01756 17.091C3.42665 15.5207 2.51231 13.3837 2.47504 11.1398C2.43777 8.89602 3.28064 6.72933 4.81873 5.10645C6.35187 3.48881 8.45295 2.54063 10.6706 2.46113H11.2767C13.0027 2.52301 14.6581 3.11108 16.0301 4.13144ZM31.4208 5.89364C30.3047 7.39886 29.7064 9.24175 29.7379 11.1398C29.7679 12.9418 30.3634 14.6749 31.4208 16.1009C32.4782 14.6749 33.0738 12.9418 33.1038 11.1398C33.1353 9.24175 32.537 7.39886 31.4208 5.89364ZM33.1802 17.8631C34.636 18.9459 36.4069 19.5389 38.2366 19.5389C40.0662 19.5389 41.8371 18.9459 43.293 17.8631C41.7861 15.9713 40.9364 13.6234 40.8959 11.1805C40.8532 8.61446 41.7064 6.12334 43.293 4.13144C41.921 3.11108 40.2656 2.52301 38.5396 2.46113H37.9335C36.2075 2.52301 34.5521 3.11108 33.1801 4.13144C34.7667 6.12334 35.6199 8.61446 35.5773 11.1805C35.5367 13.6234 34.687 15.9713 33.1802 17.8631ZM45.0523 5.89365C43.9361 7.39886 43.3378 9.24175 43.3694 11.1398C43.3993 12.9418 43.9949 14.6749 45.0523 16.1009C46.1097 14.6749 46.7053 12.9418 46.7352 11.1398C46.7667 9.24175 46.1684 7.39886 45.0523 5.89365ZM46.8116 17.8631C48.2674 18.9459 50.0383 19.5389 51.868 19.5389C54.0943 19.5389 56.2336 18.661 57.8241 17.091C59.415 15.5207 60.3294 13.3837 60.3666 11.1398C60.4039 8.89602 59.561 6.72934 58.0229 5.10645C56.4898 3.48881 54.3887 2.54063 52.171 2.46113H51.565C49.8389 2.52301 48.1835 3.11108 46.8116 4.13144C48.3982 6.12335 49.2513 8.61446 49.2087 11.1805C49.1681 13.6234 48.3184 15.9713 46.8116 17.8631Z" fill="#6B6F6E"/>
</g>
<defs>
<clipPath id="clip0_1162_1725">
<rect width="63" height="22.0001" fill="white"/>
</clipPath>
</defs>
</svg>
