<svg xmlns="http://www.w3.org/2000/svg" width="71" height="25" viewBox="0 0 71 25" fill="none">
  <path fill-rule="evenodd" clip-rule="evenodd" d="M14.6283 2H15.319L15.3398 2.0007C17.7021 2.07977 19.9598 2.92022 21.7894 4.37403C23.619 2.92022 25.8767 2.07977 28.239 2.0007L28.2598 2H28.9505L28.9713 2.0007C31.3335 2.07977 33.5912 2.92022 35.4208 4.37403C37.2505 2.92022 39.5082 2.07977 41.8704 2.0007L41.8912 2H42.5819L42.6027 2.0007C44.965 2.07977 47.2226 2.92022 49.0523 4.37403C50.8819 2.92022 53.1396 2.07977 55.5019 2.0007L55.5226 2H56.2134L56.2342 2.0007C59.1147 2.09712 61.8398 3.32571 63.8229 5.41806C65.8056 7.51005 66.888 10.298 66.8402 13.1805C66.7923 16.063 65.6178 18.8134 63.5665 20.8382C61.5148 22.8632 58.7502 24 55.868 24C53.3811 24 50.9817 23.1536 49.0523 21.6205C47.1229 23.1536 44.7235 24 42.2366 24C39.7496 24 37.3502 23.1536 35.4208 21.6205C33.4915 23.1536 31.0921 24 28.6051 24C26.1182 24 23.7188 23.1536 21.7894 21.6205C19.86 23.1536 17.4606 24 14.9737 24C12.0915 24 9.32685 22.8632 7.27519 20.8382C5.22389 18.8134 4.0494 16.063 4.00152 13.1805C3.95364 10.298 5.03611 7.51005 7.01881 5.41806C9.00184 3.32571 11.727 2.09712 14.6075 2.0007L14.6283 2ZM23.5487 19.8631C25.0045 20.9459 26.7754 21.5389 28.6051 21.5389C30.4348 21.5389 32.2057 20.9459 33.6615 19.8631C32.1547 17.9713 31.305 15.6234 31.2644 13.1805C31.2218 10.6145 32.0749 8.12334 33.6615 6.13144C32.2896 5.11108 30.6342 4.52301 28.9082 4.46113H28.3021C26.5761 4.52301 24.9207 5.11108 23.5487 6.13144C25.1353 8.12334 25.9884 10.6145 25.9458 13.1805C25.9052 15.6234 25.0555 17.9713 23.5487 19.8631ZM21.7894 7.89364C22.9056 9.39886 23.5038 11.2418 23.4723 13.1398C23.4424 14.9418 22.8468 16.6749 21.7894 18.1009C20.732 16.6749 20.1364 14.9418 20.1065 13.1398C20.075 11.2418 20.6732 9.39886 21.7894 7.89364ZM20.0301 6.13144C18.4435 8.12334 17.5903 10.6145 17.633 13.1805C17.6735 15.6234 18.5233 17.9713 20.0301 19.8631C18.5742 20.9459 16.8033 21.5389 14.9737 21.5389C12.7474 21.5389 10.6081 20.661 9.01756 19.091C7.42665 17.5207 6.51231 15.3837 6.47504 13.1398C6.43777 10.896 7.28064 8.72933 8.81874 7.10645C10.3519 5.48881 12.453 4.54063 14.6706 4.46113H15.2767C17.0027 4.52301 18.6581 5.11108 20.0301 6.13144ZM35.4208 7.89364C34.3047 9.39886 33.7064 11.2418 33.7379 13.1398C33.7679 14.9418 34.3634 16.6749 35.4208 18.1009C36.4782 16.6749 37.0738 14.9418 37.1038 13.1398C37.1353 11.2418 36.537 9.39886 35.4208 7.89364ZM37.1802 19.8631C38.636 20.9459 40.4069 21.5389 42.2366 21.5389C44.0662 21.5389 45.8371 20.9459 47.293 19.8631C45.7861 17.9713 44.9364 15.6234 44.8959 13.1805C44.8532 10.6145 45.7064 8.12334 47.293 6.13144C45.921 5.11108 44.2656 4.52301 42.5396 4.46113H41.9335C40.2075 4.52301 38.5521 5.11108 37.1801 6.13144C38.7667 8.12334 39.6199 10.6145 39.5773 13.1805C39.5367 15.6234 38.687 17.9713 37.1802 19.8631ZM49.0523 7.89365C47.9361 9.39886 47.3378 11.2418 47.3694 13.1398C47.3993 14.9418 47.9949 16.6749 49.0523 18.1009C50.1097 16.6749 50.7053 14.9418 50.7352 13.1398C50.7667 11.2418 50.1684 9.39886 49.0523 7.89365ZM50.8116 19.8631C52.2674 20.9459 54.0383 21.5389 55.868 21.5389C58.0943 21.5389 60.2336 20.661 61.8241 19.091C63.415 17.5207 64.3294 15.3837 64.3666 13.1398C64.4039 10.896 63.561 8.72934 62.0229 7.10645C60.4898 5.48881 58.3887 4.54063 56.171 4.46113H55.565C53.8389 4.52301 52.1835 5.11108 50.8116 6.13144C52.3982 8.12335 53.2513 10.6145 53.2087 13.1805C53.1681 15.6234 52.3184 17.9713 50.8116 19.8631Z" fill="#6B6F6E"/>
</svg>
