<svg width="25" height="25" viewBox="0 0 25 25" fill="none" xmlns="http://www.w3.org/2000/svg">
<g clip-path="url(#clip0_1162_1641)">
<path d="M12.5003 0C5.59684 0 0 5.5963 0 12.5C0 19.4036 5.59684 25 12.5003 25C19.4042 25 25.0005 19.4036 25.0005 12.5C25.0005 5.5963 19.4043 0 12.5003 0V0ZM12.5003 24.375C5.94165 24.375 0.625557 19.0584 0.625557 12.5C0.625557 5.94165 5.94165 0.624842 12.5003 0.624842C19.0589 0.624842 24.3754 5.94162 24.3754 12.5C24.3754 19.0584 19.0589 24.375 12.5003 24.375V24.375Z" fill="#6B6F6E"/>
<path d="M12.8195 4.32326L13.6465 2.13136V4.32326H14.2746V1.18408H13.3307L12.4721 3.4317H12.4803L11.6217 1.18408H10.6777V4.32326H11.3059V2.13136L12.1329 4.32326H12.8195Z" fill="#1B1C1C"/>
<path d="M21.4396 5.73112L20.3664 7.29586L22.052 6.46684L22.5092 7.01511L19.8563 8.34717L19.3202 7.69818L20.3486 6.14769L20.3425 6.14004L18.632 6.87217L18.0898 6.22755L19.8786 3.85889L20.3359 4.40745L19.2158 5.91577L20.9493 5.14263L21.4396 5.73112Z" fill="#1B1C1C"/>
<path d="M6.94072 5.13107C6.68791 4.88566 6.29781 4.81167 5.93108 5.03901C6.00129 4.85742 5.97278 4.67258 5.93567 4.57006C5.77748 4.28245 5.72204 4.24607 5.59289 4.13696C5.17124 3.7837 4.72769 4.08535 4.41082 4.46297L2.87891 6.28867L5.2872 8.30912L6.90257 6.38431C7.27179 5.94438 7.32879 5.50823 6.94072 5.13107ZM3.82537 6.01152L4.74554 4.91493C4.85233 4.78802 5.09343 4.7931 5.24803 4.92334C5.4184 5.06626 5.41889 5.26866 5.30449 5.40524L4.39455 6.48915L3.82537 6.01152ZM6.36395 6.19384L5.40469 7.33701L4.80404 6.83218L5.77043 5.68018C5.87978 5.54994 6.12342 5.51206 6.28769 5.64987C6.47278 5.80554 6.49108 6.04229 6.36395 6.19384V6.19384Z" fill="#1B1C1C"/>
<path d="M12.8264 4.20217L13.6534 2.01031V4.20217H14.2816V1.06299H13.3375L12.479 3.31053H12.4871L11.6286 1.06299H10.6846V4.20217H11.3127V2.01031L12.1398 4.20217H12.8264Z" fill="#6B6F6E"/>
<path d="M21.4459 5.52065L20.3732 7.08544L22.0588 6.25615L22.5155 6.80468L19.863 8.13674L19.327 7.48751L20.3554 5.93722L20.3494 5.92935L18.6383 6.66177L18.0967 6.01682L19.8855 3.64844L20.3427 4.19678L19.2228 5.70507L20.9556 4.93223L21.4459 5.52065Z" fill="#6B6F6E"/>
<path d="M6.82845 5.06965C6.57616 4.82423 6.18553 4.7502 5.81937 4.97734C5.88902 4.79572 5.86056 4.61086 5.82347 4.50885C5.66526 4.22075 5.61034 4.18487 5.48009 4.07554C5.05847 3.72206 4.61546 4.02387 4.29909 4.40184L2.7666 6.22724L5.17495 8.24771L6.7903 6.32261C7.15908 5.88266 7.21652 5.44681 6.82845 5.06965V5.06965ZM3.71319 5.95004L4.63326 4.85373C4.73961 4.7266 4.98066 4.73168 5.13578 4.8616C5.30617 5.00479 5.30669 5.20743 5.19172 5.3435L4.28235 6.42762L3.71319 5.95004ZM6.25222 6.13236L5.29296 7.27551L4.69125 6.77067L5.65818 5.61843C5.76751 5.48848 6.01063 5.45058 6.17493 5.58844C6.36105 5.74431 6.37938 5.98057 6.25222 6.13236V6.13236Z" fill="#6B6F6E"/>
<path d="M4.80371 12.4999C4.80371 8.24913 8.24962 4.80322 12.5001 4.80322C16.7511 4.80322 20.1965 8.24913 20.1965 12.4999C20.1965 16.7504 16.7511 20.1962 12.5001 20.1962C8.24959 20.1962 4.80371 16.7504 4.80371 12.4999Z" fill="#6B6F6E"/>
<path d="M5.02539 12.4998C5.02539 8.3714 8.3721 5.02441 12.5006 5.02441C16.629 5.02441 19.9762 8.37137 19.9762 12.4998C19.9762 16.6283 16.629 19.9753 12.5006 19.9753C8.37213 19.9753 5.02539 16.6283 5.02539 12.4998V12.4998Z" fill="#6B6F6E"/>
<path d="M5.01367 12.5H12.5005V5.01318C8.36544 5.01318 5.01367 8.36498 5.01367 12.5Z" fill="#1B1C1C"/>
<path d="M12.5 12.5V19.9869C16.635 19.9869 19.9869 16.6345 19.9869 12.5H12.5Z" fill="#1B1C1C"/>
<path d="M20.0499 12.3668H12.6338V4.95068H12.3683V12.3668H4.95215V12.6323H12.3683V20.0487H12.6338V12.6323H20.0499V12.3668Z" fill="#1B1C1C"/>
<path d="M12.6338 5.16081C16.5832 5.23105 19.7702 8.41775 19.8409 12.3669H19.9731C19.9025 8.34451 16.6565 5.09805 12.6338 5.02783V5.16081H12.6338Z" fill="#1B1C1C"/>
<path d="M5.14838 12.3661C5.21855 8.4116 8.41011 5.22031 12.3646 5.14985V5.01709C8.33642 5.08753 5.08633 8.33833 5.01562 12.3661H5.14838V12.3661Z" fill="#1B1C1C"/>
<path d="M12.3676 19.8388C8.41822 19.7687 5.23124 16.5817 5.16103 12.6323H5.02832C5.099 16.6549 8.34499 19.9015 12.3676 19.9717V19.8388H12.3676Z" fill="#1B1C1C"/>
<path d="M19.8409 12.6323C19.7702 16.5817 16.5832 19.7687 12.6338 19.8388V19.9717C16.6564 19.9015 19.9029 16.655 19.9731 12.6323H19.8409Z" fill="#1B1C1C"/>
<path d="M12.2256 5.01709V12.2214H5.02148V12.3635H12.2256H12.3674V12.2214V5.01709H12.2256Z" fill="#6B6F6E"/>
<path d="M12.2134 19.902V12.7844H5.08105V12.644H12.2134H12.3537V12.7844V19.902H12.2134Z" fill="#1B1C1C"/>
<path d="M12.7854 19.902V12.7844H19.903V12.644H12.7854H12.6455V12.7844V19.902H12.7854Z" fill="#6B6F6E"/>
<path d="M12.7854 5.08057V12.1981H19.903V12.3383H12.7854H12.6455V12.1981V5.08057H12.7854Z" fill="#1B1C1C"/>
</g>
<defs>
<clipPath id="clip0_1162_1641">
<rect width="25" height="25" fill="white"/>
</clipPath>
</defs>
</svg>
