<svg width="158" height="49" viewBox="0 0 158 49" fill="none" xmlns="http://www.w3.org/2000/svg">
<g clip-path="url(#clip0_276_3934)">
<path fill-rule="evenodd" clip-rule="evenodd" d="M9.56165 27.3316C9.56165 26.3419 8.83126 25.657 7.29828 25.657H4.22677V29.0321H7.37327C8.6563 29.0321 9.56165 28.5752 9.56165 27.3316ZM9.009 20.6332C9.009 19.6687 8.3536 19.0089 7.37327 19.0089H4.22677V22.2062H7.29828C8.40358 22.2062 9.009 21.3944 9.009 20.6332ZM14.1411 27.8135C14.1411 30.7067 11.4751 32.6099 8.78128 32.6099H-2.28882e-05V15.4305H8.05089C11.1474 15.4305 13.3858 16.9774 13.3858 20.1505C13.3858 22.866 11.0224 23.6778 11.0224 23.6778C11.0224 23.7033 14.1411 24.414 14.1411 27.8135Z" fill="#EC1B24"/>
<path fill-rule="evenodd" clip-rule="evenodd" d="M27.2853 24.008C27.2853 21.318 26.0523 19.1358 23.614 19.1358C21.1729 19.1358 19.9648 21.318 19.9648 24.008C19.9648 26.7229 21.1729 28.9049 23.614 28.9049C26.0523 28.9049 27.2853 26.7229 27.2853 24.008ZM31.5121 24.008C31.5121 29.0573 28.6184 33.0159 23.614 33.0159C18.6318 33.0159 15.713 29.0573 15.713 24.008C15.713 18.9836 18.6318 15 23.6112 15C28.6184 15 31.5121 18.9836 31.5121 24.008Z" fill="#EC1B24"/>
<path fill-rule="evenodd" clip-rule="evenodd" d="M46.267 27.4077C46.267 31.1888 42.8456 33.0159 39.6269 33.0159C35.9028 33.0159 33.9893 31.5948 32.4813 29.7933L35.2224 27.1031C36.3804 28.5752 37.8912 29.3112 39.5769 29.3112C40.9599 29.3112 41.8903 28.6261 41.8903 27.6107C41.8903 26.5199 41.0682 26.18 38.8187 25.7076L38.2161 25.5809C35.5084 25.0122 33.2839 23.475 33.2839 20.4046C33.2839 17.0301 36.0277 15 39.6519 15C42.7206 15 44.709 16.3192 45.9171 17.6883L43.2483 20.3285C42.4179 19.4401 41.1599 18.7297 39.7269 18.7297C38.7465 18.7297 37.6385 19.1866 37.6385 20.3285C37.6385 21.3688 38.791 21.7463 40.2545 22.054L40.8599 22.1812C43.3094 22.6952 46.267 23.4498 46.267 27.4077Z" fill="#EC1B24"/>
<path fill-rule="evenodd" clip-rule="evenodd" d="M62.6077 29.2856C60.847 31.8231 59.2113 33.0159 55.8148 33.0159C50.9854 33.0159 47.8639 29.0065 47.8639 23.9063C47.8639 19.0597 50.6827 15.025 55.8648 15.025C58.7086 15.025 60.747 16.1414 62.4827 18.7553L59.0113 21.0645C58.3059 19.8461 57.4006 19.1358 55.8898 19.1358C53.9791 19.1358 52.1407 20.8451 52.1407 23.9063C52.1407 27.3366 54.1291 28.9049 56.0176 28.9049C57.6505 28.9049 58.4059 28.0928 59.1113 26.9256L62.6077 29.2856Z" fill="#EC1B24"/>
<path fill-rule="evenodd" clip-rule="evenodd" d="M78.7233 32.6099H74.1938V25.8348H68.9839V32.6099H64.4822V15.4305H68.9839V21.7493H74.1938V15.4305H78.7233V32.6099Z" fill="#EC1B24"/>
</g>
<defs>
<clipPath id="clip0_276_3934">
<rect width="158" height="48.0158" fill="white"/>
</clipPath>
</defs>
</svg>
