<svg width="158" height="50" viewBox="0 0 158 50" fill="none" xmlns="http://www.w3.org/2000/svg">
<path fill-rule="evenodd" clip-rule="evenodd" d="M10.1427 16.5955C9.01748 16.6265 7.92388 16.8454 6.89287 17.3141L8.23633 19.6891C8.83023 19.4392 9.51775 19.283 10.1427 19.283C10.3615 19.283 10.5488 19.314 10.7676 19.345C13.3299 19.5329 15.3924 22.1893 15.2052 24.72C14.9863 27.5011 12.7675 29.2512 10.1427 29.3764C9.98644 29.3764 9.79863 29.3764 9.6424 29.3764C7.92388 29.0014 6.48679 28.2828 5.64304 26.6574L2.83035 21.7827C2.45529 22.9079 2.33064 23.9704 2.42427 25.1266C2.86193 28.8141 5.67406 31.6262 9.36152 32.0639C9.61138 32.0949 9.89281 32.0949 10.1427 32.0949C14.424 32.0323 17.8611 28.6263 17.9237 24.3765C17.8611 20.1578 14.6423 16.908 10.5488 16.5955C10.4241 16.5955 10.2679 16.5955 10.1427 16.5955ZM10.1427 34.3447C4.64306 34.3447 0.111847 29.8451 0.111847 24.3765C0.111847 21.689 1.17388 19.2514 2.92398 17.4393L7.7056 25.689C7.92388 26.0635 8.23633 26.4075 8.6114 26.6889C9.04906 26.9388 9.54877 27.1261 10.0801 27.1261C10.1116 27.1261 10.1427 27.1261 10.1427 27.1261C12.08 27.1887 13.4235 25.0951 12.7675 23.3765C12.3925 22.2829 11.2989 21.5644 10.1427 21.5644C9.98644 21.5644 9.83021 21.5644 9.67398 21.5954C8.83023 21.689 7.98648 22.4076 7.61142 23.1577L3.83033 16.5955C5.54885 15.1895 7.76765 14.3457 10.1427 14.3457C15.6739 14.3457 20.1735 18.8453 20.1735 24.3765C20.1735 29.8451 15.6739 34.3447 10.1427 34.3447Z" fill="#C7070F"/>
<path fill-rule="evenodd" clip-rule="evenodd" d="M35.6735 25.5638L34.1422 22.9699C34.0796 23.2203 34.0486 23.4702 34.0486 23.7516V30.9077H36.7981V27.5327L35.6735 25.5638ZM51.954 25.0325L53.4227 27.5637V30.8761H53.3911V30.9077H50.2975V22.1893L51.954 25.0325ZM51.954 23.658L53.4227 26.1577V24.5328C53.4227 23.3455 55.4226 23.2519 55.4226 24.5328V30.8761H57.2664V30.9077H58.8597V24.5328C58.8597 23.3455 60.8602 23.2519 60.8602 24.5328V30.9077H63.9538V24.3765C63.9538 20.8453 59.5162 20.1894 57.8913 22.4076C56.8913 21.0331 54.8287 20.7517 53.3911 21.5644V21.1267H50.4853L51.954 23.658ZM69.2035 26.72L65.8285 20.8769C65.8285 24.2203 65.8285 27.5637 65.8285 30.8761H68.5786V30.47C69.2035 30.7825 69.9221 30.9697 70.7032 30.9697C73.3597 30.9697 75.5469 28.7825 75.5469 26.095C75.5469 23.4391 73.3597 21.2519 70.7032 21.2519C69.9221 21.2519 69.2035 21.4392 68.5786 21.7516V17.7207H65.8285C65.8285 18.8453 65.8285 18.3451 65.8285 19.4703L69.2661 25.3765C69.516 24.8762 70.0783 24.5017 70.7032 24.5017C71.5785 24.5017 72.2971 25.2203 72.2971 26.095C72.2971 26.9698 71.5785 27.6889 70.7032 27.6889C70.0157 27.6889 69.4534 27.3139 69.2035 26.72ZM80.2027 26.8136L77.9535 22.9389C77.2034 23.7826 76.7657 24.8762 76.7657 26.095C76.7657 28.7825 78.9535 30.9697 81.6404 30.9697C84.2968 30.9697 86.4841 28.7825 86.4841 26.095C86.4841 23.4391 84.2968 21.2519 81.6404 21.2519C80.4216 21.2519 79.328 21.689 78.4532 22.4392L80.2027 25.4075C80.4532 24.8762 81.0155 24.5017 81.6404 24.5017C82.5157 24.5017 83.2343 25.2203 83.2343 26.095C83.2343 26.9698 82.5157 27.6889 81.6404 27.6889C81.0155 27.6889 80.4532 27.3449 80.2027 26.8136ZM44.7663 28.3764C45.2666 28.1886 45.6101 27.7199 45.7043 27.1887H48.8915C48.4228 29.1576 46.7979 30.6573 44.7663 30.9387C44.5791 30.9387 44.3603 30.9697 44.1414 30.9697C41.4855 30.9697 39.2983 28.7825 39.2983 26.095C39.2983 25.0325 39.6418 24.0951 40.2047 23.2829L42.7043 27.5637C42.9542 28.126 43.4855 28.5011 44.1414 28.5011C44.3603 28.5011 44.5791 28.4701 44.7663 28.3764ZM44.7663 25.2513H45.7353C45.6727 24.658 45.2976 24.1887 44.7663 23.9704C44.5791 23.8763 44.3603 23.8452 44.1414 23.8452C43.2982 23.8452 42.6417 24.4391 42.5791 25.2513H44.7663ZM44.7663 21.283C44.5791 21.283 44.3603 21.2519 44.1414 21.2519C42.8295 21.2519 41.5792 21.8142 40.7044 22.72L43.0168 26.72V26.5011H48.9851C48.9851 26.3449 49.0167 26.2203 49.0167 26.095C49.0167 23.658 47.1414 21.5954 44.7663 21.283ZM35.6735 24.1887L34.5172 22.2203C34.8297 21.8453 35.2358 21.5954 35.6735 21.4702C35.9233 21.3766 36.2042 21.3456 36.4546 21.3456H38.6734V23.9078H38.0479C37.3294 23.9078 36.7981 24.4075 36.7981 25.1577V26.1266L35.6735 24.1887ZM26.1113 26.72L22.7047 20.8769C22.7047 24.2203 22.7047 27.5637 22.7047 30.8761H25.4548V30.47C26.1113 30.7825 26.8299 30.9697 27.5794 30.9697C30.2359 30.9697 32.4547 28.7825 32.4547 26.095C32.4547 23.4391 30.2359 21.2519 27.5794 21.2519C26.8299 21.2519 26.1113 21.4392 25.4548 21.7516V17.7207H22.7047C22.7047 18.8453 22.7047 18.3451 22.7047 19.4703L26.1423 25.3765C26.3922 24.8762 26.9545 24.5017 27.5794 24.5017C28.4548 24.5017 29.1733 25.2203 29.1733 26.095C29.1733 26.9698 28.4548 27.6889 27.5794 27.6889C26.9235 27.6889 26.3612 27.3139 26.1113 26.72Z" fill="#C7070F"/>
</svg>
