<svg width="24" height="24" viewBox="0 0 24 24" fill="none" xmlns="http://www.w3.org/2000/svg">
<path fill-rule="evenodd" clip-rule="evenodd" d="M15.75 6.5625C15.375 6.09375 14.5078 5.01562 13.4062 5.01562H6.49219C5.97656 5.01562 5.34375 5.03906 4.59375 6.86719C4.22911 7.75601 3.71488 8.99386 3.28271 10.0312L3.24206 10.1288C2.76938 10.2616 2.19893 10.5026 1.7892 10.6756C1.71888 10.7053 1.6533 10.733 1.59375 10.7578C1.03125 10.9922 0 11.9062 0 13.125V18.9844H4.99922C4.97924 18.8859 4.96875 18.784 4.96875 18.6797C4.96875 17.8383 5.65082 17.1562 6.49219 17.1562C7.33356 17.1562 8.01562 17.8383 8.01562 18.6797C8.01562 18.784 8.00513 18.8859 7.98515 18.9844H15.0305C15.0105 18.8859 15 18.784 15 18.6797C15 17.8383 15.6821 17.1562 16.5234 17.1562C17.3648 17.1562 18.0469 17.8383 18.0469 18.6797C18.0469 18.784 18.0364 18.8859 18.0164 18.9844H24V13.7344C24 11.2969 22.3594 10.8984 21.9375 10.8047C21.8365 10.7822 21.6053 10.7262 21.3071 10.654L21.3068 10.6539C20.4066 10.4359 18.8966 10.0701 18.5187 10.0341L18.5164 10.0312C17.3648 8.5868 15.9655 6.83183 15.75 6.5625ZM19.5944 17.0156H22.0312V13.7344C22.0312 13.3478 21.9669 13.1308 21.9221 13.0244C21.8795 12.9229 21.8366 12.878 21.811 12.8549C21.7386 12.7899 21.6392 12.7552 21.5104 12.7266C21.401 12.7022 21.1355 12.638 20.8082 12.5588L20.8079 12.5588L20.8076 12.5587L20.8061 12.5583L20.8058 12.5583C20.4759 12.4785 20.0835 12.3835 19.725 12.299C19.344 12.2092 18.9788 12.1255 18.693 12.0652C18.5489 12.0348 18.4393 12.0133 18.3649 12.0004L18.3625 12H3.86912C3.85482 12.0032 3.83488 12.0079 3.80882 12.0148C3.70325 12.0428 3.5609 12.089 3.38532 12.1538C3.10692 12.2565 2.83628 12.3707 2.57923 12.4792C2.51202 12.5075 2.44574 12.5355 2.38049 12.5628C2.37078 12.5689 2.35058 12.5822 2.32148 12.605C2.25854 12.6543 2.18696 12.7225 2.12327 12.8021C1.98729 12.9721 1.96875 13.0846 1.96875 13.125V17.0156H3.4212C4.01248 15.9267 5.16601 15.1875 6.49219 15.1875C7.81837 15.1875 8.97189 15.9267 9.56317 17.0156H13.4525C14.0437 15.9267 15.1973 15.1875 16.5234 15.1875C17.8496 15.1875 19.0031 15.9267 19.5944 17.0156ZM9 10.0312H5.41519C5.76631 9.18688 6.13444 8.29873 6.41518 7.61444C6.5379 7.3153 6.64097 7.11466 6.71857 6.98438H9V10.0312ZM10.9688 10.0312V6.98438H13.3706C13.396 6.99444 13.4727 7.02971 13.6045 7.13751C13.8273 7.31968 14.0237 7.55612 14.2127 7.79237C14.3677 7.98611 15.1439 8.9594 15.9985 10.0312H10.9688Z" fill="#00A19C"/>
</svg>
