<svg width="20" height="20" viewBox="0 0 20 20" fill="none" xmlns="http://www.w3.org/2000/svg">
<path fill-rule="evenodd" clip-rule="evenodd" d="M6.07759 6.07709C6.40303 5.75165 6.93067 5.75165 7.2561 6.07709L10.0002 8.82116L12.7443 6.07709C13.0697 5.75165 13.5973 5.75165 13.9228 6.07709C14.2482 6.40252 14.2482 6.93016 13.9228 7.2556L11.1787 9.99967L13.9228 12.7437C14.2482 13.0692 14.2482 13.5968 13.9228 13.9222C13.5973 14.2477 13.0697 14.2477 12.7442 13.9222L10.0002 11.1782L7.25609 13.9223C6.93065 14.2477 6.40301 14.2477 6.07757 13.9223C5.75214 13.5968 5.75214 13.0692 6.07757 12.7438L8.82167 9.99967L6.07759 7.2556C5.75216 6.93016 5.75216 6.40252 6.07759 6.07709Z" fill="#292929"/>
</svg>
