<svg xmlns="http://www.w3.org/2000/svg" width="24" height="24" viewBox="0 0 24 24" fill="none">
  <path d="M16.295 7.705C15.9056 7.31564 15.2744 7.31564 14.885 7.705L12 10.59L9.115 7.705C8.72564 7.31564 8.09436 7.31564 7.705 7.705C7.31564 8.09436 7.31564 8.72564 7.705 9.115L10.59 12L7.705 14.885C7.31564 15.2744 7.31564 15.9056 7.705 16.295C8.09436 16.6844 8.72564 16.6844 9.115 16.295L12 13.41L14.885 16.295C15.2744 16.6844 15.9056 16.6844 16.295 16.295C16.6844 15.9056 16.6844 15.2744 16.295 14.885L13.41 12L16.295 9.115C16.6844 8.72564 16.6844 8.09436 16.295 7.705Z" fill="#D60B0B"/>
</svg>
