<svg width="158" height="50" viewBox="0 0 158 50" fill="none" xmlns="http://www.w3.org/2000/svg">
<path fill-rule="evenodd" clip-rule="evenodd" d="M11.4344 29.1117C12.7277 29.1117 13.7896 28.4427 14.5252 27.4213H19.1754C18.2073 30.3254 15.0338 32.6648 11.4355 32.6648C6.96189 32.6648 3.33563 29.0939 3.33563 24.8295C3.33563 20.5651 6.65113 17.0065 11.4355 17.0065C15.909 17.0065 19.5364 20.5662 19.5364 24.8295C19.5364 25.293 19.4917 25.7475 19.4101 26.3877H8.25523C8.57046 27.9348 9.81014 29.1117 11.4344 29.1117ZM26.0109 15.4305H21.2042V32.2836H26.0109V15.4305ZM33.2892 21.9777H38.5542V25.7275H33.288V32.2336H28.5562V20.7463C28.5562 20.7463 28.8301 15.4794 33.8347 15.3794H38.562V19.1715H34.7982C34.7982 19.1715 33.2131 19.1826 33.2892 21.1942V21.9777ZM8.40723 23.1436C8.40723 21.5254 9.82911 20.4862 11.4354 20.4862C13.5504 20.4862 14.4748 21.5587 14.476 23.1436H8.40723Z" fill="black"/>
<path d="M56.1835 18.2656H52.896V24.4861L51.2896 25.0351V29.4229H47.9607L49.2842 32.9126L59.8668 29.2728V18.2656H56.1835Z" fill="#ED1C24"/>
<path d="M54.8007 14.7612L44.2182 18.4522V29.4227H51.2896V23.2389L52.8959 22.7743V18.2654H56.1835L54.8007 14.7612Z" fill="#16479E"/>
</svg>
