<svg xmlns="http://www.w3.org/2000/svg" width="73" height="25" viewBox="0 0 73 25" fill="none">
  <g clip-path="url(#clip0_0_806)">
    <path d="M0 12.4996C0 19.4036 16.1314 25 36.031 25C55.9291 25 72.0589 19.4036 72.0589 12.4996C72.0589 5.5956 55.9291 0 36.031 0C16.1314 0 0 5.5956 0 12.4996ZM1.26706 12.4996C1.26706 6.19302 16.8302 1.08202 36.0302 1.08202C55.2303 1.08202 70.7926 6.19302 70.7926 12.4996C70.7926 18.8062 55.2303 23.9195 36.0302 23.9195C16.8302 23.9195 1.26782 18.8062 1.26706 12.4996Z" fill="#6B6F6E"/>
    <path d="M56.4213 8.26019C56.2785 8.26019 56.2056 8.27761 56.138 8.40936C55.9162 8.83263 53.2197 12.8608 52.7183 13.643C52.634 13.7619 52.5299 13.7452 52.5185 13.6097C52.4676 13.1448 52.065 12.6117 51.4308 12.3551C50.9485 12.1605 50.4745 12.1241 49.9846 12.1885C49.0974 12.3073 48.3074 12.7745 47.6131 13.3008C46.5649 14.0936 45.6625 15.1226 44.4958 15.882C43.86 16.2954 42.9873 16.6574 42.4054 16.119C41.8775 15.6314 41.9367 14.5479 42.7434 13.7097C42.8285 13.6211 42.9318 13.6938 42.9159 13.7733C42.8391 14.1534 42.9333 14.5297 43.2212 14.7939C43.5744 15.1082 44.078 15.1438 44.5095 14.934C45.0192 14.6826 45.3184 14.1973 45.4058 13.6445C45.541 12.7897 44.8802 12.0355 44.0538 11.9749C43.383 11.928 42.7389 12.1605 42.1115 12.6769C41.7978 12.9366 41.6185 13.1289 41.3474 13.5151C41.2805 13.609 41.1787 13.6188 41.1825 13.4795C41.2136 12.3838 40.7594 11.769 39.8509 11.747C39.1468 11.7304 38.3925 12.1128 37.8054 12.5784C37.162 13.0941 36.5984 13.7755 35.9968 14.4176C35.9216 14.4971 35.8555 14.4933 35.8343 14.3412C35.8168 13.615 35.633 12.9123 35.2965 12.4134C35.1772 12.24 34.9265 12.1536 34.7154 12.271C34.6181 12.3233 34.2794 12.4792 34.0326 12.6776C33.911 12.7783 33.8623 12.9237 33.917 13.11C34.2421 14.1927 34.1715 15.4262 33.7294 16.4658C33.3246 17.4191 32.5369 18.28 31.6117 18.57C31.0018 18.7631 30.3682 18.6692 29.9763 18.1309C29.4378 17.3873 29.6558 16.094 30.4586 15.0203C31.1673 14.0754 32.1913 13.4749 33.2137 13.088C33.3345 13.0418 33.3596 12.9646 33.3246 12.8631C33.2692 12.6958 33.1802 12.4679 33.1445 12.3634C33.0511 12.115 32.7876 12.0741 32.467 12.1097C31.7249 12.1953 31.055 12.4497 30.3926 12.8025C28.6593 13.7271 27.791 15.5186 27.4105 16.4757C27.2267 16.9368 27.0701 17.223 26.8673 17.4782C26.5954 17.8212 26.2513 18.1316 25.6239 18.6813C25.5684 18.7313 25.5259 18.8358 25.573 18.9335C25.6376 19.0645 25.9642 19.5248 26.0561 19.5657C26.1579 19.6157 26.2771 19.546 26.3242 19.512C26.7633 19.2159 27.2882 18.7457 27.5457 18.4269C27.6345 18.3179 27.7272 18.3641 27.7758 18.5291C28.0158 19.381 28.6433 20.0783 29.5115 20.3691C31.1005 20.9029 32.7481 20.1298 33.9931 18.7836C34.7838 17.9279 35.0685 17.3775 35.3731 17.0034C35.8859 16.3697 36.8992 14.9499 38.1061 14.0398C38.5482 13.7021 39.0724 13.4469 39.3352 13.6165C39.5464 13.7528 39.6162 14.0708 39.2759 14.6857C38.0462 16.9262 36.2361 19.5559 35.9034 20.1949C35.8419 20.3047 35.8943 20.3926 36.012 20.3926C36.6561 20.3888 37.2934 20.3903 37.8783 20.3903C37.9756 20.3858 38.0189 20.3418 38.0682 20.2722C39.0116 18.7995 39.9011 17.3971 40.8529 15.9471C40.9068 15.8631 40.9546 15.929 40.9577 15.9661C40.9774 16.303 41.0602 16.7634 41.2615 17.0655C41.6208 17.6243 42.1312 17.8636 42.6979 17.8674C43.1475 17.8727 43.3754 17.8045 43.8601 17.6243C44.2558 17.4774 44.5732 17.2866 44.8163 17.1117C44.9576 17.014 44.9827 17.1783 44.9797 17.2041C44.7609 18.3732 45.0313 19.7588 46.1972 20.3335C47.5934 21.0188 49.1262 20.0549 50.0089 19.1856C50.0947 19.1016 50.1866 19.1107 50.1957 19.2909C50.2132 19.6225 50.3659 20.0178 50.6409 20.2941C51.3792 21.0332 52.8725 20.7401 54.3689 19.5854C55.3298 18.8464 56.3355 17.8007 57.2432 16.6937C57.2774 16.6513 57.3024 16.5817 57.234 16.512C57.0958 16.3689 56.8953 16.2038 56.7585 16.0759C56.6963 16.0236 56.6052 16.038 56.5512 16.0789C55.6207 16.961 54.7821 17.9673 53.5706 18.8002C53.1627 19.0849 52.5109 19.3136 52.2185 18.9191C52.1045 18.7646 52.1183 18.5534 52.2307 18.2747C52.5839 17.3972 58.1751 8.91062 58.4653 8.40936C58.5162 8.32228 58.4653 8.25867 58.3529 8.25867C57.7772 8.25867 57.0221 8.26019 56.4228 8.26019H56.4213ZM47.5554 18.6897C47.2683 18.5413 47.1429 18.1399 47.1498 17.8166C47.165 16.902 47.5706 15.9646 48.3226 15.0415C49.241 13.9171 50.255 13.3311 50.9212 13.6521C51.6094 13.9792 51.389 14.7743 51.0814 15.3982C51.0594 15.4474 51.0571 15.4875 51.0693 15.5277C51.0799 15.592 51.165 15.6549 51.2478 15.6844C51.2774 15.6958 51.2941 15.717 51.2606 15.7843C51.0229 16.2924 50.8042 16.5862 50.5064 17.0269C50.233 17.4343 49.9238 17.753 49.5493 18.0589C49.1141 18.4171 48.5482 18.8017 48.0157 18.8017C47.8585 18.8017 47.7028 18.7684 47.5554 18.6897Z" fill="#6B6F6E"/>
    <path d="M26.696 3.11353C26.162 3.11353 25.6265 3.13398 25.0865 3.17714C21.6493 3.46638 18.3801 5.39493 18.3725 8.32221C18.3725 9.80781 19.4291 11.0102 21.0698 10.958C22.9984 10.8921 24.5806 9.3535 25.4101 7.41208C25.7245 6.67534 25.1412 6.36943 24.8639 6.79421C24.3687 7.55821 23.6721 8.15033 22.9178 8.51908C22.0101 8.96204 21.041 8.8424 20.7478 8.10717C20.3345 7.07135 21.1936 5.52214 23.1541 4.79222C25.9866 3.7473 28.9497 4.43937 31.7997 4.97318C31.8407 4.97318 31.9926 5.05723 31.8574 5.12689C31.3478 5.40403 30.8456 5.63042 30.0625 6.30204C29.5004 6.78134 28.7651 7.41889 28.1962 8.11475C27.6326 8.8 27.2323 9.4118 26.7036 10.088C26.6292 10.1872 26.5388 10.1819 26.5403 10.1819C25.2506 10.3992 23.9866 10.5438 22.8305 11.3457C22.5912 11.51 22.4879 11.8022 22.633 12.0256C22.7637 12.224 23.0606 12.2444 23.2665 12.0945C23.9851 11.5584 24.7257 11.307 25.5742 11.2836C25.6114 11.2858 25.6281 11.2927 25.6387 11.3139C25.6478 11.3267 25.6387 11.354 25.6266 11.3744C24.355 13.1311 24.0375 13.5286 23.082 14.6175C22.5928 15.177 22.112 15.6495 21.5742 16.1417C19.4048 18.1505 17.0698 18.1179 16.2327 16.8565C15.7337 16.1 15.7991 15.3073 16.1272 14.6477C16.5298 13.8413 17.3455 13.25 18.0238 12.9047C18.276 12.776 18.3482 12.4557 18.096 12.1642C17.9365 11.9726 17.5461 11.9385 17.2582 11.9915C16.3688 12.1558 15.3182 12.8252 14.6976 13.6316C13.9988 14.5364 13.6494 15.6344 13.7664 16.8663C13.9768 19.0909 15.8135 20.3759 17.8986 20.3607C19.5583 20.3471 21.1222 19.8458 23.0014 17.943C24.7553 16.1674 26.3528 13.5165 27.8484 11.0579C27.8947 10.9784 27.9281 10.936 28.1559 10.908C29.094 10.7914 30.4796 10.6574 31.366 10.6066C31.5643 10.5953 31.6045 10.5983 31.6828 10.696C31.9144 10.9868 32.2623 11.2336 32.5395 11.3835C32.6747 11.4577 32.7393 11.4933 32.8464 11.4963C32.9778 11.4994 33.0812 11.4282 33.1457 11.3532C33.2399 11.2495 33.2657 11.1162 33.2163 11.0292C33.1639 10.939 32.5441 10.596 32.5251 10.4582C32.5115 10.3712 32.6064 10.3515 32.6064 10.3515C33.0614 10.2091 33.5346 9.91609 33.8225 9.36865C34.1043 8.82877 34.1499 8.10869 33.6334 7.70889C33.1814 7.35756 32.497 7.41359 31.9516 7.90122C31.4192 8.37522 31.2407 9.06502 31.3144 9.66925C31.3265 9.77374 31.3234 9.81009 31.1783 9.82144C30.3572 9.8858 29.5673 9.90928 28.6877 9.95547C28.6292 9.96001 28.611 9.92139 28.6452 9.87975C29.6569 8.12611 31.1693 6.8775 32.8411 5.64784C32.9513 5.5653 32.9178 5.40781 32.9133 5.27682C35.9319 5.93102 38.8494 7.14706 41.9827 7.12207C43.277 7.11072 44.5174 6.91537 45.7016 6.26646C46.7445 5.69932 47.1677 5.17535 47.1981 4.63093C47.2231 4.25385 46.961 4.01686 46.5866 4.09712C43.4214 4.82251 40.4035 4.81418 37.2535 4.43407C33.682 4.00247 30.2539 3.11505 26.7006 3.11505C26.7006 3.11505 26.7006 3.11505 26.6915 3.11505L26.696 3.11353ZM32.1499 9.43376C32.1043 9.1006 32.2129 8.65311 32.5707 8.33812C32.7499 8.17911 32.9923 8.14277 33.1419 8.27073C33.3083 8.41308 33.23 8.76668 33.0614 9.01277C32.8783 9.28308 32.5646 9.51705 32.2805 9.57384C32.2714 9.57536 32.2646 9.57687 32.257 9.57687C32.2091 9.57612 32.1704 9.5428 32.1499 9.43376Z" fill="#6B6F6E"/>
  </g>
  <defs>
    <clipPath id="clip0_0_806">
      <rect width="73" height="25" fill="white"/>
    </clipPath>
  </defs>
</svg>
