<svg width="158" height="50" viewBox="0 0 158 50" fill="none" xmlns="http://www.w3.org/2000/svg">
<ellipse cx="26.4215" cy="24.3895" rx="24.0598" ry="15.4987" fill="#FFD400"/>
<path fill-rule="evenodd" clip-rule="evenodd" d="M26.4215 8.89087C35.1363 8.89087 42.7949 11.9024 47.0156 16.3901L44.2459 16.5639C40.2513 13.1802 33.7464 10.9721 26.4215 10.9721C14.3239 10.9721 4.45542 17.0006 4.45542 24.3915C4.45542 31.7823 14.3239 37.8116 26.4215 37.8116C34.0515 37.8116 40.7918 35.4136 44.7314 31.79L47.4175 31.943C43.2905 36.6775 35.4197 39.8882 26.4215 39.8882C13.1709 39.8882 2.36171 32.9264 2.36171 24.3899C2.36171 15.8527 13.1709 8.89087 26.4215 8.89087ZM26.4215 12.7904C32.427 12.7904 37.8324 14.3181 41.5258 16.733L8.82093 18.7674C12.2658 15.2084 18.8698 12.7904 26.4215 12.7904ZM42.1236 31.6393C38.4279 34.2903 32.76 35.9917 26.4215 35.9917C18.6561 35.9917 11.8934 33.4353 8.53598 29.7103L42.1236 31.6393ZM40.2273 18.4053C42.1251 22.577 41.0713 27.5614 40.0779 29.9425L42.7848 30.0986C43.3059 29.126 43.7279 28.0504 43.9757 26.9502L47.2688 27.0132C46.8731 28.4363 46.4179 29.2982 45.8642 30.2746L46.0957 30.2923L48.5642 30.4445C49.7985 28.5824 50.4814 26.5358 50.4814 24.3899C50.4814 22.0765 49.6877 19.8791 48.2692 17.9071L40.2273 18.4053ZM43.865 20.8125L46.8089 20.7264C47.2618 21.5368 47.68 22.7392 47.7226 24.1216H44.3211C44.2909 23.1805 44.184 21.902 43.865 20.8125ZM32.8537 18.8635C33.82 22.4002 33.7379 26.0114 32.8428 29.5219L38.6098 29.8648C38.8715 29.1721 39.1054 28.4771 39.3369 27.5383L36.6454 27.3899C37.2385 24.8013 36.9242 20.8064 36.012 18.6728L32.8537 18.8635ZM25.3747 19.3286C26.4603 22.1203 26.1893 26.1198 25.3979 29.0898L31.185 29.4258C31.4499 28.6931 31.6094 27.7567 31.7147 27.1885L29.1401 27.0839C29.7061 24.433 29.456 21.0216 28.5222 19.1326L25.3747 19.3286ZM17.0897 19.8438C15.5589 22.6785 15.4621 25.6208 16.9836 28.6016L23.0657 28.9561C23.2516 28.2926 23.4049 27.6706 23.5226 27.0732C23.5249 27.0593 23.5264 27.0463 23.5272 27.0309L19.0959 26.8433C18.8613 26.0944 18.8613 25.8476 18.814 25.4302L23.7456 25.454C23.8842 25.055 23.9306 23.6811 23.7456 23.2513L18.7436 23.2659C18.7606 22.9322 18.9952 21.8804 19.0487 21.7351L23.5698 21.4783C23.4467 20.8517 23.2694 20.1659 23.0611 19.4724L17.0897 19.8438ZM7.45119 20.4412C5.97305 23.0122 5.88168 25.5463 7.30949 28.0404L9.60374 28.1742C9.50618 27.9789 8.927 26.7987 8.78531 25.5909L11.1415 25.5862C11.1415 25.5862 11.4218 27.1977 11.9166 28.3018L14.584 28.4625C13.1926 25.7262 13.2515 22.7354 14.5066 20.0045L11.8632 20.1682C11.5898 20.9601 11.356 21.6636 11.1446 22.9606L8.80312 22.9553C8.98663 21.7482 9.32422 21.0893 9.63239 20.3051L7.45119 20.4412Z" fill="#005AAA"/>
</svg>
