<svg width="153" height="21" viewBox="0 0 153 21" fill="none" xmlns="http://www.w3.org/2000/svg">
<g clip-path="url(#clip0_1162_1688)">
<path d="M58.552 2.96582V8.71035H52.0511V2.96582H48.4678V18.0394H52.0511V11.9788H58.552V18.0394H62.1353V2.96582H58.552Z" fill="#6B6F6E"/>
<path d="M75.2621 2.96582L71.5145 8.93545L67.7713 2.96582H63.5439L69.7293 12.8186V18.0394H73.3083V12.8186L79.4937 2.96582H75.2621Z" fill="#6B6F6E"/>
<path d="M91.0129 2.96582V14.0134C91.0129 14.4333 90.6974 14.771 90.2522 14.771H84.512V2.96582H80.9287V18.0394H91.5143C92.4566 18.0394 93.2131 17.7579 93.7664 17.2081C94.3153 16.654 94.5919 15.8965 94.5919 14.9571V2.96582H91.0129Z" fill="#6B6F6E"/>
<path d="M108.498 2.96582H97.9121V18.0394H101.491V6.22985H107.24C107.702 6.22985 107.996 6.59349 107.996 6.98309V18.0394H111.575V6.04809C111.575 5.10437 111.294 4.34678 110.75 3.797C110.192 3.24289 109.44 2.96582 108.498 2.96582Z" fill="#6B6F6E"/>
<path d="M125.48 2.96582H114.895V18.0394H125.48C126.423 18.0394 127.175 17.7579 127.724 17.2081C128.277 16.654 128.553 15.8965 128.553 14.9571V6.04809C128.553 5.10437 128.277 4.34678 127.724 3.797C127.175 3.24289 126.418 2.96582 125.48 2.96582V2.96582ZM124.975 7.00907V13.9917C124.975 14.3987 124.681 14.771 124.214 14.771H118.469V6.22985H124.188C124.659 6.22985 124.975 6.55888 124.975 7.00907Z" fill="#6B6F6E"/>
<path d="M134.795 2.96582C133.857 2.96582 133.096 3.24289 132.547 3.797C131.994 4.35111 131.722 5.10871 131.722 6.04809V18.0394H135.292V13.377H141.797V18.0394H145.376V2.96582H134.795ZM141.797 6.22985V10.113H135.292V6.99613C135.292 6.62384 135.582 6.22985 136.057 6.22985H141.797Z" fill="#6B6F6E"/>
<path d="M148.86 18.0394H152.444V2.96582H148.86V18.0394Z" fill="#6B6F6E"/>
<path d="M20.471 21C31.7785 21 40.9464 16.2987 40.9464 10.5022C40.9464 4.70135 31.7785 0 20.471 0C9.1679 0 0 4.70135 0 10.5022C0 16.2987 9.1679 21 20.471 21ZM24.3267 15.8485C23.9852 16.6407 23.3974 18.3333 22.0487 19.0086C21.6381 19.2122 21.1324 19.3075 20.6828 19.3247C20.579 19.3247 20.5056 19.3247 20.4752 19.3247C16.6974 19.3247 13.1789 18.7965 10.2354 17.9004C10.2134 17.891 10.1447 17.8658 10.1231 17.857C9.85081 17.7663 9.71242 17.6406 9.71242 17.4848C9.71242 17.3507 9.78585 17.2467 9.88089 17.1515C9.92417 17.1125 9.9847 17.0607 10.0669 16.9868C10.7498 16.4198 12.7943 14.9349 16.65 13.4544C18.0029 12.9392 19.6973 12.2942 21.4694 11.9176C22.5068 11.7012 26.3624 11.108 24.3266 15.8483L24.3267 15.8485ZM34.6702 5.26395C34.7436 5.13829 34.8389 5.0302 35.0159 5.0214C35.111 5.01198 35.2409 5.03396 35.4396 5.15993C37.8428 6.64045 39.2692 8.49328 39.2692 10.4976C39.2692 14.1166 34.6226 17.2291 27.9747 18.5884C27.5511 18.6751 27.2659 18.6707 27.1708 18.5633C27.1018 18.4983 27.0845 18.3815 27.1708 18.2387C27.2097 18.1652 27.2573 18.1001 27.3479 17.9917C30.9658 13.719 33.7235 7.41595 34.5059 5.59776C34.5664 5.47211 34.6226 5.34683 34.6703 5.26452L34.6702 5.26395ZM16.6803 5.1304C17.0218 4.3382 17.6096 2.64548 18.9582 1.97451C19.3689 1.77094 19.8746 1.67141 20.3241 1.65853C20.4279 1.65538 20.5013 1.65853 20.5274 1.65853C24.3095 1.65853 27.8236 2.18232 30.7715 3.08275C30.7935 3.09217 30.8622 3.11729 30.8838 3.12608C31.1561 3.21687 31.2944 3.34249 31.2944 3.49834C31.2944 3.63248 31.221 3.73208 31.126 3.82736C31.0827 3.87071 31.0222 3.92254 30.94 3.99197C30.2614 4.56339 28.2125 6.04391 24.3569 7.52443C22.9997 8.0439 21.3096 8.68458 19.5418 9.06121C18.5 9.28205 14.6444 9.87075 16.6803 5.1305V5.1304ZM12.9673 2.40755C13.3952 2.32524 13.6762 2.32523 13.7799 2.43266C13.8405 2.50178 13.8577 2.61456 13.7768 2.75737C13.7335 2.83088 13.6862 2.90034 13.5996 2.99992C9.98174 7.27696 7.22405 13.5756 6.43734 15.3981C6.38119 15.5238 6.32066 15.6491 6.27298 15.7315C6.20366 15.8571 6.10454 15.9652 5.93149 15.974C5.83645 15.9834 5.70249 15.9552 5.50356 15.8355C3.10028 14.3549 1.67391 12.5021 1.67391 10.4978C1.67391 6.87875 6.3205 3.76626 12.9684 2.40697" fill="#6B6F6E"/>
</g>
<defs>
<clipPath id="clip0_1162_1688">
<rect width="153" height="21" fill="white"/>
</clipPath>
</defs>
</svg>
