<svg xmlns="http://www.w3.org/2000/svg" width="170" height="25" viewBox="0 0 170 25" fill="none">
  <path d="M67.552 4.96582V10.7104H61.0511V4.96582H57.4678V20.0394H61.0511V13.9788H67.552V20.0394H71.1353V4.96582H67.552Z" fill="#6B6F6E"/>
  <path d="M84.2626 4.96582L80.515 10.9355L76.7718 4.96582H72.5444L78.7298 14.8186V20.0394H82.3088V14.8186L88.4942 4.96582H84.2626Z" fill="#6B6F6E"/>
  <path d="M100.013 4.96582V16.0134C100.013 16.4333 99.6979 16.771 99.2527 16.771H93.5125V4.96582H89.9292V20.0394H100.515C101.457 20.0394 102.214 19.7579 102.767 19.2081C103.316 18.654 103.592 17.8965 103.592 16.9571V4.96582H100.013Z" fill="#6B6F6E"/>
  <path d="M117.497 4.96582H106.912V20.0394H110.491V8.22985H116.239C116.702 8.22985 116.996 8.59349 116.996 8.98309V20.0394H120.575V8.04809C120.575 7.10437 120.294 6.34678 119.749 5.797C119.192 5.24289 118.44 4.96582 117.497 4.96582Z" fill="#6B6F6E"/>
  <path d="M134.48 4.96582H123.895V20.0394H134.48C135.423 20.0394 136.175 19.7579 136.724 19.2081C137.277 18.654 137.553 17.8965 137.553 16.9571V8.04809C137.553 7.10437 137.277 6.34678 136.724 5.797C136.175 5.24289 135.418 4.96582 134.48 4.96582ZM133.975 9.00907V15.9917C133.975 16.3987 133.681 16.771 133.214 16.771H127.469V8.22985H133.188C133.659 8.22985 133.975 8.55888 133.975 9.00907Z" fill="#6B6F6E"/>
  <path d="M143.795 4.96582C142.857 4.96582 142.096 5.24289 141.547 5.797C140.994 6.35111 140.722 7.10871 140.722 8.04809V20.0394H144.292V15.377H150.797V20.0394H154.376V4.96582H143.795ZM150.797 8.22985V12.113H144.292V8.99613C144.292 8.62384 144.582 8.22985 145.057 8.22985H150.797Z" fill="#6B6F6E"/>
  <path d="M157.861 20.0394H161.444V4.96582H157.861V20.0394Z" fill="#6B6F6E"/>
  <path d="M29.471 23C40.7785 23 49.9464 18.2987 49.9464 12.5022C49.9464 6.70135 40.7785 2 29.471 2C18.1679 2 9 6.70135 9 12.5022C9 18.2987 18.1679 23 29.471 23ZM33.3267 17.8485C32.9852 18.6407 32.3974 20.3333 31.0487 21.0086C30.6381 21.2122 30.1324 21.3075 29.6828 21.3247C29.579 21.3247 29.5056 21.3247 29.4752 21.3247C25.6974 21.3247 22.1789 20.7965 19.2354 19.9004C19.2134 19.891 19.1447 19.8658 19.1231 19.857C18.8508 19.7663 18.7124 19.6406 18.7124 19.4848C18.7124 19.3507 18.7858 19.2467 18.8809 19.1515C18.9242 19.1125 18.9847 19.0607 19.0669 18.9868C19.7498 18.4198 21.7943 16.9349 25.65 15.4544C27.0029 14.9392 28.6973 14.2942 30.4694 13.9176C31.5068 13.7012 35.3624 13.108 33.3266 17.8483L33.3267 17.8485ZM43.6702 7.26395C43.7436 7.13829 43.8389 7.0302 44.0159 7.0214C44.111 7.01198 44.2409 7.03396 44.4396 7.15993C46.8428 8.64045 48.2692 10.4933 48.2692 12.4976C48.2692 16.1166 43.6226 19.2291 36.9747 20.5884C36.5511 20.6751 36.2659 20.6707 36.1708 20.5633C36.1017 20.4983 36.0845 20.3815 36.1708 20.2387C36.2097 20.1652 36.2573 20.1001 36.3479 19.9917C39.9658 15.719 42.7235 9.41596 43.5059 7.59776C43.5664 7.47211 43.6226 7.34683 43.6703 7.26452L43.6702 7.26395ZM25.6803 7.1304C26.0218 6.3382 26.6096 4.64548 27.9582 3.97451C28.3689 3.77094 28.8746 3.67141 29.3241 3.65853C29.4279 3.65538 29.5013 3.65853 29.5274 3.65853C33.3095 3.65853 36.8236 4.18232 39.7715 5.08275C39.7935 5.09217 39.8622 5.11729 39.8838 5.12608C40.1561 5.21687 40.2944 5.34249 40.2944 5.49834C40.2944 5.63248 40.221 5.73208 40.126 5.82736C40.0827 5.87071 40.0222 5.92254 39.94 5.99197C39.2614 6.56339 37.2125 8.04391 33.3569 9.52443C31.9997 10.0439 30.3096 10.6846 28.5418 11.0612C27.5 11.282 23.6444 11.8707 25.6803 7.1305V7.1304ZM21.9673 4.40755C22.3952 4.32524 22.6762 4.32523 22.7799 4.43266C22.8405 4.50178 22.8577 4.61456 22.7768 4.75737C22.7335 4.83088 22.6862 4.90034 22.5996 4.99992C18.9817 9.27696 16.224 15.5756 15.4373 17.3981C15.3812 17.5238 15.3207 17.6491 15.273 17.7315C15.2037 17.8571 15.1045 17.9652 14.9315 17.974C14.8365 17.9834 14.7025 17.9552 14.5036 17.8355C12.1003 16.3549 10.6739 14.5021 10.6739 12.4978C10.6739 8.87875 15.3205 5.76626 21.9684 4.40697" fill="#6B6F6E"/>
</svg>
