<svg width="40" height="40" viewBox="0 0 40 40" fill="none" xmlns="http://www.w3.org/2000/svg">
<rect width="40" height="40" fill="#444D4C"/>
<path d="M23.7232 11.6665H16.2666C13.7252 11.6665 11.6665 13.7252 11.6665 16.2666V23.7331C11.6665 26.2646 13.7252 28.3332 16.2666 28.3332H23.7331C26.2646 28.3332 28.3332 26.2745 28.3332 23.7331V16.2666C28.3233 13.7252 26.2548 11.6665 23.7232 11.6665ZM26.8458 23.7232C26.8458 25.447 25.447 26.8458 23.7232 26.8458H16.2666C14.5428 26.8458 13.144 25.447 13.144 23.7232V16.2666C13.144 14.5428 14.5428 13.144 16.2666 13.144H23.7331C25.4569 13.144 26.8556 14.5428 26.8556 16.2666L26.8458 23.7232Z" fill="#FCFAF9"/>
<path d="M19.9891 15.3701C17.4407 15.3701 15.3701 17.4431 15.3701 19.9944C15.3701 22.5458 17.4407 24.6294 19.9997 24.6294C22.5588 24.6294 24.6294 22.5564 24.6294 19.9944C24.6188 17.4431 22.5482 15.3701 19.9891 15.3701ZM19.9891 23.0348C18.322 23.0348 16.9523 21.6741 16.9523 19.9944C16.9629 18.3254 18.322 16.9647 19.9891 16.9647C21.6562 16.9647 23.026 18.3254 23.026 20.0051C23.026 21.6741 21.6668 23.0348 19.9891 23.0348Z" fill="#FCFAF9"/>
<path d="M24.6295 14.4443C24.3854 14.4443 24.1497 14.5453 23.973 14.7137C23.7962 14.882 23.7036 15.1262 23.7036 15.3703C23.7036 15.6144 23.8046 15.8501 23.973 16.0268C24.1413 16.1952 24.3854 16.2962 24.6295 16.2962C24.8736 16.2962 25.1093 16.1952 25.2861 16.0268C25.4629 15.8585 25.5555 15.6144 25.5555 15.3703C25.5555 15.1262 25.4545 14.8905 25.2861 14.7137C25.1178 14.5369 24.8736 14.4443 24.6295 14.4443Z" fill="#FCFAF9"/>
</svg>
