<svg xmlns="http://www.w3.org/2000/svg" width="49" height="25" viewBox="0 0 49 25" fill="none">
  <g clip-path="url(#clip0_0_835)">
    <path fill-rule="evenodd" clip-rule="evenodd" d="M24.6032 22.1393C12.2293 22.1393 2.19918 17.851 2.19918 12.5612C2.19918 7.27179 12.2293 2.98318 24.6032 2.98318C36.9774 2.98318 47.008 7.27187 47.008 12.5612C47.008 17.8509 36.9774 22.1393 24.6032 22.1393ZM24.5001 0C10.9685 0 0 5.5963 0 12.4997C0 19.4032 10.9685 25 24.5001 25C38.0315 25 49 19.4032 49 12.4997C49.0001 5.5963 38.0315 0 24.5001 0Z" fill="#6B6F6E"/>
    <path fill-rule="evenodd" clip-rule="evenodd" d="M32.6009 7.53283C32.6636 7.35308 32.5356 7.16544 32.3776 7.16544L32.0387 7.16544C32.0109 7.16544 31.9879 7.14375 31.9879 7.1158V6.52158C31.9879 6.49269 32.0109 6.4673 32.0387 6.4673L36.6298 6.46729C36.7672 6.46729 36.8986 6.49571 36.9442 6.63581L40.9271 18.1881C40.9315 18.2081 40.9353 18.2326 40.9353 18.2536C40.9354 18.3766 40.8375 18.4751 40.7152 18.4751L40.7204 18.4767L37.8462 18.479C37.7087 18.479 37.5605 18.3645 37.5155 18.224L35.0537 10.7699C35.0366 10.7055 34.9967 10.6511 34.9274 10.6511C34.8577 10.6511 34.8175 10.6999 34.8018 10.7699L32.3411 18.224C32.295 18.3645 32.1467 18.479 32.0087 18.479H29.1437C29.0208 18.479 28.9204 18.3772 28.9204 18.2542C28.9204 18.2332 28.9218 18.2125 28.9284 18.192L32.6009 7.53283Z" fill="#6B6F6E"/>
    <path fill-rule="evenodd" clip-rule="evenodd" d="M26.4491 18.2273C26.4491 18.3667 26.3367 18.479 26.1981 18.479L23.2811 18.479C23.1427 18.479 23.0301 18.3667 23.0301 18.2273L23.0326 7.41157C23.0326 7.27216 22.9221 7.16016 22.7835 7.16016L22.3947 7.16318C22.3671 7.16318 22.3442 7.13971 22.3442 7.11245V6.51848C22.3442 6.49044 22.3671 6.46729 22.3947 6.46729L26.1981 6.46883C26.3366 6.46883 26.449 6.58183 26.449 6.7214L26.4491 18.2273Z" fill="#6B6F6E"/>
    <path fill-rule="evenodd" clip-rule="evenodd" d="M20.5663 18.479H17.2111C17.0716 18.479 16.8767 18.3642 16.7756 18.2242L13.4258 13.6494C13.3691 13.5719 13.331 13.5205 13.232 13.5205C13.1462 13.5204 13.094 13.5856 13.094 13.6738L13.096 18.2273C13.096 18.3667 12.9835 18.479 12.845 18.479L10.0184 18.479C9.88 18.479 9.7674 18.3667 9.7674 18.2273L9.76995 7.41157C9.76995 7.27216 9.65945 7.16016 9.52082 7.16016L9.13204 7.16318C9.10438 7.16318 9.08154 7.13971 9.08154 7.11245V6.51848C9.08154 6.49044 9.10437 6.46729 9.13204 6.46729L12.845 6.46883C12.9835 6.46883 13.0959 6.58183 13.0959 6.7214L13.096 10.541C13.096 10.6287 13.1482 10.6946 13.2342 10.6946C13.3314 10.6887 13.3831 10.6259 13.4275 10.5646L16.2049 6.72395C16.3072 6.58338 16.5021 6.47092 16.6412 6.47092H19.854C19.9755 6.47092 20.0698 6.57029 20.0698 6.6929C20.0698 6.73813 20.0591 6.78096 20.0363 6.81697L16.4831 11.951C16.444 12.0028 16.424 12.0462 16.424 12.1068C16.424 12.1675 16.4388 12.2022 16.4784 12.2539L20.7307 18.1089C20.8275 18.2422 20.7596 18.479 20.5663 18.479Z" fill="#6B6F6E"/>
  </g>
  <defs>
    <clipPath id="clip0_0_835">
      <rect width="49" height="25" fill="white"/>
    </clipPath>
  </defs>
</svg>
