<svg width="49" height="25" viewBox="0 0 49 25" fill="none" xmlns="http://www.w3.org/2000/svg">
<g clip-path="url(#clip0_1162_1699)">
<path fill-rule="evenodd" clip-rule="evenodd" d="M24.6032 22.1393C12.2293 22.1393 2.19918 17.851 2.19918 12.5612C2.19918 7.27179 12.2293 2.98318 24.6032 2.98318C36.9774 2.98318 47.008 7.27187 47.008 12.5612C47.008 17.8509 36.9774 22.1393 24.6032 22.1393V22.1393ZM24.5001 0C10.9685 0 0 5.5963 0 12.4997C0 19.4032 10.9685 25 24.5001 25C38.0315 25 49 19.4032 49 12.4997C49.0001 5.5963 38.0315 0 24.5001 0Z" fill="#6B6F6E"/>
<path fill-rule="evenodd" clip-rule="evenodd" d="M32.6004 7.53283C32.6631 7.35308 32.5352 7.16544 32.3772 7.16544L32.0382 7.16544C32.0105 7.16544 31.9874 7.14375 31.9874 7.1158V6.52158C31.9874 6.49269 32.0105 6.4673 32.0382 6.4673L36.6293 6.46729C36.7667 6.46729 36.8981 6.49571 36.9437 6.63581L40.9266 18.1881C40.931 18.2081 40.9348 18.2326 40.9348 18.2536C40.9349 18.3766 40.837 18.4751 40.7147 18.4751L40.7199 18.4767L37.8457 18.479C37.7083 18.479 37.56 18.3645 37.515 18.224L35.0532 10.7699C35.0361 10.7055 34.9962 10.6511 34.9269 10.6511C34.8572 10.6511 34.817 10.6999 34.8013 10.7699L32.3406 18.224C32.2945 18.3645 32.1463 18.479 32.0083 18.479H29.1432C29.0203 18.479 28.9199 18.3772 28.9199 18.2542C28.9199 18.2332 28.9213 18.2125 28.9279 18.192L32.6004 7.53283Z" fill="#6B6F6E"/>
<path fill-rule="evenodd" clip-rule="evenodd" d="M26.4496 18.2273C26.4496 18.3667 26.3371 18.479 26.1986 18.479L23.2816 18.479C23.1432 18.479 23.0306 18.3667 23.0306 18.2273L23.0331 7.41157C23.0331 7.27216 22.9226 7.16016 22.784 7.16016L22.3952 7.16318C22.3676 7.16318 22.3447 7.13971 22.3447 7.11245V6.51848C22.3447 6.49044 22.3676 6.46729 22.3952 6.46729L26.1986 6.46883C26.3371 6.46883 26.4495 6.58183 26.4495 6.7214L26.4496 18.2273Z" fill="#6B6F6E"/>
<path fill-rule="evenodd" clip-rule="evenodd" d="M20.5658 18.479H17.2106C17.0712 18.479 16.8763 18.3642 16.7751 18.2242L13.4253 13.6494C13.3686 13.5719 13.3305 13.5205 13.2315 13.5205C13.1457 13.5204 13.0935 13.5856 13.0935 13.6738L13.0955 18.2273C13.0955 18.3667 12.983 18.479 12.8445 18.479L10.0179 18.479C9.87951 18.479 9.76691 18.3667 9.76691 18.2273L9.76946 7.41157C9.76946 7.27216 9.65896 7.16016 9.52033 7.16016L9.13155 7.16318C9.10389 7.16318 9.08105 7.13971 9.08105 7.11245V6.51848C9.08105 6.49044 9.10389 6.46729 9.13155 6.46729L12.8445 6.46883C12.983 6.46883 13.0954 6.58183 13.0954 6.7214L13.0955 10.541C13.0955 10.6287 13.1477 10.6946 13.2337 10.6946C13.3309 10.6887 13.3827 10.6259 13.427 10.5646L16.2044 6.72395C16.3067 6.58338 16.5016 6.47092 16.6407 6.47092H19.8535C19.975 6.47092 20.0693 6.57029 20.0693 6.6929C20.0693 6.73813 20.0586 6.78096 20.0358 6.81697L16.4826 11.951C16.4435 12.0028 16.4235 12.0462 16.4235 12.1068C16.4235 12.1675 16.4383 12.2022 16.4779 12.2539L20.7302 18.1089C20.827 18.2422 20.7591 18.479 20.5658 18.479V18.479Z" fill="#6B6F6E"/>
</g>
<defs>
<clipPath id="clip0_1162_1699">
<rect width="49" height="25" fill="white"/>
</clipPath>
</defs>
</svg>
