<svg width="63" height="25" viewBox="0 0 63 25" fill="none" xmlns="http://www.w3.org/2000/svg">
<g clip-path="url(#clip0_1162_1704)">
<path fill-rule="evenodd" clip-rule="evenodd" d="M0 12.5036C0 5.59795 14.1001 0 31.4943 0C48.8881 0 62.9885 5.59795 62.9885 12.5036C62.9885 19.4092 48.8881 25.0071 31.4943 25.0071C14.1004 25.0071 0 19.4095 0 12.5036ZM38.5187 13.5984C38.5144 13.5778 38.5039 13.559 38.4887 13.5445C38.4735 13.5299 38.4542 13.5203 38.4333 13.5169C37.5269 13.3854 36.6165 13.2823 35.7036 13.2076C35.6498 13.1983 35.6118 13.1488 35.6473 13.0317C38.5581 9.99181 39.6637 6.12365 38.192 3.09724C38.1936 3.08345 38.198 3.07012 38.2048 3.058C38.2117 3.04589 38.2208 3.03523 38.2318 3.02663C38.2428 3.01804 38.2554 3.01168 38.2689 3.00792C38.2823 3.00415 38.2964 3.00306 38.3103 3.0047C48.3269 4.21056 55.6403 8.00719 55.6403 12.5036C55.6403 17.9705 44.8301 22.4025 31.4946 22.4025C18.1591 22.4025 7.34857 17.9709 7.34857 12.5036C7.34857 7.76445 15.4735 3.80268 26.325 2.83208C26.3777 2.83385 26.4221 2.87407 26.425 2.95665L24.069 15.8332C24.0249 16.0595 24.0318 16.2926 24.0892 16.5159C24.1465 16.7392 24.2529 16.9471 24.4007 17.1248C24.5485 17.3025 24.7341 17.4456 24.9441 17.5438C25.1541 17.642 25.3835 17.6929 25.6156 17.6929L25.6999 17.6972C27.8013 17.5886 30.0595 16.9376 32.1925 15.7154C32.7969 15.3691 33.3787 14.9851 33.9342 14.5658C33.9502 14.5528 33.9697 14.5448 33.9903 14.5428C34.0108 14.5408 34.0315 14.545 34.0497 14.5547C34.7601 15.0242 35.1689 15.5737 35.1689 16.1617C35.1689 16.9604 34.4144 17.689 33.1733 18.2417C31.7313 18.8838 29.6324 19.2874 27.2953 19.2874C25.3148 19.2874 23.5052 18.9974 22.1013 18.5133C22.0877 18.5109 22.0738 18.5112 22.0603 18.5142C22.0468 18.5171 22.034 18.5227 22.0227 18.5306C22.0114 18.5384 22.0018 18.5485 21.9944 18.56C21.9871 18.5716 21.9821 18.5845 21.9797 18.598L21.7796 19.6896C21.7762 19.7156 21.7828 19.7419 21.798 19.7633C21.8132 19.7848 21.8359 19.7997 21.8617 19.8053C24.7173 20.4648 28.0014 20.84 31.4968 20.84C35.8449 20.84 39.3707 19.4401 39.3707 17.7143C39.3707 17.0426 38.8378 16.4208 37.9313 15.9119C37.1369 15.5253 36.6367 15.0242 36.7593 14.6882C36.8866 14.3398 37.6465 14.2839 38.5491 14.5252C38.6004 14.532 38.6499 14.5014 38.6682 14.4102L38.5187 13.5984ZM31.4943 5.71718C31.4943 5.78481 31.4921 5.85208 31.4878 5.91792C31.6026 8.21256 30.1732 11.2824 27.5614 13.8746C27.043 14.39 26.4908 14.871 25.9086 15.3143C25.8856 15.3289 25.8578 15.3339 25.8312 15.3282C25.7766 15.3168 25.7411 15.2652 25.7508 15.2018L28.3106 1.2169C28.3092 1.19104 28.2982 1.16662 28.2797 1.14834C28.2612 1.13006 28.2366 1.11924 28.2105 1.11795C14.1029 1.77641 3.14928 6.62265 3.14928 12.5036C3.14928 18.8336 15.8397 23.965 31.4943 23.965C47.1492 23.965 59.8396 18.8336 59.8396 12.5036C59.8396 6.17348 47.1496 1.04214 31.4943 1.04214C30.9983 1.04214 30.5049 1.04748 30.01 1.0578C29.9865 1.0579 29.9638 1.06577 29.9453 1.08014C29.9269 1.09452 29.9138 1.11458 29.9082 1.13717L29.6087 2.76908C29.6015 2.81286 29.6223 2.8545 29.6589 2.87621C30.2067 3.12572 30.6709 3.52605 30.9962 4.02965C31.3216 4.53325 31.4944 5.11895 31.4943 5.71718Z" fill="#6B6F6E"/>
</g>
<defs>
<clipPath id="clip0_1162_1704">
<rect width="63" height="25" fill="white"/>
</clipPath>
</defs>
</svg>
