<svg width="48" height="25" viewBox="0 0 48 25" fill="none" xmlns="http://www.w3.org/2000/svg">
<g clip-path="url(#clip0_1162_1710)">
<path d="M1.50391 12.5199C1.50391 9.75393 3.70979 6.9951 7.85267 4.86831C11.943 2.76852 17.664 1.43994 24.0402 1.43994C30.4164 1.43994 36.1402 2.76851 40.2344 4.86848C44.3807 6.99511 46.5918 9.75396 46.5967 12.5199C46.5967 15.28 44.3897 18.0365 40.2434 20.1626C36.1503 22.2614 30.4265 23.5899 24.0503 23.5899C17.6738 23.5899 11.95 22.2638 7.85708 20.1662C3.71131 18.0417 1.50391 15.2852 1.50391 12.5199Z" stroke="#6B6F6E" stroke-width="2"/>
<path d="M37.3155 7.62012H33.6868L33.2432 8.93012H35.5918L32.9106 9.90012L32.7393 10.4301L36.8518 9.02012L37.3155 7.62012Z" fill="#6B6F6E"/>
<path d="M14.5756 9.81997L14.0816 11.22H10.5537C10.5537 11.22 10.6343 11.19 10.7553 10.95C10.8662 10.71 12.4991 5.98997 12.4991 5.98997C12.4991 5.98997 12.7209 5.49997 12.4689 5.36997H14.5151C14.5151 5.36997 14.3941 5.33997 14.2026 5.83997C14.0917 6.12997 12.7209 9.90997 12.7209 9.90997H14.1925C14.1925 9.91997 14.5252 9.95997 14.5756 9.81997Z" fill="#6B6F6E"/>
<path d="M20.3916 11.2101H22.0548C22.0548 11.2101 21.9439 11.0301 22.0145 10.8401C22.1152 10.5701 22.9922 8.08014 22.9922 8.08014L23.3752 11.2101H24.8872L26.8628 5.65014C26.8628 5.65014 26.9435 5.39014 27.0544 5.39014H25.4517C25.4517 5.39014 25.5021 5.58014 25.4416 5.73014C25.3811 5.88014 24.4739 8.40014 24.4739 8.40014L24.1211 5.39014H22.3975C22.3975 5.39014 22.4882 5.54014 22.4277 5.70014C22.3773 5.83014 20.6033 10.8901 20.6033 10.8901C20.6033 10.8901 20.4823 11.2101 20.3916 11.2101Z" fill="#6B6F6E"/>
<path d="M29.8863 5.38987H27.9913C27.9913 5.38987 28.1324 5.62987 27.951 6.16987C27.7695 6.71987 26.3181 10.7699 26.3181 10.7699C26.3181 10.7699 26.2072 11.1499 26.0459 11.2199H28.3239C28.3239 11.2199 31.0858 11.3299 31.9325 8.31987C31.9325 8.32987 33.0211 5.35987 29.8863 5.38987ZM30.0879 8.57987C29.6041 9.79988 28.8884 9.88988 28.5054 9.88988C28.2534 9.88988 28.2433 9.88988 28.2433 9.88988L29.3521 6.64987H29.7754C29.7754 6.64987 30.8741 6.57987 30.0879 8.57987Z" fill="#6B6F6E"/>
<path d="M8.01367 15.9296H11.6424L12.0859 14.6196H9.73732L12.4185 13.6496L12.5899 13.1196L8.46726 14.5296L8.01367 15.9296Z" fill="#6B6F6E"/>
<path d="M18.3346 14.6997C19.02 12.4397 16.7218 12.4997 16.7218 12.4997H14.3732C14.5446 12.6997 14.4136 13.1097 14.4136 13.1097C14.4136 13.1097 12.952 17.4397 12.8411 17.7797C12.7302 18.1097 12.5186 18.3497 12.5186 18.3497H14.3732C14.3128 18.3497 14.3128 18.1597 14.3128 18.1597L14.978 16.3297C14.978 16.3297 15.8046 18.0197 15.865 18.1397C15.9255 18.2597 15.8953 18.3597 15.8953 18.3597H17.881C17.6895 18.3597 17.498 17.9897 17.498 17.9897L16.5102 16.1497C17.8911 16.1197 18.3346 14.6997 18.3346 14.6997ZM16.7218 14.4997C16.4598 15.0797 15.7643 15.0097 15.7643 15.0097H15.4014L15.7844 13.8397C15.7844 13.8397 15.9961 13.8397 16.1775 13.8397C17.0242 13.8397 16.7218 14.4997 16.7218 14.4997Z" fill="#6B6F6E"/>
<path d="M38.858 14.7798C39.5837 12.4098 37.2654 12.5198 37.2654 12.5198H34.937C35.1083 12.7198 34.9773 13.1298 34.9773 13.1298C34.9773 13.1298 33.4552 17.4798 33.3444 17.8098C33.2335 18.1398 33.0117 18.3598 33.0117 18.3598H34.947C34.8059 18.3598 34.9067 17.9998 34.9067 17.9998L35.5014 16.3298C35.5014 16.3298 36.2977 18.0198 36.3582 18.1398C36.4187 18.2598 36.3884 18.3598 36.3884 18.3598H38.4447C38.2532 18.3598 38.0415 17.9898 38.0415 17.9898L37.0537 16.1498C38.4346 16.1498 38.858 14.7798 38.858 14.7798ZM37.2049 14.5298C36.9932 15.0898 36.2977 15.0398 36.2977 15.0398H35.9349L36.3179 13.8798H36.832C36.832 13.8798 37.4569 13.8598 37.2049 14.5298Z" fill="#6B6F6E"/>
<path d="M22.0244 12.3501C20.21 12.3501 19.0206 13.7801 18.7182 15.5501C18.436 17.1801 19.323 18.4901 20.7946 18.4901C22.8408 18.4901 24.0706 16.4001 24.0706 14.9001C24.0706 13.3301 23.4456 12.3501 22.0244 12.3501ZM22.2965 15.6001C22.0042 16.8201 21.4397 17.2001 20.9257 17.1001C20.2302 16.9701 20.3511 15.8501 20.462 15.3301C20.7039 14.2001 21.3188 13.6601 21.7724 13.7101C21.9236 13.7401 22.74 13.7501 22.2965 15.6001Z" fill="#6B6F6E"/>
<path d="M24.5547 12.52C24.5547 12.52 24.6958 12.6 24.6958 12.97V18.03C24.6958 18.03 24.6756 18.31 24.5748 18.37H26.107C26.107 18.37 26.107 18.25 26.2582 18.05C26.4094 17.85 29.5744 13.45 29.5744 13.45C29.5744 13.45 30.2901 12.53 30.4816 12.53H28.2943C28.2943 12.53 28.4657 12.65 28.3346 12.86C28.2036 13.08 26.2582 16.09 26.2582 16.09L26.2783 13.05C26.2783 13.05 26.2783 12.56 26.4598 12.52H24.5547Z" fill="#6B6F6E"/>
<path d="M33.7773 13.9L34.2712 12.52H30.5719C30.5719 12.52 30.7029 12.64 30.5316 13.13C30.3602 13.62 28.8583 17.81 28.8583 17.81C28.8583 17.81 28.5862 18.36 28.5156 18.36H32.3258L32.7794 16.96C32.7794 16.96 32.7189 17.04 32.3661 17.04H30.7533L31.0961 16.1H32.356C32.356 16.1 32.6181 16.08 32.6786 16.16L33.1927 14.67C33.1927 14.67 33.1523 14.81 32.8096 14.81H31.6L31.9629 13.77H33.4951C33.4951 13.76 33.6967 13.73 33.7773 13.9Z" fill="#6B6F6E"/>
<path d="M20.1993 11.2199C20.1993 11.2199 20.0683 11.1399 20.038 10.9099L19.8062 5.77988C19.8062 5.77988 19.7961 5.44988 19.9473 5.37988H18.143C18.143 5.37988 18.2741 5.53988 18.0321 5.90988C17.7902 6.27988 14.7058 11.0199 14.7058 11.0199C14.7058 11.0199 14.6453 11.1399 14.4941 11.2099H16.3186C16.3186 11.2099 16.3085 11.0599 16.3589 10.9699C16.4496 10.7999 16.6714 10.3899 16.6714 10.3899H18.5059V10.8999C18.5059 10.8999 18.516 11.0799 18.3849 11.2099C18.3749 11.2199 20.1993 11.2199 20.1993 11.2199ZM17.4475 9.07988L18.4555 7.36988L18.4656 9.07988H17.4475V9.07988Z" fill="#6B6F6E"/>
</g>
<defs>
<clipPath id="clip0_1162_1710">
<rect width="48" height="25" fill="white"/>
</clipPath>
</defs>
</svg>
