<svg xmlns="http://www.w3.org/2000/svg" width="33" height="25" viewBox="0 0 33 25" fill="none">
  <g clip-path="url(#clip0_0_846)">
    <path d="M7.85267 4.86831C3.70979 6.9951 1.50391 9.75393 1.50391 12.5199C1.50391 15.2852 3.71131 18.0417 7.85708 20.1662C11.95 22.2638 17.6738 23.5899 24.0503 23.5899C30.4265 23.5899 36.1503 22.2614 40.2434 20.1626C44.3889 18.0369 46.5959 15.281 46.5967 12.5215L7.85267 4.86831ZM7.85267 4.86831C11.943 2.76852 17.664 1.43994 24.0402 1.43994M7.85267 4.86831L24.0402 1.43994M24.0402 1.43994C30.4164 1.43994 36.1402 2.76851 40.2344 4.86848M24.0402 1.43994L40.2344 4.86848M40.2344 4.86848C44.3814 6.99547 46.5925 9.75489 46.5967 12.5213L40.2344 4.86848Z" stroke="#6B6F6E" stroke-width="2"/>
    <path d="M37.3155 7.62012H33.6868L33.2432 8.93012H35.5918L32.9106 9.90012L32.7393 10.4301L36.8518 9.02012L37.3155 7.62012Z" fill="#6B6F6E"/>
    <path d="M14.5751 9.81997L14.0812 11.22H10.5532C10.5532 11.22 10.6339 11.19 10.7548 10.95C10.8657 10.71 12.4986 5.98997 12.4986 5.98997C12.4986 5.98997 12.7204 5.49997 12.4684 5.36997H14.5146C14.5146 5.36997 14.3936 5.33997 14.2021 5.83997C14.0912 6.12997 12.7204 9.90997 12.7204 9.90997H14.192C14.192 9.91997 14.5247 9.95997 14.5751 9.81997Z" fill="#6B6F6E"/>
    <path d="M20.3911 11.2101H22.0543C22.0543 11.2101 21.9434 11.0301 22.014 10.8401C22.1148 10.5701 22.9917 8.08014 22.9917 8.08014L23.3747 11.2101H24.8867L26.8624 5.65014C26.8624 5.65014 26.943 5.39014 27.0539 5.39014H25.4512C25.4512 5.39014 25.5016 5.58014 25.4411 5.73014C25.3806 5.88014 24.4734 8.40014 24.4734 8.40014L24.1206 5.39014H22.397C22.397 5.39014 22.4877 5.54014 22.4272 5.70014C22.3768 5.83014 20.6028 10.8901 20.6028 10.8901C20.6028 10.8901 20.4818 11.2101 20.3911 11.2101Z" fill="#6B6F6E"/>
    <path d="M29.8868 5.38987H27.9918C27.9918 5.38987 28.1329 5.62987 27.9515 6.16987C27.77 6.71987 26.3185 10.7699 26.3185 10.7699C26.3185 10.7699 26.2077 11.1499 26.0464 11.2199H28.3244C28.3244 11.2199 31.0863 11.3299 31.933 8.31987C31.933 8.32987 33.0216 5.35987 29.8868 5.38987ZM30.0884 8.57987C29.6046 9.79988 28.8889 9.88987 28.5059 9.88987C28.2539 9.88987 28.2438 9.88987 28.2438 9.88987L29.3526 6.64987H29.7759C29.7759 6.64987 30.8746 6.57987 30.0884 8.57987Z" fill="#6B6F6E"/>
    <path d="M8.01318 15.9296H11.6419L12.0854 14.6196H9.73683L12.4181 13.6496L12.5894 13.1196L8.46677 14.5296L8.01318 15.9296Z" fill="#6B6F6E"/>
    <path d="M18.3351 14.6997C19.0205 12.4397 16.7223 12.4997 16.7223 12.4997H14.3737C14.5451 12.6997 14.414 13.1097 14.414 13.1097C14.414 13.1097 12.9525 17.4397 12.8416 17.7797C12.7307 18.1097 12.519 18.3497 12.519 18.3497H14.3737C14.3132 18.3497 14.3132 18.1597 14.3132 18.1597L14.9785 16.3297C14.9785 16.3297 15.8051 18.0197 15.8655 18.1397C15.926 18.2597 15.8958 18.3597 15.8958 18.3597H17.8815C17.69 18.3597 17.4985 17.9897 17.4985 17.9897L16.5106 16.1497C17.8916 16.1197 18.3351 14.6997 18.3351 14.6997ZM16.7223 14.4997C16.4602 15.0797 15.7647 15.0097 15.7647 15.0097H15.4019L15.7849 13.8397C15.7849 13.8397 15.9966 13.8397 16.178 13.8397C17.0247 13.8397 16.7223 14.4997 16.7223 14.4997Z" fill="#6B6F6E"/>
    <path d="M22.0244 12.3501C20.21 12.3501 19.0206 13.7801 18.7182 15.5501C18.436 17.1801 19.323 18.4901 20.7946 18.4901C22.8408 18.4901 24.0706 16.4001 24.0706 14.9001C24.0706 13.3301 23.4456 12.3501 22.0244 12.3501ZM22.2965 15.6001C22.0042 16.8201 21.4397 17.2001 20.9257 17.1001C20.2302 16.9701 20.3511 15.8501 20.462 15.3301C20.7039 14.2001 21.3188 13.6601 21.7724 13.7101C21.9236 13.7401 22.74 13.7501 22.2965 15.6001Z" fill="#6B6F6E"/>
    <path d="M24.5542 12.52C24.5542 12.52 24.6953 12.6 24.6953 12.97V18.03C24.6953 18.03 24.6752 18.31 24.5744 18.37H26.1065C26.1065 18.37 26.1065 18.25 26.2577 18.05C26.4089 17.85 29.5739 13.45 29.5739 13.45C29.5739 13.45 30.2896 12.53 30.4811 12.53H28.2938C28.2938 12.53 28.4652 12.65 28.3341 12.86C28.2031 13.08 26.2577 16.09 26.2577 16.09L26.2778 13.05C26.2778 13.05 26.2778 12.56 26.4593 12.52H24.5542Z" fill="#6B6F6E"/>
    <path d="M33.7773 13.9L34.2712 12.52H30.5719C30.5719 12.52 30.7029 12.64 30.5316 13.13C30.3602 13.62 28.8583 17.81 28.8583 17.81C28.8583 17.81 28.5862 18.36 28.5156 18.36H32.3258L32.7794 16.96C32.7794 16.96 32.7189 17.04 32.3661 17.04H30.7533L31.0961 16.1H32.356C32.356 16.1 32.6181 16.08 32.6786 16.16L33.1927 14.67C33.1927 14.67 33.1523 14.81 32.8096 14.81H31.6L31.9629 13.77H33.4951C33.4951 13.76 33.6967 13.73 33.7773 13.9Z" fill="#6B6F6E"/>
    <path d="M20.1998 11.2199C20.1998 11.2199 20.0688 11.1399 20.0385 10.9099L19.8067 5.77988C19.8067 5.77988 19.7966 5.44988 19.9478 5.37988H18.1435C18.1435 5.37988 18.2746 5.53988 18.0326 5.90988C17.7907 6.27988 14.7063 11.0199 14.7063 11.0199C14.7063 11.0199 14.6458 11.1399 14.4946 11.2099H16.3191C16.3191 11.2099 16.309 11.0599 16.3594 10.9699C16.4501 10.7999 16.6719 10.3899 16.6719 10.3899H18.5064V10.8999C18.5064 10.8999 18.5165 11.0799 18.3854 11.2099C18.3753 11.2199 20.1998 11.2199 20.1998 11.2199ZM17.448 9.07988L18.456 7.36988L18.4661 9.07988H17.448Z" fill="#6B6F6E"/>
  </g>
  <defs>
    <clipPath id="clip0_0_846">
      <rect width="33" height="25" fill="white"/>
    </clipPath>
  </defs>
</svg>
