<svg width="158" height="48" viewBox="0 0 158 48" fill="none" xmlns="http://www.w3.org/2000/svg">
<path fill-rule="evenodd" clip-rule="evenodd" d="M94.942 17.0043L94.7212 16.4675L94.626 17.0402C94.4448 18.1268 93.3032 18.6586 93.2915 18.6635L92.8289 18.8744L93.3279 18.9765C93.3737 18.9857 94.4671 19.2003 94.9501 18.6165C95.2389 18.2653 95.2364 17.7229 94.942 17.0043ZM91.7132 18.7235C90.6972 17.9332 90.3824 17.0612 90.3787 17.0526L90.1864 16.5046L90.0608 17.0711C90.0522 17.1132 89.8419 18.102 90.3601 18.6679C90.6403 18.974 91.0688 19.0915 91.6335 19.0173L92.0274 18.966L91.7132 18.7235ZM0.0828684 19.6957C0.583172 19.7371 0.997515 19.7582 1.32652 19.7582C1.6784 19.7582 2.03028 19.7371 2.38216 19.6957C2.27703 20.9468 2.22446 22.9412 2.22446 25.6758L2.23993 27.9634L2.25044 28.332L2.59119 28.3406C3.37782 28.3406 4.2467 28.2961 5.19598 28.2089L5.56456 28.1798C5.50272 28.4247 5.4718 28.6449 5.4718 28.8391C5.4718 29.0011 5.50272 29.1724 5.56456 29.3536C4.2164 29.2837 3.17683 29.2497 2.44524 29.2497C1.58873 29.2497 0.773646 29.2701 0 29.3115C0.104513 28.0141 0.15708 26.4334 0.15708 24.5695C0.156461 22.3864 0.131724 20.7618 0.0828684 19.6957ZM6.72472 19.6957C7.31717 19.7786 7.93992 19.82 8.59297 19.82C10.0562 19.82 11.2652 19.7786 12.2194 19.6957C12.1657 19.8908 12.137 20.092 12.1341 20.2943C12.1341 20.5077 12.1625 20.7142 12.2194 20.9134L11.2887 20.8503C10.3394 20.786 9.63996 20.7538 9.19037 20.7538L8.95413 20.7464L8.94733 20.9406L8.88425 23.5293V23.8008H9.19655C9.59977 23.8008 10.0259 23.7884 10.4748 23.7655L11.7741 23.7024C11.9411 23.6938 12.0586 23.6895 12.1285 23.6895C12.0623 23.8923 12.0295 24.0859 12.0295 24.2658C12.0295 24.452 12.0623 24.6486 12.1285 24.8564C10.9009 24.7661 9.90527 24.721 9.1409 24.721L8.88363 24.7321L8.87436 24.9956L8.86508 25.9894L8.88301 27.9776V28.2967L9.272 28.2979C10.1563 28.2979 11.1081 28.2423 12.1273 28.1303C12.1025 28.3623 12.0902 28.5614 12.0902 28.7284C12.0902 28.9374 12.1025 29.1316 12.1273 29.3115L11.7865 29.3054L10.7655 29.2701L9.57812 29.2497C8.55463 29.2497 7.58866 29.2701 6.68081 29.3115L6.7006 28.9009C6.76492 27.3536 6.79708 25.52 6.79708 23.4013C6.79893 22.0488 6.77358 20.8126 6.72472 19.6957ZM19.3282 26.421C19.7407 25.6746 20.2923 24.5911 20.9849 23.1694C21.6769 21.7489 22.2199 20.5905 22.6138 19.6957C22.8965 19.7786 23.1141 19.82 23.2669 19.82C23.3869 19.82 23.5699 19.7928 23.8154 19.7371L23.8711 20.1966L24.163 22.8688L24.552 26.1495C24.7097 27.4841 24.8624 28.5193 25.0108 29.2559V29.3536C24.6068 29.2855 24.1979 29.2507 23.7882 29.2497C23.4314 29.2497 23.0727 29.2701 22.7116 29.3115C22.7116 28.8718 22.6454 27.8997 22.5137 26.3957C22.3819 24.8929 22.2576 23.713 22.142 22.8552L21.4122 24.3419C21.1067 24.9541 20.7196 25.7296 20.2527 26.6709C19.7338 27.7135 19.3245 28.5935 19.0227 29.3115C18.8338 29.2837 18.6419 29.2837 18.4531 29.3115L18.2311 28.8527L17.3065 26.9065L16.3406 24.9473L15.5904 23.3976L15.4098 23.029L15.3542 23.4106C15.2604 24.0878 15.1794 24.7667 15.1111 25.447L14.9442 27.1502C14.8378 28.2299 14.784 28.9498 14.784 29.3109C14.5361 29.2697 14.2852 29.249 14.0339 29.2491C13.8483 29.2491 13.6628 29.2695 13.4779 29.3109V29.2553C13.8527 27.4581 14.2886 24.6715 14.784 20.8979L14.9367 19.7365C15.1081 19.7915 15.2682 19.8194 15.4166 19.8194C15.6343 19.8194 15.8514 19.7779 16.0697 19.6951C16.4908 20.627 17.2645 22.2294 18.39 24.5008C18.6508 25.0203 18.9079 25.5416 19.1612 26.0648L19.3282 26.421ZM26.7325 19.6957C27.7975 19.7786 28.803 19.82 29.7473 19.82C30.5952 19.82 31.4196 19.7928 32.2204 19.7371C32.1821 19.9783 32.1623 20.1713 32.1623 20.3147C32.1623 20.5194 32.1814 20.7161 32.2204 20.9072C31.0256 20.7891 30.0596 20.7297 29.3237 20.7297L28.9762 20.726L28.9613 20.9758C28.9031 21.8003 28.874 22.6267 28.8741 23.4532L28.8785 23.7383L29.858 23.7494C30.4183 23.7494 31.1474 23.7204 32.046 23.6622C32.0148 23.8576 31.9981 24.055 31.9959 24.2528C31.9959 24.4507 32.0126 24.6455 32.046 24.836C30.9922 24.7479 29.9353 24.7015 28.8778 24.6969L28.8735 25.3505C28.8735 26.9108 28.9075 28.2312 28.9755 29.3109C28.5877 29.2728 28.1983 29.2522 27.8086 29.2491C27.4882 29.2491 27.1017 29.2695 26.6484 29.3109L26.6831 28.7611C26.7653 27.4315 26.8061 25.9857 26.8061 24.4223V22.7674L26.7591 20.2578C26.752 20.0704 26.7431 19.883 26.7325 19.6957ZM40.6501 21.4155C41.1807 22.1341 41.4467 23.1248 41.4467 24.3858C41.4467 25.6987 41.1603 26.7507 40.5877 27.5441C40.015 28.3363 39.2562 28.7327 38.31 28.7327C37.3824 28.7327 36.6601 28.379 36.1431 27.6684C35.6261 26.9597 35.3676 25.9714 35.3676 24.7055C35.3676 23.324 35.6384 22.2498 36.1808 21.4854C36.7231 20.7198 37.4813 20.3376 38.4553 20.3376C39.3879 20.3376 40.1195 20.6969 40.6501 21.4155ZM34.5259 20.9375C33.529 21.8762 33.0305 23.1044 33.0305 24.6227C33.0305 26.1458 33.4999 27.3462 34.4399 28.2231C35.3793 29.1013 36.6656 29.5397 38.2989 29.5397C39.9191 29.5397 41.2376 29.0635 42.2562 28.1118C43.2741 27.1613 43.7831 25.9306 43.7831 24.4204C43.7831 22.8973 43.31 21.7019 42.3638 20.833C41.417 19.9647 40.1127 19.5306 38.4516 19.5306C36.8314 19.5312 35.5228 20 34.5259 20.9375ZM36.0206 17.1026C35.9294 17.1913 35.8573 17.2978 35.8089 17.4154C35.7605 17.5331 35.7368 17.6594 35.7392 17.7866C35.7392 18.0507 35.8326 18.2764 36.0206 18.4638C36.1081 18.5545 36.2133 18.6262 36.3297 18.6746C36.4461 18.723 36.5712 18.747 36.6972 18.7452C36.9656 18.7452 37.1938 18.6518 37.3811 18.4638C37.5685 18.2764 37.6619 18.0507 37.6619 17.7866C37.6619 17.5176 37.5685 17.29 37.3811 17.1026C37.2924 17.0115 37.1859 16.9395 37.0683 16.8912C36.9506 16.8428 36.8243 16.819 36.6972 16.8213C36.5712 16.8194 36.4461 16.8434 36.3297 16.8918C36.2133 16.9402 36.1081 17.012 36.0206 17.1026ZM39.4318 17.1026C39.3407 17.1914 39.2687 17.2979 39.2203 17.4155C39.1719 17.5331 39.1482 17.6594 39.1504 17.7866C39.1504 18.0507 39.2444 18.2764 39.4318 18.4638C39.6192 18.6512 39.8449 18.7452 40.109 18.7452C40.3774 18.7452 40.6056 18.6518 40.793 18.4638C40.9804 18.2758 41.0744 18.0507 41.0744 17.7866C41.0769 17.6594 41.0532 17.533 41.0048 17.4154C40.9564 17.2977 40.8843 17.1913 40.793 17.1026C40.7042 17.0115 40.5978 16.9395 40.4801 16.8912C40.3625 16.8428 40.2362 16.819 40.109 16.8213C39.8449 16.8213 39.6198 16.9153 39.4318 17.1026ZM47.4014 23.9183L47.4497 20.5095L47.8875 20.4817C49.0452 20.4817 49.6234 21.076 49.6234 22.2646C49.6234 23.6406 48.966 24.3277 47.6513 24.3277C47.5999 24.3277 47.5146 24.324 47.3946 24.3153L47.4014 23.9183ZM45.3192 20.384L45.3841 23.1589L45.3773 25.5157C45.3773 26.9071 45.3272 28.1718 45.2271 29.3122C45.6117 29.2713 45.9772 29.2503 46.3241 29.2503C46.7181 29.2503 47.1071 29.2843 47.4911 29.3542C47.4385 28.6331 47.4126 28.1235 47.4126 27.8273L47.3909 26.3982L47.3693 25.3376C47.3693 25.0413 47.4014 24.8979 47.4664 24.9078C47.5035 24.9115 47.5591 24.9813 47.6333 25.1155C47.6661 25.1761 47.7447 25.3147 47.8696 25.5311C47.9809 25.7173 48.18 26.0685 48.4682 26.5855C48.728 27.058 48.9852 27.5132 49.2406 27.9516C49.5981 28.5676 49.8578 29.0351 50.0205 29.3542C50.3928 29.3278 50.7659 29.3137 51.1392 29.3122L52.5566 29.3542C52.2041 28.7939 51.9963 28.4606 51.9308 28.353L50.6809 26.4074C50.293 25.8131 49.9178 25.2106 49.5554 24.6004C51.0625 24.1984 51.8164 23.3722 51.8164 22.1205C51.8164 21.3246 51.5616 20.721 51.0514 20.3116C50.5418 19.9016 49.7867 19.6969 48.7861 19.6969L47.8968 19.7217L46.5486 19.7594C46.326 19.7594 45.9042 19.7384 45.284 19.6969C45.3068 20.141 45.3192 20.3704 45.3192 20.384ZM55.9258 28.0747L55.8874 24.7649C55.8874 23.0265 55.9165 21.6295 55.9746 20.5726L56.2115 20.5559C56.522 20.5361 56.8329 20.5251 57.1441 20.5231C58.2529 20.5231 59.0667 20.7816 59.5862 21.2999C60.2906 22.0018 60.6431 23.0197 60.6431 24.3543C60.6431 25.8558 60.2374 26.9764 59.4254 27.716C58.8552 28.2281 58.0389 28.4841 56.9771 28.4841C56.6339 28.4841 56.2863 28.4779 55.9332 28.4637L55.9258 28.0747ZM53.8398 23.888C53.8398 26.0945 53.8015 27.9028 53.7236 29.3115C54.1404 29.2707 54.5219 29.2497 54.8701 29.2497L55.6623 29.2627L56.6481 29.2979L57.705 29.3109C58.9189 29.3109 59.9226 29.0425 60.7136 28.5051C62.1823 27.5113 62.9176 26.0945 62.9176 24.2572C62.9176 23.3549 62.7197 22.5398 62.3233 21.8126C61.9269 21.0865 61.3871 20.5516 60.7074 20.2096C60.0309 19.867 59.0197 19.6957 57.6771 19.6957L56.6481 19.7093L55.9332 19.7371L54.8281 19.7582C54.5046 19.7582 54.1361 19.7371 53.7242 19.6957C53.8009 21.0494 53.8398 22.4471 53.8398 23.888ZM64.4087 19.6957C65.0278 19.7803 65.652 19.8219 66.2769 19.82C67.7407 19.82 68.9485 19.7786 69.9027 19.6957C69.8488 19.8908 69.82 20.0919 69.8168 20.2943C69.8168 20.5077 69.8458 20.7142 69.9027 20.9134L68.9726 20.8503C68.0233 20.786 67.3239 20.7538 66.8743 20.7538L66.6375 20.7464L66.6313 20.9406L66.5682 23.5293V23.8008H66.8811C67.2831 23.8008 67.7098 23.7884 68.1588 23.7655L69.4575 23.7024C69.6244 23.6938 69.7426 23.6895 69.8124 23.6895C69.7463 23.8923 69.7135 24.0859 69.7135 24.2658C69.7135 24.452 69.7463 24.6486 69.8124 24.8564C68.5855 24.7661 67.5886 24.721 66.8242 24.721L66.5682 24.7321L66.5583 24.9956L66.5496 25.9894L66.5676 27.9776V28.2967L66.9566 28.2979C67.8409 28.2979 68.7927 28.2423 69.8118 28.1303C69.7886 28.3289 69.776 28.5285 69.7741 28.7284C69.7741 28.9374 69.7865 29.1316 69.8118 29.3115L69.4711 29.3054L68.4494 29.2701L67.2621 29.2497C66.2392 29.2497 65.2726 29.2701 64.3654 29.3115L64.3845 28.9009C64.4489 27.3536 64.481 25.52 64.481 23.4013C64.4835 22.0488 64.4581 20.8126 64.4087 19.6957ZM73.523 23.9183L73.5724 20.5095L74.0097 20.4817C75.1667 20.4817 75.7456 21.076 75.7456 22.2646C75.7456 23.6406 75.0888 24.3277 73.7734 24.3277C73.7227 24.3277 73.6368 24.324 73.5174 24.3153L73.523 23.9183ZM71.442 20.384L71.5069 23.1589L71.4995 25.5157C71.4995 26.9071 71.4488 28.1718 71.3486 29.3122C71.7339 29.2713 72.0987 29.2503 72.4463 29.2503C72.8402 29.2503 73.2292 29.2843 73.6133 29.3542C73.5601 28.6331 73.5347 28.1235 73.5347 27.8273L73.5131 26.3982L73.4914 25.3376C73.4914 25.0413 73.5242 24.8979 73.5891 24.9078C73.6256 24.9115 73.6807 24.9813 73.7561 25.1155C73.7889 25.1761 73.8674 25.3147 73.993 25.5311C74.1043 25.7173 74.3034 26.0685 74.591 26.5855C74.8507 27.058 75.108 27.5132 75.3628 27.9516C75.6343 28.4128 75.8945 28.8804 76.1432 29.3542C76.5551 29.3264 76.9286 29.3122 77.2619 29.3122L78.6788 29.3542C78.3263 28.7939 78.1185 28.4606 78.0529 28.353L76.8031 26.4074C76.4152 25.8131 76.0399 25.2106 75.6775 24.6004C77.1853 24.1984 77.9385 23.3722 77.9385 22.1205C77.9385 21.3246 77.6837 20.721 77.1741 20.3116C76.6646 19.9022 75.9095 19.6969 74.9082 19.6969L74.0189 19.7217L72.6708 19.7594C72.4475 19.7594 72.0258 19.7384 71.4049 19.6969C71.4284 20.141 71.442 20.3704 71.442 20.384Z" fill="#295BA7"/>
<path fill-rule="evenodd" clip-rule="evenodd" d="M92.4466 10L81.1313 29.0956H90.903V30.2453H91.9222V28.1185L91.8993 27.9516C91.8585 27.7679 91.7534 27.4747 91.4936 27.4747C91.1387 27.4747 91.0626 28.1136 91.0626 28.1198L90.7342 28.087C90.7558 27.8674 90.8418 27.5533 91.0323 27.3492H83.1956L89.8208 16.0123C90.1782 16.1088 90.8956 16.3487 91.4596 16.8391C92.0817 17.3796 92.4027 18.528 92.4052 18.5398L92.7268 18.5305C92.7305 18.5188 92.989 17.337 93.6686 16.8138C94.1312 16.4569 94.8498 16.3574 95.2604 16.3295L101.895 27.3498H93.937C94.1281 27.5539 94.2147 27.8681 94.2363 28.0876L93.9079 28.1204C93.9067 28.1142 93.8307 27.4754 93.4769 27.4754C93.1665 27.502 93.0483 28.2101 93.0483 28.2101V30.2465H94.1207V29.0969H104L92.4466 10ZM92.4862 15.7495C91.5511 15.7495 90.7868 15.2164 90.4497 14.9362L92.4064 11.5875L94.519 15.0977C94.1071 15.3574 93.3427 15.7495 92.4862 15.7495Z" fill="#295BA7"/>
<path fill-rule="evenodd" clip-rule="evenodd" d="M91.9772 27.352C92.2369 27.6055 92.2827 28.0731 92.2876 28.0984L92.2888 28.1021H92.6172C92.6617 27.9426 92.7848 27.5561 92.9926 27.352H91.9772ZM96.4681 21.9006C96.3556 20.6372 95.9647 19.8004 95.3049 19.4152C94.5752 18.9897 93.817 19.2976 93.7854 19.3113L93.5523 19.4083L93.5888 19.6532C93.5912 19.6668 93.7916 21.0676 93.7168 22.571C93.6203 24.5165 93.2375 26.7261 93.2325 26.7478L93.1806 27.0483H93.7774C94.1441 26.8146 96.7458 25.0292 96.4681 21.9006ZM91.8529 27.049L91.7997 26.7484C91.796 26.7268 91.4119 24.5079 91.3154 22.5561C91.2748 21.5783 91.318 20.5989 91.4447 19.6285L91.4799 19.383L91.2468 19.2853C91.2153 19.2717 90.4571 18.9631 89.7286 19.3898C89.0681 19.7763 88.6766 20.6161 88.5641 21.8839C88.2864 25.023 90.8894 26.8146 91.2555 27.0502H91.8529V27.049ZM93.0711 18.328C93.4237 18.2146 93.7333 17.9963 93.9584 17.7022C94.1835 17.4081 94.3135 17.0523 94.3309 16.6823C93.9784 16.7959 93.669 17.0143 93.4439 17.3083C93.2188 17.6024 93.0888 17.9581 93.0711 18.328ZM92.0433 18.3521C92.0295 17.9634 91.8915 17.5894 91.6495 17.2848C91.4076 16.9803 91.0744 16.7614 90.6989 16.6601C90.7125 17.0488 90.8504 17.423 91.0924 17.7275C91.3344 18.0321 91.6677 18.251 92.0433 18.3521ZM92.5158 14.7764C92.0885 14.7758 91.6747 14.9263 91.3476 15.2012C91.6705 15.4618 92.073 15.6037 92.488 15.6032C92.9326 15.6032 93.3395 15.443 93.6549 15.1783C93.3326 14.9176 92.9304 14.7757 92.5158 14.7764Z" fill="#295BA7"/>
</svg>
