<svg width="297" height="45" viewBox="0 0 297 45" fill="none" xmlns="http://www.w3.org/2000/svg">
<g clip-path="url(#clip0_0_1690)">
<path d="M22.6607 17.6518H19.6923L17.623 13.7871H5.02906L2.96439 17.6518H0L9.25079 0.295328H13.3559L22.6607 17.6518ZM16.4534 11.497L11.67 2.36338L10.9994 2.35492L6.1995 11.497H16.4534ZM43.8562 12.5927C43.8562 15.9655 41.9871 17.6518 38.248 17.6518H24.1223V0.295328H37.6448C39.356 0.295328 40.6922 0.689353 41.6538 1.47275C42.7069 2.31404 43.2319 3.56552 43.2319 5.2233C43.2319 6.96675 42.5574 8.08712 41.2087 8.57527C42.0825 8.84207 42.7492 9.35946 43.1983 10.1267C43.6355 10.8246 43.8562 11.645 43.8562 12.5927ZM40.6093 5.22339C40.6093 3.51237 39.618 2.65871 37.6361 2.65871H26.7448V7.6076H37.6361C38.6149 7.6076 39.327 7.44719 39.776 7.12335C40.3299 6.75395 40.6093 6.11783 40.6093 5.22339ZM41.2164 12.6012C41.2164 11.7268 40.9464 11.042 40.3965 10.5455C39.8512 10.0489 39.1266 9.7983 38.2229 9.7983H26.7448V15.3131H38.2229C40.2219 15.3131 41.2164 14.4103 41.2164 12.6012ZM67.7867 12.8804C67.7867 14.9808 66.9918 16.3718 65.4012 17.0528C64.14 17.5987 61.5003 17.8738 57.4742 17.8738C53.1695 17.8738 50.4055 17.4058 49.1896 16.4743C48.2155 15.7357 47.7281 14.189 47.7281 11.8339H50.3592C50.3592 13.4463 50.734 14.4718 51.4835 14.9153C52.1916 15.3293 54.1937 15.5345 57.4914 15.5345C60.8219 15.5345 62.8703 15.3956 63.6362 15.1118C64.6565 14.7424 65.1642 13.9961 65.1642 12.8719C65.1642 11.7191 64.8097 10.9757 64.1064 10.6519C63.5196 10.3727 61.509 10.2293 58.0744 10.2293C53.977 10.2293 51.2505 9.74898 49.9015 8.78891C48.836 8.01779 48.3025 6.7008 48.3025 4.83782C48.3025 2.81066 48.9354 1.4851 50.1975 0.865924C51.3961 0.286864 54.0272 0 58.0821 0C62.0794 0 64.673 0.45954 65.8591 1.37871C66.8213 2.13358 67.3041 3.59015 67.3041 5.75233H64.7356C64.7356 4.30422 64.3521 3.36423 63.5863 2.93788C62.8782 2.53995 61.0466 2.33875 58.0908 2.33875C55.6264 2.33875 54.1023 2.38422 53.5155 2.46987C51.7872 2.70814 50.9259 3.5 50.9259 4.84562C50.9259 5.99916 51.4 6.80728 52.345 7.26681C53.2159 7.69325 55.4385 7.91529 59.0194 7.93145C62.5997 7.94762 64.8599 8.17353 65.805 8.6208C67.1249 9.24075 67.7867 10.6603 67.7867 12.8804ZM103.479 17.6518H100.51L98.4408 13.7871H85.8471L83.7823 17.6518H80.818L90.0686 0.295328H94.174L103.479 17.6518ZM97.2715 11.497L92.4883 2.36338L91.8176 2.35492L87.0175 11.497H97.2715ZM125.049 12.6174C125.049 14.5543 124.574 15.9407 123.629 16.7697C122.88 17.4513 121.676 17.8322 120.024 17.9223C120.323 17.9223 118.713 17.9223 115.182 17.9223C111.605 17.9223 109.994 17.9223 110.34 17.9223C108.699 17.8322 107.501 17.4552 106.734 16.7905C105.789 15.9615 105.315 14.5705 105.315 12.6174V0.295328H107.963V12.6134C107.963 13.7662 108.384 14.5828 109.225 15.0548C109.853 15.4242 110.807 15.6168 112.08 15.633C108.075 15.6007 109.108 15.5837 115.182 15.5837C121.256 15.5837 122.302 15.6007 118.309 15.633C119.57 15.6168 120.523 15.424 121.164 15.0548C122.005 14.5828 122.426 13.7662 122.426 12.6134V0.295328H125.049V12.6174ZM146.227 2.65871H138.367V17.6518H135.72V2.65871H127.826V0.295328H146.227V2.65871ZM170.199 8.99401C170.199 11.8093 170.067 13.6514 169.797 14.525C169.302 16.1505 167.798 17.1883 165.291 17.6317C164.301 17.8083 162.32 17.8986 159.345 17.8986C156.415 17.8986 154.433 17.8083 153.401 17.6317C150.879 17.1722 149.367 16.1458 148.871 14.5458C148.601 13.6884 148.468 11.8378 148.468 8.99401C148.468 6.18335 148.601 4.33275 148.871 3.44676C149.367 1.81742 150.869 0.783394 153.376 0.336212C154.413 0.143474 156.402 0.0493483 159.345 0.0493483C162.289 0.0493483 164.27 0.13958 165.291 0.31615C167.798 0.775692 169.302 1.80972 169.797 3.42214C170.067 4.29575 170.199 6.15492 170.199 8.99401ZM167.578 8.99401C167.578 5.78933 167.232 3.90174 166.545 3.3396C165.796 2.70426 163.393 2.38811 159.345 2.38811C156.452 2.38811 154.713 2.44135 154.131 2.54385C152.915 2.72042 152.11 3.24557 151.711 4.11529C151.315 4.98968 151.116 6.61437 151.116 8.99401C151.116 11.3327 151.324 12.9335 151.737 13.8072C152.148 14.6815 152.959 15.2105 154.175 15.4032C154.774 15.5059 156.499 15.559 159.345 15.559C162.224 15.559 163.951 15.5143 164.517 15.428C165.733 15.2352 166.545 14.7062 166.957 13.8402C167.37 12.9743 167.578 11.3621 167.578 8.99401ZM78.9612 10.0689H70.1103V7.73025H78.9612V10.0689Z" fill="white"/>
<path d="M11.5573 37.7595C11.5573 38.7758 11.3108 39.5647 10.8188 40.1306C10.2993 40.7305 9.52942 41.032 8.50997 41.032H1.58123V44.8088H0V34.4476H8.57489C10.5629 34.4476 11.5573 35.5518 11.5573 37.7595ZM9.97608 37.7595C9.97608 36.4926 9.47929 35.8581 8.48798 35.8581H1.58115V39.6356H8.50051C9.48474 39.6356 9.97608 39.0111 9.97608 37.7595ZM27.8019 39.6402C27.8019 41.3204 27.722 42.4206 27.5608 42.9419C27.2651 43.912 26.3677 44.5319 24.8717 44.7964C24.2802 44.9021 23.0972 44.9561 21.3229 44.9561C19.5727 44.9561 18.3897 44.9021 17.7733 44.7964C16.2672 44.5219 15.3652 43.9098 15.0693 42.9543C14.9082 42.4423 14.8284 41.3381 14.8284 39.6402C14.8284 37.9623 14.9082 36.8581 15.0693 36.3284C15.3651 35.3561 16.2625 34.7391 17.7585 34.4716C18.3773 34.3566 19.5658 34.3004 21.3229 34.3004C23.0794 34.3004 24.2631 34.3544 24.8717 34.46C26.3677 34.7338 27.265 35.3514 27.5608 36.3138C27.722 36.8358 27.8019 37.9454 27.8019 39.6402ZM26.2362 39.6402C26.2362 37.7271 26.0298 36.6006 25.6198 36.2651C25.1722 35.885 23.7381 35.6968 21.3231 35.6968C19.5956 35.6968 18.5565 35.7283 18.2085 35.7901C17.4831 35.8949 17.0028 36.2088 16.7649 36.7278C16.5287 37.2498 16.4089 38.2198 16.4089 39.6401C16.4089 41.0366 16.5333 41.9919 16.7798 42.5132C17.0255 43.0352 17.5104 43.3513 18.2358 43.4662C18.5942 43.5278 19.623 43.5594 21.3231 43.5594C23.0405 43.5594 24.0716 43.5324 24.4095 43.4808C25.1356 43.3659 25.62 43.0498 25.8655 42.5331C26.112 42.0165 26.2364 41.0534 26.2364 39.6399L26.2362 39.6402ZM49.4893 34.4476L43.7209 44.8088H41.8674L40.0805 41.5633L38.2755 44.8088H36.4063L30.7052 34.4476H32.3161L37.2193 43.4177L37.4532 43.4123L39.2745 40.1005L36.163 34.4476H37.7763L40.068 38.6431L42.3469 34.4476H44.0315L40.88 40.1206L42.6771 43.4177L42.9009 43.4123L47.8071 34.4476H49.4893ZM61.7748 44.8088H51.7042V34.4476H61.7748V35.8581H53.2846V38.8568H61.4666V40.2524H53.2846V43.4123H61.7748V44.8088ZM78.3597 44.8088H76.7785V42.2666C76.7785 41.8864 76.5876 41.5826 76.202 41.3528C75.8694 41.1593 75.4986 41.0614 75.0862 41.0614H67.6976V44.8089H66.1162V34.4478H75.5611C76.5032 34.4478 77.2158 34.7786 77.7009 35.4417C78.1407 36.0246 78.3597 36.7965 78.3597 37.7596C78.3597 38.6163 78.2204 39.2586 77.9395 39.6818C77.7432 39.9734 77.4271 40.2109 76.9952 40.3975C77.9044 40.7769 78.3597 41.3991 78.3597 42.2636V44.8089L78.3597 44.8088ZM76.7785 37.7618C76.7785 37.0833 76.6369 36.5959 76.356 36.3014C76.0728 36.0052 75.601 35.8579 74.9369 35.8579H67.6976V39.6648H74.9369C75.601 39.6648 76.0807 39.5059 76.3764 39.1898C76.6448 38.8983 76.7785 38.4226 76.7785 37.7618ZM112.031 39.6402C112.031 41.3204 111.952 42.4206 111.791 42.9419C111.495 43.912 110.597 44.5319 109.102 44.7964C108.51 44.9021 107.328 44.9561 105.553 44.9561C103.803 44.9561 102.619 44.9021 102.003 44.7964C100.497 44.5219 99.5949 43.9098 99.2997 42.9543C99.1382 42.4423 99.058 41.3381 99.058 39.6402C99.058 37.9623 99.1382 36.8581 99.2997 36.3284C99.5949 35.3561 100.492 34.7391 101.989 34.4716C102.607 34.3566 103.796 34.3004 105.553 34.3004C107.309 34.3004 108.493 34.3544 109.102 34.46C110.597 34.7338 111.495 35.3514 111.791 36.3138C111.952 36.8358 112.031 37.9454 112.031 39.6402ZM110.466 39.6402C110.466 37.7271 110.259 36.6006 109.85 36.2651C109.402 35.885 107.968 35.6968 105.553 35.6968C103.825 35.6968 102.786 35.7283 102.438 35.7901C101.713 35.8949 101.232 36.2088 100.995 36.7278C100.759 37.2498 100.638 38.2198 100.638 39.6401C100.638 41.0366 100.763 41.9919 101.009 42.5132C101.256 43.0352 101.741 43.3513 102.466 43.4662C102.824 43.5278 103.853 43.5594 105.553 43.5594C107.271 43.5594 108.302 43.5324 108.64 43.4808C109.366 43.3659 109.85 43.0498 110.095 42.5331C110.342 42.0165 110.466 41.0534 110.466 39.6399V39.6402ZM125.008 35.8579H116.815V39.0626H124.712V40.473H116.815V44.8088H115.233V34.4476H125.008V35.8581V35.8579ZM158.44 39.6278C158.44 41.8886 158.089 43.3783 157.39 44.0933C156.927 44.5713 156.045 44.8088 154.744 44.8088H145.914V34.4476H154.744C156.358 34.4476 157.39 34.8881 157.848 35.7723C158.244 36.5489 158.44 37.835 158.44 39.6278ZM156.859 39.6278C156.859 38.3864 156.782 37.5436 156.63 37.1025C156.345 36.2721 155.712 35.8579 154.727 35.8579H147.495V43.4123H154.727C155.719 43.4123 156.358 42.9936 156.646 42.1561C156.787 41.7221 156.859 40.8824 156.859 39.6278ZM175.202 44.8088H173.621V42.2666C173.621 41.8864 173.43 41.5826 173.044 41.3528C172.712 41.1593 172.341 41.0614 171.928 41.0614H164.54V44.8089H162.958V34.4478H172.404C173.345 34.4478 174.057 34.7786 174.542 35.4417C174.983 36.0246 175.202 36.7965 175.202 37.7596C175.202 38.6163 175.062 39.2586 174.781 39.6818C174.584 39.9734 174.269 40.2109 173.837 40.3975C174.747 40.7769 175.202 41.3991 175.202 42.2636V44.8089V44.8088ZM173.621 37.7618C173.621 37.0833 173.478 36.5959 173.198 36.3014C172.916 36.0052 172.443 35.8579 171.779 35.8579H164.54V39.6648H171.779C172.443 39.6648 172.923 39.5059 173.218 39.1898C173.487 38.8983 173.621 38.4226 173.621 37.7618ZM181.306 44.8088H179.725V34.4476H181.306V44.8088ZM198.385 34.4476L192.629 44.8088H190.761L185.059 34.4476H186.669L191.573 43.4177L191.806 43.4123L196.701 34.4476H198.385ZM202.653 44.8088H201.073V34.4476H202.653V44.8088ZM219.916 44.8088H217.548L208.598 35.7971V44.8088H207.033V34.433H209.31L218.335 43.5226V34.433H219.916V44.8088ZM236.392 40.914C236.392 42.2936 236.135 43.2928 235.627 43.912C235.177 44.451 234.456 44.7864 233.459 44.919C232.994 44.973 231.895 45 230.167 45C228.337 45 227.064 44.9068 226.346 44.7209C225.435 44.4734 224.802 43.9737 224.458 43.2242C224.112 42.4716 223.941 41.2401 223.941 39.5252C223.941 37.872 224.124 36.6837 224.492 35.9636C224.859 35.2434 225.504 34.7731 226.428 34.5524C227.12 34.3836 228.364 34.3003 230.167 34.3003C232.022 34.3003 233.044 34.3103 233.23 34.3273C234.271 34.4151 235.03 34.6851 235.504 35.1354C236.097 35.6822 236.392 36.5781 236.392 37.8249H234.833C234.833 36.8009 234.573 36.1817 234.054 35.9612C233.633 35.7847 232.339 35.6966 230.171 35.6966C228.559 35.6966 227.555 35.7361 227.162 35.8162C226.488 35.9388 226.045 36.2673 225.829 36.7962C225.623 37.2912 225.52 38.2389 225.52 39.6423C225.52 41.0466 225.621 41.9966 225.816 42.4916C226.031 43.0306 226.48 43.3613 227.162 43.4833C227.555 43.5643 228.558 43.6034 230.171 43.6034C232.07 43.6034 232.883 43.6112 232.613 43.6282C233.378 43.5842 233.919 43.3907 234.242 43.0451C234.634 42.6411 234.831 41.9279 234.831 40.9116L229.764 40.9139V39.5174H236.392V40.9139V40.914Z" fill="white"/>
<path d="M255.254 32.6539L256.558 31.2969C256.887 30.9552 257.506 30.7725 258.104 30.7725H296.002C296.597 30.7725 296.746 31.2159 296.419 31.5566L295.057 32.9747C294.812 33.2292 294.391 33.277 293.996 33.277H255.477C255.128 33.277 255.007 32.91 255.254 32.6539ZM248.379 40.9301L286.244 40.927C286.848 40.927 286.987 41.3704 286.661 41.7112L283.831 44.6552C283.586 44.9112 283.168 44.9506 282.766 44.9506H244.251C243.877 44.9506 243.781 44.5912 244.027 44.3354L246.799 41.4522C247.126 41.1105 247.772 40.927 248.379 40.9302V40.9301ZM253.345 35.7229H291.246C291.852 35.7229 291.989 36.1663 291.661 36.5072L289.726 38.5219C289.481 38.7772 289.058 38.815 288.664 38.815H250.161C249.804 38.815 249.676 38.4579 249.922 38.202L251.802 36.2457C252.129 35.9064 252.751 35.7229 253.345 35.7229Z" fill="white"/>
</g>
<defs>
<clipPath >
<rect width="297" height="45" fill="white"/>
</clipPath>
</defs>
</svg>
