<svg width="200" height="30" viewBox="0 0 200 30" fill="none" xmlns="http://www.w3.org/2000/svg">
  <g id="Logo_ABS_Auto_Service 2" clip-path="url(#clip0_3_1479)">
    <path id="Vector" d="M15.2444 11.7679H13.2476L11.8555 9.1914H3.38318L1.99423 11.7679H0L6.22326 0.196885H8.98488L15.2444 11.7679ZM11.0686 7.66464L7.8507 1.57559L7.39962 1.56995L4.17057 7.66464H11.0686ZM29.5033 8.39514C29.5033 10.6436 28.2458 11.7679 25.7305 11.7679H16.2277V0.196885H25.3247C26.4758 0.196885 27.3748 0.459569 28.0216 0.981834C28.7301 1.5427 29.0833 2.37701 29.0833 3.4822C29.0833 4.6445 28.6295 5.39141 27.7222 5.71685C28.31 5.89471 28.7585 6.23964 29.0607 6.75114C29.3548 7.21638 29.5033 7.76334 29.5033 8.39514ZM27.319 3.48226C27.319 2.34158 26.6521 1.77247 25.3189 1.77247H17.992V5.07173H25.3189C25.9773 5.07173 26.4563 4.9648 26.7584 4.7489C27.131 4.50263 27.319 4.07855 27.319 3.48226ZM27.7274 8.40078C27.7274 7.81788 27.5458 7.36134 27.1758 7.03032C26.809 6.69924 26.3215 6.5322 25.7136 6.5322H17.992V10.2087H25.7136C27.0584 10.2087 27.7274 9.60684 27.7274 8.40078ZM45.602 8.5869C45.602 9.98718 45.0672 10.9145 43.9972 11.3685C43.1488 11.7325 41.3729 11.9159 38.6645 11.9159C35.7686 11.9159 33.9092 11.6039 33.0912 10.9829C32.4359 10.4905 32.108 9.4593 32.108 7.88928H33.878C33.878 8.96418 34.1302 9.64788 34.6343 9.9435C35.1107 10.2195 36.4576 10.3563 38.676 10.3563C40.9166 10.3563 42.2945 10.2637 42.8098 10.0745C43.4962 9.8283 43.8377 9.33072 43.8377 8.58126C43.8377 7.81272 43.5992 7.31712 43.1261 7.10124C42.7314 6.91512 41.3788 6.81954 39.0682 6.81954C36.3118 6.81954 34.4776 6.49932 33.5701 5.85927C32.8533 5.3452 32.4944 4.4672 32.4944 3.22522C32.4944 1.87377 32.9202 0.990066 33.7692 0.577283C34.5755 0.191243 36.3456 0 39.0734 0C41.7625 0 43.5073 0.30636 44.3052 0.91914C44.9525 1.42238 45.2773 2.39344 45.2773 3.83489H43.5494C43.5494 2.86948 43.2914 2.24282 42.7762 1.95859C42.2999 1.6933 41.0677 1.55917 39.0793 1.55917C37.4214 1.55917 36.3961 1.58948 36.0013 1.64658C34.8386 1.80543 34.2592 2.33333 34.2592 3.23041C34.2592 3.99944 34.5782 4.53818 35.2139 4.84454C35.7998 5.12884 37.295 5.27686 39.704 5.28763C42.1125 5.29841 43.633 5.44902 44.2688 5.7472C45.1568 6.1605 45.602 7.10688 45.602 8.5869ZM69.6132 11.7679H67.6158L66.2238 9.1914H57.7517L56.3626 11.7679H54.3685L60.5916 0.196885H63.3534L69.6132 11.7679ZM65.4372 7.66464L62.2194 1.57559L61.7682 1.56995L58.5391 7.66464H65.4372ZM84.1236 8.41158C84.1236 9.70284 83.8044 10.6271 83.1684 11.1798C82.665 11.6342 81.855 11.8882 80.7432 11.9482C80.9448 11.9482 79.8612 11.9482 77.4858 11.9482C75.0798 11.9482 73.9962 11.9482 74.229 11.9482C73.125 11.8882 72.3186 11.6368 71.8032 11.1937C71.1672 10.641 70.848 9.71364 70.848 8.41158V0.196885H72.6294V8.40894C72.6294 9.17748 72.9126 9.72186 73.4784 10.0365C73.9008 10.2828 74.5428 10.4112 75.3996 10.422C72.705 10.4005 73.3998 10.3891 77.4858 10.3891C81.5724 10.3891 82.2756 10.4005 79.5894 10.422C80.4378 10.4112 81.0792 10.2827 81.5106 10.0365C82.0764 9.72186 82.3596 9.17748 82.3596 8.40894V0.196885H84.1236V8.41158ZM98.3712 1.77247H93.0834V11.7679H91.3026V1.77247H85.992V0.196885H98.3712V1.77247ZM114.497 5.996C114.497 7.87284 114.409 9.10092 114.227 9.68334C113.894 10.767 112.882 11.4589 111.196 11.7545C110.53 11.8722 109.197 11.9324 107.196 11.9324C105.224 11.9324 103.891 11.8722 103.197 11.7545C101.5 11.4481 100.483 10.7639 100.15 9.6972C99.9678 9.12558 99.8784 7.89186 99.8784 5.996C99.8784 4.12223 99.9678 2.8885 100.15 2.29784C100.483 1.21162 101.494 0.522263 103.18 0.224141C103.878 0.0956496 105.216 0.0328988 107.196 0.0328988C109.176 0.0328988 110.509 0.0930534 111.196 0.210767C112.882 0.517128 113.894 1.20648 114.227 2.28143C114.409 2.86384 114.497 4.10328 114.497 5.996ZM112.734 5.996C112.734 3.85955 112.501 2.60116 112.039 2.2264C111.535 1.80284 109.919 1.59207 107.196 1.59207C105.25 1.59207 104.08 1.62757 103.688 1.6959C102.87 1.81361 102.329 2.16371 102.06 2.74353C101.794 3.32645 101.66 4.40958 101.66 5.996C101.66 7.55514 101.8 8.6223 102.077 9.20478C102.354 9.78768 102.9 10.1404 103.718 10.2688C104.121 10.3373 105.281 10.3727 107.196 10.3727C109.132 10.3727 110.294 10.3429 110.675 10.2853C111.493 10.1568 112.039 9.80412 112.316 9.2268C112.594 8.64954 112.734 7.5747 112.734 5.996ZM53.1194 6.71262H47.1651V5.1535H53.1194V6.71262Z" fill="#18243C"/>
    <path id="Vector_2" d="M7.77492 25.1729C7.77492 25.8504 7.60908 26.3763 7.27812 26.7536C6.92862 27.1535 6.4107 27.3545 5.72489 27.3545H1.06373V29.8724H0V22.9649H5.76856C7.10598 22.9649 7.77492 23.7011 7.77492 25.1729ZM6.71118 25.1729C6.71118 24.3282 6.37698 23.9052 5.7101 23.9052H1.06368V26.4236H5.71853C6.38064 26.4236 6.71118 26.0072 6.71118 25.1729ZM18.7031 26.4266C18.7031 27.5468 18.6493 28.2803 18.5409 28.6278C18.342 29.2745 17.7383 29.6877 16.7319 29.8641C16.334 29.9346 15.5381 29.9706 14.3445 29.9706C13.1671 29.9706 12.3713 29.9346 11.9566 29.8641C10.9434 29.6811 10.3366 29.273 10.1375 28.6361C10.0291 28.2947 9.97548 27.5586 9.97548 26.4266C9.97548 25.308 10.0291 24.5719 10.1375 24.2187C10.3365 23.5706 10.9402 23.1593 11.9467 22.9809C12.3629 22.9043 13.1624 22.8668 14.3445 22.8668C15.5261 22.8668 16.3225 22.9028 16.7319 22.9732C17.7383 23.1557 18.3419 23.5674 18.5409 24.209C18.6493 24.557 18.7031 25.2968 18.7031 26.4266ZM17.6498 26.4266C17.6498 25.1513 17.5109 24.4002 17.2351 24.1766C16.934 23.9232 15.9693 23.7977 14.3446 23.7977C13.1825 23.7977 12.4835 23.8187 12.2494 23.8599C11.7614 23.9298 11.4382 24.1391 11.2782 24.485C11.1193 24.833 11.0387 25.4797 11.0387 26.4266C11.0387 27.3576 11.1224 27.9944 11.2882 28.3419C11.4535 28.6899 11.7797 28.9007 12.2677 28.9773C12.5088 29.0184 13.2009 29.0394 14.3446 29.0394C15.5 29.0394 16.1936 29.0214 16.4209 28.9871C16.9094 28.9104 17.2352 28.6997 17.4004 28.3553C17.5663 28.0109 17.65 27.3687 17.65 26.4264L17.6498 26.4266ZM33.2928 22.9649L29.4122 29.8724H28.1653L26.9632 27.7087L25.7489 29.8724H24.4915L20.6562 22.9649H21.7399L25.0384 28.9449L25.1958 28.9414L26.4211 26.7335L24.3278 22.9649H25.4132L26.9548 25.7619L28.4879 22.9649H29.6212L27.5011 26.7469L28.7101 28.9449L28.8606 28.9414L32.1611 22.9649H33.2928ZM41.5576 29.8724H34.7828V22.9649H41.5576V23.9052H35.846V25.9044H41.3503V26.8347H35.846V28.9414H41.5576V29.8724ZM52.7147 29.8724H51.651V28.1775C51.651 27.9241 51.5226 27.7216 51.2632 27.5684C51.0394 27.4394 50.7899 27.3741 50.5126 27.3741H45.542V29.8724H44.4782V22.965H50.832C51.4658 22.965 51.9452 23.1855 52.2715 23.6276C52.5674 24.0162 52.7147 24.5309 52.7147 25.1729C52.7147 25.7441 52.621 26.1722 52.432 26.4544C52.3 26.6487 52.0873 26.8071 51.7968 26.9315C52.4084 27.1844 52.7147 27.5993 52.7147 28.1756V29.8724L52.7147 29.8724ZM51.651 25.1744C51.651 24.722 51.5557 24.3971 51.3668 24.2007C51.1763 24.0033 50.8589 23.9051 50.4121 23.9051H45.542V26.4431H50.4121C50.8589 26.4431 51.1816 26.3371 51.3805 26.1264C51.5611 25.932 51.651 25.6149 51.651 25.1744ZM75.3666 26.4266C75.3666 27.5468 75.3132 28.2803 75.2046 28.6278C75.006 29.2745 74.4018 29.6877 73.3956 29.8641C72.9978 29.9346 72.2022 29.9706 71.0082 29.9706C69.831 29.9706 69.0348 29.9346 68.6202 29.8641C67.6074 29.6811 67.0002 29.273 66.8016 28.6361C66.693 28.2947 66.639 27.5586 66.639 26.4266C66.639 25.308 66.693 24.5719 66.8016 24.2187C67.0002 23.5706 67.6038 23.1593 68.6106 22.9809C69.0264 22.9043 69.8262 22.8668 71.0082 22.8668C72.1896 22.8668 72.9864 22.9028 73.3956 22.9732C74.4018 23.1557 75.0054 23.5674 75.2046 24.209C75.3132 24.557 75.3666 25.2968 75.3666 26.4266ZM74.3136 26.4266C74.3136 25.1513 74.1744 24.4002 73.899 24.1766C73.5978 23.9232 72.633 23.7977 71.0082 23.7977C69.846 23.7977 69.147 23.8187 68.913 23.8599C68.4252 23.9298 68.1018 24.1391 67.9422 24.485C67.7832 24.833 67.7022 25.4797 67.7022 26.4266C67.7022 27.3576 67.7862 27.9944 67.9518 28.3419C68.1174 28.6899 68.4438 28.9007 68.9316 28.9773C69.1728 29.0184 69.8646 29.0394 71.0082 29.0394C72.1638 29.0394 72.8574 29.0214 73.0848 28.9871C73.5732 28.9104 73.899 28.6997 74.064 28.3553C74.2302 28.0109 74.3136 27.3687 74.3136 26.4264V26.4266ZM84.0966 23.9051H78.5844V26.0416H83.8974V26.9819H78.5844V29.8724H77.5206V22.9649H84.0966V23.9052V23.9051ZM106.587 26.4184C106.587 27.9256 106.351 28.9187 105.881 29.3954C105.569 29.714 104.975 29.8724 104.101 29.8724H98.16V22.9649H104.101C105.186 22.9649 105.881 23.2586 106.189 23.8481C106.455 24.3657 106.587 25.2232 106.587 26.4184ZM105.523 26.4184C105.523 25.5908 105.472 25.0289 105.37 24.7349C105.178 24.1812 104.752 23.9051 104.089 23.9051H99.2238V28.9414H104.089C104.756 28.9414 105.186 28.6622 105.38 28.1039C105.475 27.8145 105.523 27.2547 105.523 26.4184ZM117.863 29.8724H116.8V28.1775C116.8 27.9241 116.671 27.7216 116.411 27.5684C116.188 27.4394 115.939 27.3741 115.661 27.3741H110.69V29.8724H109.627V22.965H115.981C116.614 22.965 117.093 23.1855 117.419 23.6276C117.716 24.0162 117.863 24.5309 117.863 25.1729C117.863 25.7441 117.769 26.1722 117.58 26.4544C117.448 26.6487 117.236 26.8071 116.945 26.9315C117.557 27.1844 117.863 27.5993 117.863 28.1756V29.8724V29.8724ZM116.8 25.1744C116.8 24.722 116.704 24.3971 116.515 24.2007C116.325 24.0033 116.007 23.9051 115.561 23.9051H110.69V26.4431H115.561C116.007 26.4431 116.33 26.3371 116.528 26.1264C116.71 25.932 116.8 25.6149 116.8 25.1744ZM121.969 29.8724H120.906V22.9649H121.969V29.8724ZM133.459 22.9649L129.587 29.8724H128.33L124.494 22.9649H125.578L128.876 28.9449L129.033 28.9414L132.326 22.9649H133.459ZM136.33 29.8724H135.268V22.9649H136.33V29.8724ZM147.944 29.8724H146.35L140.33 23.8646V29.8724H139.277V22.9552H140.809L146.88 29.0149V22.9552H147.944V29.8724ZM159.028 27.2759C159.028 28.1955 158.855 28.8617 158.513 29.2745C158.21 29.6339 157.725 29.8574 157.054 29.9459C156.742 29.9819 156.002 29.9999 154.84 29.9999C153.608 29.9999 152.752 29.9377 152.269 29.8137C151.656 29.6487 151.231 29.3156 150.999 28.8159C150.766 28.3142 150.651 27.4932 150.651 26.3499C150.651 25.2479 150.775 24.4556 151.022 23.9756C151.269 23.4954 151.703 23.1819 152.324 23.0348C152.79 22.9223 153.626 22.8667 154.84 22.8667C156.088 22.8667 156.775 22.8734 156.9 22.8847C157.601 22.9433 158.111 23.1233 158.43 23.4234C158.829 23.7879 159.028 24.3852 159.028 25.2164H157.979C157.979 24.5337 157.804 24.1209 157.454 23.9739C157.171 23.8563 156.301 23.7976 154.842 23.7976C153.758 23.7976 153.082 23.8239 152.818 23.8773C152.365 23.9591 152.066 24.1781 151.921 24.5306C151.783 24.8606 151.714 25.4924 151.714 26.4281C151.714 27.3642 151.781 27.9975 151.913 28.3275C152.057 28.6869 152.359 28.9074 152.818 28.9887C153.082 29.0427 153.757 29.0688 154.842 29.0688C156.12 29.0688 156.667 29.0739 156.485 29.0853C157 29.0559 157.364 28.9269 157.581 28.6966C157.845 28.4273 157.977 27.9518 157.977 27.2742L154.568 27.2757V26.3448H159.028V27.2757V27.2759Z" fill="#00A19C"/>
    <path id="Vector_3" d="M171.716 21.7694L172.594 20.8648C172.815 20.6369 173.231 20.5151 173.633 20.5151H199.129C199.529 20.5151 199.629 20.8108 199.409 21.0379L198.493 21.9833C198.328 22.153 198.045 22.1848 197.779 22.1848H171.866C171.632 22.1848 171.55 21.9401 171.716 21.7694ZM167.092 27.2869L192.564 27.2848C192.97 27.2848 193.064 27.5804 192.845 27.8076L190.941 29.7703C190.776 29.941 190.495 29.9672 190.225 29.9672H164.314C164.063 29.9672 163.998 29.7277 164.164 29.5571L166.028 27.635C166.249 27.4072 166.683 27.2848 167.092 27.287V27.2869ZM170.432 23.8154H195.929C196.337 23.8154 196.429 24.111 196.208 24.3383L194.906 25.6814C194.742 25.8516 194.457 25.8768 194.192 25.8768H168.29C168.05 25.8768 167.964 25.6388 168.13 25.4681L169.394 24.164C169.614 23.9378 170.033 23.8154 170.432 23.8154Z" fill="#00A19C"/>
  </g>
  <defs>
    <clipPath id="clip0_3_1479">
      <rect width="199.8" height="30" fill="white"/>
    </clipPath>
  </defs>
</svg>
