<svg width="267" height="40" viewBox="0 0 267 40" fill="none" xmlns="http://www.w3.org/2000/svg">
<g clip-path="url(#clip0_1213_820)">
<path d="M20.3259 15.6905H17.6634L15.8073 12.2552H4.51091L2.65897 15.6905H0L8.29768 0.262514H11.9798L20.3259 15.6905ZM14.7582 10.2195L10.4676 2.10078L9.86616 2.09326L5.56076 10.2195H14.7582ZM39.3377 11.1935C39.3377 14.1915 37.6611 15.6905 34.3073 15.6905H21.637V0.262514H33.7662C35.3011 0.262514 36.4997 0.612758 37.3622 1.30911C38.3068 2.05693 38.7777 3.16935 38.7777 4.64294C38.7777 6.19266 38.1727 7.18855 36.963 7.62246C37.7467 7.85962 38.3447 8.31952 38.7476 9.00152C39.1398 9.62184 39.3377 10.3511 39.3377 11.1935ZM36.4253 4.64302C36.4253 3.1221 35.5362 2.3633 33.7585 2.3633H23.9893V6.76231H33.7585C34.6364 6.76231 35.2751 6.61973 35.6778 6.33186C36.1747 6.00351 36.4253 5.43807 36.4253 4.64302ZM36.9698 11.201C36.9698 10.4238 36.7277 9.81512 36.2344 9.37376C35.7453 8.93232 35.0954 8.7096 34.2848 8.7096H23.9893V13.6116H34.2848C36.0778 13.6116 36.9698 12.8091 36.9698 11.201ZM60.8026 11.4492C60.8026 13.3162 60.0896 14.5527 58.6629 15.158C57.5317 15.6433 55.1639 15.8878 51.5526 15.8878C47.6914 15.8878 45.2122 15.4718 44.1216 14.6438C43.2478 13.9873 42.8106 12.6124 42.8106 10.519H45.1707C45.1707 11.9522 45.5069 12.8638 46.1791 13.258C46.8142 13.626 48.6101 13.8084 51.568 13.8084C54.5554 13.8084 56.3927 13.685 57.0798 13.4327C57.9949 13.1044 58.4503 12.441 58.4503 11.4417C58.4503 10.417 58.1323 9.75616 57.5015 9.46832C56.9752 9.22016 55.1717 9.09272 52.091 9.09272C48.4158 9.09272 45.9702 8.66576 44.7602 7.81236C43.8044 7.12693 43.3259 5.95626 43.3259 4.30029C43.3259 2.49836 43.8936 1.32009 45.0256 0.76971C46.1007 0.25499 48.4608 0 52.0979 0C55.6834 0 58.0097 0.40848 59.0736 1.22552C59.9367 1.89651 60.3698 3.19125 60.3698 5.11318H58.0658C58.0658 3.82598 57.7218 2.99042 57.035 2.61145C56.3998 2.25774 54.757 2.07889 52.1057 2.07889C49.8952 2.07889 48.5281 2.1193 48.0018 2.19544C46.4515 2.40724 45.679 3.11111 45.679 4.30722C45.679 5.33258 46.1042 6.05091 46.9519 6.45938C47.733 6.83845 49.7266 7.03582 52.9386 7.05018C56.15 7.06455 58.1774 7.26536 59.0251 7.66294C60.209 8.214 60.8026 9.47584 60.8026 11.4492ZM92.8176 15.6905H90.1544L88.2984 12.2552H77.0023L75.1502 15.6905H72.4913L80.7888 0.262514H84.4712L92.8176 15.6905ZM87.2496 10.2195L82.9592 2.10078L82.3576 2.09326L78.0521 10.2195H87.2496ZM112.165 11.2154C112.165 12.9371 111.739 14.1695 110.891 14.9064C110.22 15.5122 109.14 15.8509 107.658 15.931C107.926 15.931 106.482 15.931 103.314 15.931C100.106 15.931 98.6616 15.931 98.972 15.931C97.5 15.8509 96.4248 15.5158 95.7376 14.9249C94.8896 14.188 94.464 12.9515 94.464 11.2154V0.262514H96.8392V11.2119C96.8392 12.2366 97.2168 12.9625 97.9712 13.382C98.5344 13.7104 99.3904 13.8816 100.533 13.896C96.94 13.8673 97.8664 13.8522 103.314 13.8522C108.763 13.8522 109.701 13.8673 106.119 13.896C107.25 13.8816 108.106 13.7102 108.681 13.382C109.435 12.9625 109.813 12.2366 109.813 11.2119V0.262514H112.165V11.2154ZM131.162 2.3633H124.111V15.6905H121.737V2.3633H114.656V0.262514H131.162V2.3633ZM152.663 7.99467C152.663 10.4971 152.545 12.1346 152.302 12.9111C151.858 14.356 150.51 15.2785 148.261 15.6726C147.373 15.8296 145.596 15.9098 142.928 15.9098C140.299 15.9098 138.522 15.8296 137.596 15.6726C135.334 15.2642 133.978 14.3518 133.533 12.9296C133.29 12.1674 133.171 10.5225 133.171 7.99467C133.171 5.49631 133.29 3.85134 133.533 3.06378C133.978 1.61549 135.325 0.69635 137.574 0.298855C138.504 0.127533 140.288 0.0438651 142.928 0.0438651C145.568 0.0438651 147.346 0.124071 148.261 0.281022C150.51 0.689504 151.858 1.60864 152.302 3.0419C152.545 3.81845 152.663 5.47104 152.663 7.99467ZM150.312 7.99467C150.312 5.14607 150.002 3.46822 149.386 2.96854C148.714 2.40378 146.558 2.12276 142.928 2.12276C140.333 2.12276 138.773 2.17009 138.25 2.2612C137.16 2.41815 136.438 2.88495 136.08 3.65804C135.725 4.43527 135.546 5.87944 135.546 7.99467C135.546 10.0735 135.733 11.4964 136.103 12.273C136.472 13.0502 137.2 13.5205 138.29 13.6918C138.828 13.783 140.375 13.8302 142.928 13.8302C145.51 13.8302 147.059 13.7905 147.567 13.7138C148.658 13.5424 149.386 13.0722 149.755 12.3024C150.126 11.5327 150.312 10.0996 150.312 7.99467ZM70.8259 8.95016H62.8868V6.87134H70.8259V8.95016Z" fill="#18243C"/>
<path d="M10.3666 33.5639C10.3666 34.4673 10.1454 35.1685 9.70416 35.6715C9.23816 36.2048 8.5476 36.4728 7.63318 36.4728H1.41831V39.8299H0V30.62H7.69142C9.47464 30.62 10.3666 31.6015 10.3666 33.5639ZM8.94824 33.5639C8.94824 32.4377 8.50264 31.8737 7.61346 31.8737H1.41824V35.2315H7.6247C8.50752 35.2315 8.94824 34.6764 8.94824 33.5639ZM24.9374 35.2356C24.9374 36.7291 24.8658 37.7071 24.7212 38.1705C24.456 39.0328 23.651 39.5837 22.3092 39.8189C21.7786 39.9129 20.7175 39.9609 19.126 39.9609C17.5562 39.9609 16.495 39.9129 15.9421 39.8189C14.5912 39.5749 13.7822 39.0308 13.5167 38.1815C13.3722 37.7264 13.3006 36.7449 13.3006 35.2356C13.3006 33.7441 13.3722 32.7626 13.5167 32.2917C13.782 31.4275 14.587 30.8791 15.9289 30.6413C16.4839 30.5391 17.5499 30.4891 19.126 30.4891C20.7015 30.4891 21.7633 30.5371 22.3092 30.631C23.651 30.8744 24.4559 31.4233 24.7212 32.2788C24.8658 32.7428 24.9374 33.7291 24.9374 35.2356ZM23.5331 35.2356C23.5331 33.5351 23.3479 32.5337 22.9802 32.2355C22.5787 31.8977 21.2924 31.7304 19.1262 31.7304C17.5766 31.7304 16.6446 31.7584 16.3325 31.8133C15.6818 31.9065 15.251 32.1855 15.0376 32.6468C14.8258 33.1108 14.7183 33.973 14.7183 35.2355C14.7183 36.4769 14.8298 37.326 15.051 37.7893C15.2714 38.2533 15.7063 38.5344 16.357 38.6365C16.6784 38.6913 17.6012 38.7193 19.1262 38.7193C20.6666 38.7193 21.5915 38.6953 21.8946 38.6495C22.5458 38.5473 22.9803 38.2664 23.2006 37.8071C23.4217 37.3479 23.5333 36.4917 23.5333 35.2353L23.5331 35.2356ZM44.3904 30.62L39.2163 39.8299H37.5538L35.951 36.945L34.3319 39.8299H32.6554L27.5416 30.62H28.9866L33.3846 38.5933L33.5944 38.5886L35.2281 35.6448L32.4371 30.62H33.8842L35.9398 34.3493L37.9839 30.62H39.4949L36.6682 35.6626L38.2801 38.5933L38.4808 38.5886L42.8815 30.62H44.3904ZM55.4102 39.8299H46.3771V30.62H55.4102V31.8737H47.7946V34.5393H55.1337V35.7797H47.7946V38.5886H55.4102V39.8299ZM70.2863 39.8299H68.868V37.5701C68.868 37.2322 68.6968 36.9622 68.3509 36.7579C68.0526 36.5859 67.7199 36.4989 67.3501 36.4989H60.7227V39.83H59.3042V30.6201H67.776C68.621 30.6201 69.2602 30.9141 69.6954 31.5036C70.0899 32.0217 70.2862 32.7079 70.2862 33.564C70.2862 34.3255 70.1613 34.8964 69.9094 35.2726C69.7333 35.5317 69.4498 35.7429 69.0624 35.9088C69.8778 36.246 70.2862 36.7991 70.2862 37.5675V39.83L70.2863 39.8299ZM68.868 33.5659C68.868 32.9628 68.741 32.5296 68.489 32.2677C68.235 32.0045 67.8119 31.8736 67.2161 31.8736H60.7227V35.2575H67.2161C67.8119 35.2575 68.2421 35.1162 68.5074 34.8353C68.7481 34.5761 68.868 34.1533 68.868 33.5659ZM100.489 35.2356C100.489 36.7291 100.418 37.7071 100.273 38.1705C100.008 39.0328 99.2024 39.5837 97.8608 39.8189C97.3304 39.9129 96.2696 39.9609 94.6776 39.9609C93.108 39.9609 92.0464 39.9129 91.4936 39.8189C90.1432 39.5749 89.3336 39.0308 89.0688 38.1815C88.924 37.7264 88.852 36.7449 88.852 35.2356C88.852 33.7441 88.924 32.7626 89.0688 32.2917C89.3336 31.4275 90.1384 30.8791 91.4808 30.6413C92.0352 30.5391 93.1016 30.4891 94.6776 30.4891C96.2528 30.4891 97.3152 30.5371 97.8608 30.631C99.2024 30.8744 100.007 31.4233 100.273 32.2788C100.418 32.7428 100.489 33.7291 100.489 35.2356ZM99.0848 35.2356C99.0848 33.5351 98.8992 32.5337 98.532 32.2355C98.1304 31.8977 96.844 31.7304 94.6776 31.7304C93.128 31.7304 92.196 31.7584 91.884 31.8133C91.2336 31.9065 90.8024 32.1855 90.5896 32.6468C90.3776 33.1108 90.2696 33.973 90.2696 35.2355C90.2696 36.4769 90.3816 37.326 90.6024 37.7893C90.8232 38.2533 91.2584 38.5344 91.9088 38.6365C92.2304 38.6913 93.1528 38.7193 94.6776 38.7193C96.2184 38.7193 97.1432 38.6953 97.4464 38.6495C98.0976 38.5473 98.532 38.2664 98.752 37.8071C98.9736 37.3479 99.0848 36.4917 99.0848 35.2353V35.2356ZM112.129 31.8736H104.779V34.7222H111.863V35.9759H104.779V39.8299H103.361V30.62H112.129V31.8737V31.8736ZM142.116 35.2246C142.116 37.2342 141.801 38.5584 141.174 39.1939C140.758 39.6188 139.967 39.8299 138.801 39.8299H130.88V30.62H138.801C140.248 30.62 141.174 31.0115 141.585 31.7975C141.94 32.4877 142.116 33.631 142.116 35.2246ZM140.698 35.2246C140.698 34.1211 140.629 33.372 140.493 32.9799C140.237 32.2417 139.669 31.8736 138.786 31.8736H132.298V38.5886H138.786C139.675 38.5886 140.248 38.2164 140.506 37.472C140.633 37.0861 140.698 36.3397 140.698 35.2246ZM157.151 39.8299H155.733V37.5701C155.733 37.2322 155.562 36.9622 155.215 36.7579C154.918 36.5859 154.585 36.4989 154.214 36.4989H147.587V39.83H146.169V30.6201H154.641C155.485 30.6201 156.124 30.9141 156.559 31.5036C156.954 32.0217 157.151 32.7079 157.151 33.564C157.151 34.3255 157.026 34.8964 156.774 35.2726C156.597 35.5317 156.314 35.7429 155.926 35.9088C156.742 36.246 157.151 36.7991 157.151 37.5675V39.83V39.8299ZM155.733 33.5659C155.733 32.9628 155.605 32.5296 155.354 32.2677C155.1 32.0045 154.676 31.8736 154.081 31.8736H147.587V35.2575H154.081C154.676 35.2575 155.106 35.1162 155.371 34.8353C155.613 34.5761 155.733 34.1533 155.733 33.5659ZM162.626 39.8299H161.208V30.62H162.626V39.8299ZM177.946 30.62L172.782 39.8299H171.106L165.992 30.62H167.437L171.835 38.5933L172.044 38.5886L176.434 30.62H177.946ZM181.774 39.8299H180.357V30.62H181.774V39.8299ZM197.258 39.8299H195.134L187.106 31.8195V39.8299H185.702V30.607H187.745L195.84 38.6866V30.607H197.258V39.8299ZM212.037 36.3679C212.037 37.5941 211.806 38.4824 211.35 39.0328C210.946 39.5119 210.3 39.81 209.406 39.9279C208.989 39.9759 208.003 39.9999 206.453 39.9999C204.811 39.9999 203.67 39.917 203.026 39.7517C202.208 39.5317 201.641 39.0876 201.332 38.4213C201.022 37.7524 200.868 36.6577 200.868 35.1333C200.868 33.6639 201.033 32.6076 201.362 31.9675C201.692 31.3273 202.27 30.9093 203.099 30.7131C203.72 30.5631 204.835 30.489 206.453 30.489C208.117 30.489 209.034 30.4979 209.2 30.513C210.134 30.5911 210.815 30.8311 211.24 31.2313C211.772 31.7173 212.037 32.5137 212.037 33.622H210.638C210.638 32.7117 210.405 32.1613 209.939 31.9653C209.562 31.8085 208.401 31.7302 206.456 31.7302C205.01 31.7302 204.11 31.7653 203.758 31.8365C203.153 31.9455 202.755 32.2375 202.562 32.7076C202.377 33.1476 202.285 33.99 202.285 35.2375C202.285 36.4857 202.375 37.3301 202.55 37.7701C202.743 38.2493 203.146 38.5433 203.758 38.6517C204.11 38.7237 205.01 38.7585 206.456 38.7585C208.16 38.7585 208.889 38.7653 208.647 38.7805C209.333 38.7413 209.818 38.5693 210.108 38.2622C210.46 37.9031 210.636 37.2691 210.636 36.3657L206.091 36.3677V35.1265H212.037V36.3677V36.3679Z" fill="#00A19C"/>
<path d="M228.955 29.0257L230.125 27.8194C230.42 27.5157 230.975 27.3533 231.511 27.3533H265.505C266.038 27.3533 266.172 27.7474 265.878 28.0503L264.657 29.3108C264.437 29.537 264.06 29.5795 263.705 29.5795H229.155C228.842 29.5795 228.733 29.2533 228.955 29.0257ZM222.789 36.3823L256.752 36.3795C257.293 36.3795 257.418 36.7737 257.126 37.0766L254.588 39.6935C254.368 39.921 253.993 39.9561 253.633 39.9561H219.085C218.75 39.9561 218.664 39.6366 218.885 39.4092L221.371 36.8464C221.665 36.5426 222.244 36.3795 222.789 36.3824V36.3823ZM227.243 31.7537H261.238C261.782 31.7537 261.905 32.1478 261.611 32.4508L259.875 34.2417C259.656 34.4686 259.276 34.5022 258.922 34.5022H224.386C224.066 34.5022 223.952 34.1848 224.173 33.9573L225.858 32.2184C226.152 31.9168 226.71 31.7537 227.243 31.7537Z" fill="#00A19C"/>
</g>
<defs>
<clipPath id="clip0_1213_820">
<rect width="266.4" height="40" fill="white"/>
</clipPath>
</defs>
</svg>
