<svg xmlns="http://www.w3.org/2000/svg" width="202" height="31" viewBox="0 0 202 31" fill="none">
  <g clip-path="url(#clip0_3_2134)">
    <path d="M15.4123 12.1601H13.3934L11.986 9.49778H3.42044L2.01618 12.1601H0L6.29178 0.203448H9.08381L15.4123 12.1601ZM11.1905 7.92013L7.93714 1.62811L7.4811 1.62228L4.21649 7.92013H11.1905ZM29.8281 8.67498C29.8281 10.9984 28.5569 12.1601 26.0138 12.1601H16.4064V0.203448H25.6035C26.7674 0.203448 27.6762 0.474888 28.3302 1.01456C29.0464 1.59412 29.4035 2.45625 29.4035 3.59828C29.4035 4.79931 28.9448 5.57113 28.0275 5.90741C28.6218 6.0912 29.0752 6.44763 29.3807 6.97618C29.678 7.45693 29.8281 8.02212 29.8281 8.67498ZM27.6198 3.59834C27.6198 2.41963 26.9456 1.83155 25.5976 1.83155H18.1901V5.24079H25.5976C26.2633 5.24079 26.7477 5.13029 27.053 4.90719C27.4298 4.65272 27.6198 4.21451 27.6198 3.59834ZM28.0327 8.68081C28.0327 8.07848 27.8491 7.60672 27.475 7.26466C27.1042 6.92255 26.6113 6.74994 25.9967 6.74994H18.1901V10.549H25.9967C27.3563 10.549 28.0327 9.92707 28.0327 8.68081ZM46.1041 8.87313C46.1041 10.3201 45.5634 11.2784 44.4816 11.7474C43.6239 12.1235 41.8285 12.3131 39.0902 12.3131C36.1624 12.3131 34.2826 11.9907 33.4556 11.349C32.793 10.8401 32.4615 9.77461 32.4615 8.15226H34.2511C34.2511 9.26299 34.506 9.96948 35.0157 10.275C35.4973 10.5602 36.859 10.7015 39.1019 10.7015C41.3671 10.7015 42.7602 10.6058 43.2812 10.4104C43.9751 10.1559 44.3204 9.64174 44.3204 8.8673C44.3204 8.07314 44.0793 7.56102 43.601 7.33795C43.2019 7.14562 41.8344 7.04686 39.4984 7.04686C36.7117 7.04686 34.8573 6.71596 33.9398 6.05458C33.215 5.52337 32.8522 4.6161 32.8522 3.33272C32.8522 1.93623 33.2827 1.02307 34.141 0.596526C34.9563 0.197618 36.7458 0 39.5037 0C42.2224 0 43.9863 0.316572 44.793 0.949778C45.4475 1.4698 45.7759 2.47322 45.7759 3.96272H44.0289C44.0289 2.96513 43.7681 2.31758 43.2472 2.02387C42.7656 1.74975 41.5199 1.61114 39.5096 1.61114C37.8335 1.61114 36.7968 1.64246 36.3977 1.70147C35.2222 1.86561 34.6364 2.41111 34.6364 3.33809C34.6364 4.13275 34.9589 4.68946 35.6017 5.00602C36.194 5.2998 37.7056 5.45276 40.1412 5.46389C42.5762 5.47503 44.1135 5.63065 44.7563 5.93878C45.654 6.36585 46.1041 7.34378 46.1041 8.87313ZM70.3797 12.1601H68.3603L66.953 9.49778H58.3876L56.9832 12.1601H54.9671L61.2588 0.203448H64.051L70.3797 12.1601ZM66.1577 7.92013L62.9045 1.62811L62.4483 1.62228L59.1836 7.92013H66.1577ZM85.0499 8.69197C85.0499 10.0263 84.7272 10.9814 84.0842 11.5525C83.5752 12.022 82.7563 12.2844 81.6323 12.3465C81.8361 12.3465 80.7406 12.3465 78.339 12.3465C75.9065 12.3465 74.811 12.3465 75.0463 12.3465C73.9302 12.2844 73.1149 12.0247 72.5938 11.5668C71.9508 10.9957 71.6281 10.0374 71.6281 8.69197V0.203448H73.4291V8.68924C73.4291 9.4834 73.7154 10.0459 74.2875 10.3711C74.7145 10.6256 75.3636 10.7582 76.2298 10.7694C73.5056 10.7471 74.208 10.7354 78.339 10.7354C82.4706 10.7354 83.1815 10.7471 80.4658 10.7694C81.3235 10.7582 81.972 10.6254 82.4081 10.3711C82.9801 10.0459 83.2665 9.4834 83.2665 8.68924V0.203448H85.0499V8.69197ZM99.4544 1.83155H94.1083V12.1601H92.3079V1.83155H86.9389V0.203448H99.4544V1.83155ZM115.758 6.19587C115.758 8.13527 115.668 9.40428 115.485 10.0061C115.148 11.1259 114.125 11.8408 112.42 12.1463C111.747 12.2679 110.399 12.3301 108.376 12.3301C106.383 12.3301 105.035 12.2679 104.333 12.1463C102.618 11.8297 101.59 11.1227 101.252 10.0204C101.069 9.42977 100.978 8.15492 100.978 6.19587C100.978 4.25964 101.069 2.98479 101.252 2.37443C101.59 1.252 102.611 0.539672 104.316 0.231613C105.022 0.0988379 106.375 0.0339955 108.376 0.0339955C110.378 0.0339955 111.726 0.0961552 112.42 0.217792C114.125 0.534366 115.148 1.2467 115.485 2.35748C115.668 2.9593 115.758 4.24006 115.758 6.19587ZM113.975 6.19587C113.975 3.98821 113.74 2.68787 113.273 2.30062C112.763 1.86293 111.129 1.64514 108.376 1.64514C106.409 1.64514 105.226 1.68182 104.83 1.75243C104.003 1.87407 103.456 2.23584 103.184 2.83498C102.914 3.43734 102.779 4.55657 102.779 6.19587C102.779 7.80698 102.921 8.90971 103.201 9.51161C103.481 10.1139 104.033 10.4784 104.86 10.6111C105.267 10.6819 106.441 10.7184 108.376 10.7184C110.334 10.7184 111.509 10.6876 111.894 10.6282C112.721 10.4954 113.273 10.1309 113.553 9.53436C113.834 8.93786 113.975 7.82719 113.975 6.19587ZM53.7043 6.93637H47.6844V5.32529H53.7043V6.93637Z" fill="white"/>
    <path d="M7.86053 26.0119C7.86053 26.712 7.69286 27.2555 7.35826 27.6453C7.00491 28.0586 6.48129 28.2663 5.78793 28.2663H1.07545V30.8681H0V23.7304H5.83208C7.18422 23.7304 7.86053 24.4911 7.86053 26.0119ZM6.78508 26.0119C6.78508 25.1392 6.4472 24.7021 5.77297 24.7021H1.07539V27.3043H5.7815C6.4509 27.3043 6.78508 26.8741 6.78508 26.0119ZM18.909 27.3075C18.909 28.465 18.8547 29.2229 18.7451 29.582C18.544 30.2503 17.9336 30.6773 16.9161 30.8595C16.5138 30.9324 15.7092 30.9696 14.5024 30.9696C13.3121 30.9696 12.5075 30.9324 12.0882 30.8595C11.0639 30.6704 10.4504 30.2488 10.2492 29.5906C10.1396 29.2379 10.0853 28.4772 10.0853 27.3075C10.0853 26.1516 10.1396 25.3909 10.2492 25.026C10.4503 24.3562 11.0607 23.9312 12.0782 23.7469C12.4991 23.6677 13.3074 23.629 14.5024 23.629C15.6971 23.629 16.5022 23.6662 16.9161 23.739C17.9336 23.9276 18.5439 24.353 18.7451 25.016C18.8547 25.3756 18.909 26.14 18.909 27.3075ZM17.8442 27.3075C17.8442 25.9896 17.7038 25.2136 17.4249 24.9824C17.1205 24.7206 16.1451 24.591 14.5026 24.591C13.3276 24.591 12.6209 24.6127 12.3842 24.6552C11.8909 24.7274 11.5642 24.9437 11.4024 25.3012C11.2418 25.6608 11.1603 26.329 11.1603 27.3074C11.1603 28.2695 11.2448 28.9275 11.4125 29.2867C11.5796 29.6463 11.9094 29.8641 12.4028 29.9432C12.6465 29.9856 13.3463 30.0074 14.5026 30.0074C15.6707 30.0074 16.372 29.9888 16.6017 29.9533C17.0956 29.8741 17.425 29.6564 17.592 29.3004C17.7597 28.9445 17.8443 28.281 17.8443 27.3073L17.8442 27.3075ZM33.6594 23.7304L29.7361 30.8681H28.4755L27.2601 28.6323L26.0325 30.8681H24.7612L20.8836 23.7304H21.9793L25.3141 29.9098L25.4732 29.9061L26.712 27.6246L24.5957 23.7304H25.693L27.2516 26.6206L28.8016 23.7304H29.9473L27.8039 27.6384L29.0262 29.9098L29.1784 29.9061L32.5153 23.7304H33.6594ZM42.0152 30.8681H35.1658V23.7304H42.0152V24.7021H36.2407V26.7678H41.8056V27.7292H36.2407V29.9061H42.0152V30.8681ZM53.2952 30.8681H52.2197V29.1168C52.2197 28.8549 52.0899 28.6456 51.8276 28.4873C51.6014 28.354 51.3492 28.2865 51.0688 28.2865H46.0435V30.8681H44.9679V23.7305H51.3917C52.0325 23.7305 52.5172 23.9584 52.8471 24.4152C53.1462 24.8168 53.2951 25.3485 53.2951 26.012C53.2951 26.6022 53.2004 27.0446 53.0094 27.3362C52.8758 27.537 52.6609 27.7006 52.3671 27.8292C52.9855 28.0906 53.2951 28.5192 53.2951 29.1147V30.8681L53.2952 30.8681ZM52.2197 26.0135C52.2197 25.5461 52.1234 25.2103 51.9324 25.0074C51.7398 24.8034 51.4189 24.7019 50.9672 24.7019H46.0435V27.3245H50.9672C51.4189 27.3245 51.7451 27.215 51.9463 26.9972C52.1288 26.7964 52.2197 26.4687 52.2197 26.0135ZM76.1965 27.3075C76.1965 28.465 76.1425 29.2229 76.0327 29.582C75.8319 30.2503 75.221 30.6773 74.2038 30.8595C73.8016 30.9324 72.9972 30.9696 71.7901 30.9696C70.5999 30.9696 69.7949 30.9324 69.3758 30.8595C68.3518 30.6704 67.7379 30.2488 67.5372 29.5906C67.4274 29.2379 67.3728 28.4772 67.3728 27.3075C67.3728 26.1516 67.4274 25.3909 67.5372 25.026C67.7379 24.3562 68.3482 23.9312 69.3661 23.7469C69.7865 23.6677 70.5951 23.629 71.7901 23.629C72.9845 23.629 73.7901 23.6662 74.2038 23.739C75.221 23.9276 75.8313 24.353 76.0327 25.016C76.1425 25.3756 76.1965 26.14 76.1965 27.3075ZM75.1319 27.3075C75.1319 25.9896 74.9911 25.2136 74.7127 24.9824C74.4082 24.7206 73.4328 24.591 71.7901 24.591C70.6151 24.591 69.9084 24.6127 69.6718 24.6552C69.1786 24.7274 68.8517 24.9437 68.6903 25.3012C68.5296 25.6608 68.4477 26.329 68.4477 27.3074C68.4477 28.2695 68.5326 28.9275 68.7 29.2867C68.8674 29.6463 69.1974 29.8641 69.6906 29.9432C69.9345 29.9856 70.6339 30.0074 71.7901 30.0074C72.9584 30.0074 73.6596 29.9888 73.8895 29.9533C74.3833 29.8741 74.7127 29.6564 74.8795 29.3004C75.0476 28.9445 75.1319 28.281 75.1319 27.3073V27.3075ZM85.0226 24.7019H79.4497V26.9096H84.8212V27.8812H79.4497V30.8681H78.3742V23.7304H85.0226V24.7021V24.7019ZM107.761 27.299C107.761 28.8564 107.522 29.8827 107.047 30.3752C106.731 30.7045 106.131 30.8681 105.247 30.8681H99.2409V23.7304H105.247C106.344 23.7304 107.047 24.0338 107.358 24.643C107.627 25.1779 107.761 26.064 107.761 27.299ZM106.685 27.299C106.685 26.4438 106.633 25.8632 106.53 25.5593C106.336 24.9873 105.905 24.7019 105.235 24.7019H100.316V29.9061H105.235C105.91 29.9061 106.344 29.6176 106.54 29.0407C106.636 28.7417 106.685 28.1632 106.685 27.299ZM119.161 30.8681H118.086V29.1168C118.086 28.8549 117.956 28.6456 117.693 28.4873C117.468 28.354 117.215 28.2865 116.934 28.2865H111.909V30.8681H110.834V23.7305H117.258C117.898 23.7305 118.382 23.9584 118.712 24.4152C119.012 24.8168 119.161 25.3485 119.161 26.012C119.161 26.6022 119.066 27.0446 118.875 27.3362C118.741 27.537 118.527 27.7006 118.232 27.8292C118.851 28.0906 119.161 28.5192 119.161 29.1147V30.8681V30.8681ZM118.086 26.0135C118.086 25.5461 117.989 25.2103 117.798 25.0074C117.606 24.8034 117.284 24.7019 116.833 24.7019H111.909V27.3245H116.833C117.284 27.3245 117.611 27.215 117.812 26.9972C117.995 26.7964 118.086 26.4687 118.086 26.0135ZM123.312 30.8681H122.237V23.7304H123.312V30.8681ZM134.929 23.7304L131.014 30.8681H129.743L125.865 23.7304H126.96L130.295 29.9098L130.454 29.9061L133.783 23.7304H134.929ZM137.831 30.8681H136.757V23.7304H137.831V30.8681ZM149.573 30.8681H147.962L141.875 24.66V30.8681H140.81V23.7204H142.359L148.497 29.982V23.7204H149.573V30.8681ZM160.779 28.185C160.779 29.1354 160.604 29.8238 160.258 30.2503C159.952 30.6216 159.462 30.8526 158.784 30.944C158.467 30.9812 157.72 30.9998 156.545 30.9998C155.3 30.9998 154.434 30.9356 153.946 30.8075C153.326 30.637 152.896 30.2928 152.662 29.7765C152.426 29.258 152.31 28.4097 152.31 27.2283C152.31 26.0894 152.435 25.2708 152.685 24.7747C152.935 24.2786 153.373 23.9546 154.002 23.8026C154.472 23.6863 155.318 23.6289 156.545 23.6289C157.806 23.6289 158.501 23.6358 158.628 23.6475C159.336 23.708 159.852 23.894 160.174 24.2042C160.578 24.5809 160.779 25.1981 160.779 26.0569H159.718C159.718 25.3515 159.541 24.925 159.188 24.7731C158.902 24.6515 158.022 24.5908 156.547 24.5908C155.451 24.5908 154.768 24.618 154.501 24.6732C154.042 24.7577 153.741 24.984 153.594 25.3483C153.454 25.6893 153.384 26.3422 153.384 27.309C153.384 28.2764 153.453 28.9308 153.586 29.2718C153.732 29.6431 154.037 29.8709 154.501 29.955C154.768 30.0108 155.45 30.0377 156.547 30.0377C157.839 30.0377 158.392 30.0431 158.208 30.0548C158.728 30.0245 159.097 29.8912 159.316 29.6531C159.583 29.3748 159.717 28.8835 159.717 28.1834L156.27 28.1849V27.2229H160.779V28.1849V28.185Z" fill="white"/>
    <path d="M173.607 22.4951L174.494 21.5602C174.718 21.3248 175.139 21.199 175.545 21.199H201.321C201.726 21.199 201.827 21.5044 201.605 21.7392L200.678 22.7161C200.512 22.8914 200.226 22.9243 199.957 22.9243H173.759C173.522 22.9243 173.439 22.6715 173.607 22.4951ZM168.932 28.1965L194.684 28.1943C195.095 28.1943 195.19 28.4998 194.968 28.7345L193.044 30.7627C192.877 30.939 192.592 30.9661 192.319 30.9661H166.124C165.869 30.9661 165.804 30.7186 165.971 30.5423L167.857 28.5561C168.079 28.3207 168.518 28.1943 168.932 28.1965V28.1965ZM172.309 24.6093H198.086C198.499 24.6093 198.592 24.9147 198.369 25.1496L197.053 26.5375C196.886 26.7133 196.598 26.7394 196.33 26.7394H170.143C169.9 26.7394 169.814 26.4934 169.981 26.3171L171.259 24.9694C171.482 24.7357 171.905 24.6093 172.309 24.6093Z" fill="white"/>
  </g>
  <defs>
    <clipPath id="clip0_3_2134">
      <rect width="202" height="31" fill="white"/>
    </clipPath>
  </defs>
</svg>