<svg width="30" height="20" viewBox="0 0 30 20" fill="none" xmlns="http://www.w3.org/2000/svg">
<rect width="30" height="20" rx="2" fill="white"/>
<g clip-path="url(#clip0_0_911)">
<path d="M18.5199 4.09277H11.3999V15.4078H18.5199V4.09277Z" fill="#FF5F00"/>
<path d="M12.2001 9.7501C12.2001 7.5801 13.2401 5.4876 15.0001 4.0926C11.8001 1.6126 7.08013 2.1551 4.60013 5.3326C2.12013 8.5101 2.60013 13.0051 5.88013 15.4076C8.60013 17.4226 12.3601 17.4226 15.0801 15.4076C13.2401 14.0126 12.2001 11.9201 12.2001 9.7501Z" fill="#EB001B"/>
<path d="M26.2801 14.1674V13.9349H26.3601V13.8574H26.1201V13.9349H26.2001L26.2801 14.1674ZM26.7601 14.1674V13.8574H26.6801L26.6001 14.0899L26.5201 13.8574H26.4401V14.1674H26.5201V13.9349L26.6001 14.0899H26.6801L26.7601 13.9349V14.1674Z" fill="#F79E1B"/>
<path d="M27 9.7501C27 13.7026 23.64 16.9576 19.56 16.9576C17.88 16.9576 16.28 16.4151 15 15.4076C18.2 12.9276 18.76 8.4326 16.28 5.3326C15.88 4.8676 15.48 4.4801 15 4.0926C18.2 1.6126 22.92 2.1551 25.4 5.3326C26.44 6.5726 27 8.1226 27 9.7501Z" fill="#F79E1B"/>
</g>
<defs>
<clipPath id="clip0_0_911">
<rect width="24" height="15.5" fill="white" transform="translate(3 2)"/>
</clipPath>
</defs>
</svg>
