<svg xmlns="http://www.w3.org/2000/svg" width="96" height="25" viewBox="0 0 96 25" fill="none">
  <g clip-path="url(#clip0_0_842)">
    <path fill-rule="evenodd" clip-rule="evenodd" d="M18.3013 1.41712C22.2812 3.51024 25 7.68332 25 12.4936C25 17.3038 22.2812 21.4901 18.3013 23.5704V22.1401C19.8234 21.2296 21.1109 19.9555 22.0477 18.4476L18.3013 16.9269V14.6127L22.4115 17.8239C23.2701 16.2377 23.7513 14.4305 23.7513 12.4933C23.7513 8.41097 21.5658 4.82309 18.3013 2.84675V1.41712ZM12.5132 0C14.5944 0 16.5582 0.507244 18.3013 1.41712V2.84741C16.7013 1.88489 14.8283 1.31318 12.8513 1.24804L14.2819 11.4798L18.3013 14.613V16.9272L12.4868 14.5739L6.71152 16.94V14.6387L10.7569 11.4794L12.1747 1.24771C10.1714 1.31285 8.31152 1.88489 6.71152 2.84675V1.41712C8.44178 0.507244 10.4188 0 12.5132 0ZM18.3013 23.5704C16.5582 24.4803 14.5941 25 12.5132 25C10.4191 25 8.44211 24.4803 6.71184 23.5832V22.1401C8.40296 23.1668 10.3928 23.752 12.5132 23.752C14.6204 23.752 16.5977 23.1668 18.3013 22.1401V23.5704ZM6.71184 23.5832C2.71842 21.4901 0 17.3038 0 12.4936C0 7.68332 2.71842 3.51024 6.71184 1.41712V2.84741C3.43388 4.82342 1.24868 8.39847 1.24868 12.4936C1.24868 14.4305 1.74309 16.264 2.60165 17.8499L6.71184 14.6387V16.94L2.97862 18.4736C3.91513 19.9693 5.1898 21.2299 6.71184 22.1401V23.5832Z" fill="#6B6F6E"/>
    <path d="M61.1417 8.80811C60.5939 8.95387 60.1003 9.04161 59.4872 9.1076V9.29412C60.1771 9.29412 60.2652 9.37142 60.2652 9.94243V11.8623C59.8595 11.204 59.5414 11.0068 58.9501 11.0068C57.7772 11.0068 56.9563 12.1146 56.9563 13.6951C56.9563 15.2756 57.7885 16.3843 58.9832 16.3843C59.6077 16.3843 60.0348 16.0996 60.3413 15.4849C60.3855 15.9016 60.3858 15.9456 60.4953 16.3628C60.9445 16.2199 61.1304 16.1755 61.7773 16.0992L61.9411 16.0767V15.8902C61.2072 15.8684 61.1417 15.8133 61.1417 15.1442V8.80811ZM31.5764 8.88791C31.1599 8.93211 30.9403 8.94351 30.5353 8.94351C30.2281 8.94351 30.0642 8.93286 29.6373 8.89958V9.17307C30.3931 9.21726 30.546 9.32712 30.546 9.83214V9.8985L30.3159 15.2868C30.2941 15.8796 30.1852 15.967 29.418 16.0221V16.2857C29.9881 16.2415 30.2063 16.231 30.5129 16.231C30.82 16.231 31.0387 16.2415 31.5979 16.2857V16.0221C30.8307 15.967 30.6883 15.868 30.6883 15.3854V15.2868L30.9077 9.59093L32.7045 14.4528L32.8361 14.8366L32.9901 15.2643L33.1432 15.693L33.264 16.0445H33.4288L33.5487 15.6822L33.6911 15.2643L33.8442 14.859L33.9758 14.4959L35.7842 9.60169L35.8827 15.2868V15.3415C35.8827 15.8574 35.7185 15.9779 34.9731 16.0221V16.2857C35.6635 16.2197 35.9263 16.1978 36.3428 16.1978C36.7588 16.1978 37.0222 16.2197 37.7126 16.2857V16.0221C36.9236 15.967 36.8246 15.8796 36.8137 15.2868L36.6938 9.8985V9.82139C36.6938 9.32727 36.8579 9.21726 37.6034 9.17307V8.89958C37.1868 8.93287 37.0115 8.94351 36.7377 8.94351C36.4088 8.94351 36.179 8.93211 35.6857 8.88792L33.615 14.4421L31.5764 8.88791ZM74.2009 8.93185V9.20713C74.9899 9.25075 75.0997 9.33794 75.0997 9.93077V15.2536C75.0997 15.8464 75.0122 15.9229 74.2009 15.9889V16.2525H76.9735C77.7843 16.2525 78.2225 16.1539 78.6826 15.8687C79.2309 15.5175 79.5922 14.8475 79.5922 14.156C79.5922 13.5638 79.3401 13.0265 78.9127 12.6971C78.6823 12.5215 78.4411 12.4225 78.0469 12.3456C78.8359 12.0495 79.2529 11.4895 79.2529 10.7217C79.2529 10.1506 79.0114 9.64523 78.5948 9.32729C78.2224 9.05297 77.7949 8.93185 77.0827 8.93185L74.2009 8.93185ZM76.0201 9.27259H76.9511C77.8719 9.27259 78.277 9.72223 78.277 10.7432C78.277 11.2476 78.1575 11.6102 77.9162 11.8954C77.675 12.1698 77.3791 12.2577 76.7649 12.2577H76.0201V9.27259ZM50.8184 10.8418L50.522 11.4014C50.1714 11.061 49.8757 10.9405 49.4047 10.9405C48.1116 10.9405 47.2346 12.0601 47.2346 13.6951C47.2346 15.2974 48.1008 16.3735 49.3716 16.3735C50.3583 16.3735 50.9824 15.7364 51.1245 14.5622H50.6751C50.5439 15.5281 50.138 16.0113 49.4585 16.0113C48.615 16.0113 48.1881 15.232 48.1881 13.6951C48.1881 12.1255 48.6708 11.2373 49.4925 11.2373C50.1611 11.2373 50.5658 11.6979 50.7629 12.6522H51.0046V10.8418L50.8184 10.8418ZM70.4524 10.875L70.2662 11.3242C69.8938 11.0723 69.5763 10.9736 69.1489 10.9736C68.1846 10.9736 67.5052 11.5663 67.5052 12.4335C67.5052 13.0699 67.7578 13.3771 68.5571 13.7507L69.0612 13.9803L69.4775 14.1668C70.0143 14.4084 70.2232 14.6609 70.2232 15.0339C70.2232 15.594 69.7406 16.022 69.0943 16.022C68.3271 16.022 67.8667 15.5393 67.669 14.5407L67.4291 14.5515V16.3843H67.6261L67.8884 15.8902C68.3049 16.2196 68.6993 16.3511 69.2035 16.3511C70.2337 16.3511 70.9681 15.6934 70.9681 14.7712C70.9681 14.1238 70.6717 13.7721 69.8392 13.41L69.379 13.2127C68.3814 12.7737 68.2178 12.6313 68.2178 12.1922C68.2178 11.6763 68.667 11.2812 69.2474 11.2812C69.9378 11.2812 70.2992 11.6986 70.3978 12.576H70.6503V10.875H70.4524ZM86.6504 10.875C86.2132 11.0288 85.8397 11.1163 85.2037 11.2041V11.3906C85.2587 11.3906 85.3143 11.4014 85.3469 11.4014C85.8953 11.4014 85.96 11.4679 85.9709 11.9179V12.082V15.4733C85.9709 15.945 85.8625 16.0333 85.1938 16.066V16.2857C85.7639 16.2306 85.9932 16.2202 86.3765 16.2202C86.7713 16.2202 86.9908 16.2306 87.5609 16.2857V16.066C86.9908 16.0442 86.8483 15.9341 86.8483 15.4957V12.8388C86.8483 11.9389 87.2425 11.4677 87.988 11.4677C88.6887 11.4677 88.9736 11.8515 88.9736 12.8065V15.4957C88.9736 15.9341 88.8314 16.0442 88.2395 16.066V16.2857C88.8091 16.2306 89.0281 16.2202 89.4338 16.2202C89.828 16.2202 90.048 16.2306 90.629 16.2857V16.066C89.9603 16.0333 89.8501 15.945 89.8501 15.4733V12.8388C89.8501 12.4221 89.7954 12.1149 89.6854 11.8515C89.4665 11.3138 88.8967 10.9736 88.2395 10.9736C87.6047 10.9736 87.1544 11.2372 86.7597 11.83C86.7373 11.4128 86.7054 11.1275 86.6504 10.875V10.875ZM44.479 10.8965C44.0292 11.0279 43.6568 11.0943 43.0323 11.1494V11.3467H43.1746C43.7441 11.3576 43.7994 11.4129 43.8102 11.8847V12.0604V15.4733C43.8102 15.945 43.6902 16.0333 43.0215 16.066V16.2857C43.6243 16.2306 43.8541 16.2193 44.2489 16.2193C44.6322 16.2193 44.8625 16.2306 45.4647 16.2857V16.066C44.7966 16.0333 44.6867 15.945 44.6867 15.4733V13.1795C44.6867 12.0926 45.0482 11.4023 45.6178 11.4023C45.8149 11.4023 45.9472 11.5112 45.9472 11.665V11.7636L45.9249 11.8739C45.914 11.9181 45.9034 11.9615 45.9034 11.9833C45.9034 12.2031 46.1007 12.3563 46.3528 12.3563C46.6267 12.3563 46.813 12.1476 46.813 11.8291C46.813 11.3028 46.4073 10.9405 45.8595 10.9405C45.29 10.9405 44.8181 11.3031 44.5775 11.9286V11.8076C44.5552 11.4781 44.5334 11.3028 44.479 10.8965ZM40.3742 10.9404C39.0592 10.9404 38.2381 12.005 38.2381 13.6951C38.2381 15.3852 39.0592 16.3735 40.4727 16.3735C41.5464 16.3735 42.2477 15.7035 42.3903 14.573H41.9526C41.8208 15.5061 41.3385 16.0113 40.5604 16.0113C39.5635 16.0113 39.1255 15.2435 39.1146 13.531H42.3796C42.3578 11.8409 41.6674 10.9404 40.3742 10.9404ZM54.0422 10.9404C52.7272 10.9404 51.9052 12.005 51.9052 13.6951C51.9052 15.3852 52.7272 16.3735 54.1407 16.3735C55.2144 16.3735 55.9163 15.7035 56.0584 14.573H55.6197C55.4885 15.5061 55.0065 16.0113 54.2284 16.0113C53.2315 16.0113 52.7926 15.2435 52.7817 13.531H56.0476C56.0252 11.8409 55.3354 10.9404 54.0422 10.9404ZM64.4935 10.9404C63.1786 10.9404 62.3565 12.005 62.3565 13.6951C62.3565 15.3852 63.1785 16.3735 64.592 16.3735C65.6658 16.3735 66.367 15.7035 66.5097 14.573H66.071C65.9392 15.5061 65.4578 16.0113 64.6797 16.0113C63.6828 16.0113 63.2439 15.2435 63.233 13.531H66.4989C66.4766 11.8409 65.7861 10.9404 64.4935 10.9404ZM82.619 10.9404C81.3041 10.9404 80.4821 12.005 80.4821 13.6951C80.4821 15.3852 81.304 16.3735 82.7175 16.3735C83.7913 16.3735 84.4925 15.7035 84.6352 14.573H84.1965C84.0653 15.5061 83.5837 16.0113 82.8062 16.0113C81.8086 16.0113 81.3703 15.2435 81.3594 13.531H84.6244C84.6021 11.8409 83.9122 10.9404 82.619 10.9404ZM91.4276 11.0723L91.1742 12.4989H91.3944C91.7886 11.5113 91.9637 11.3574 92.6765 11.3574H94.0229L91.0542 16.2525H94.8233L95.1089 14.6725H94.8788C94.5493 15.6711 94.2434 15.9673 93.4974 15.9673H92.2163L95.1966 11.0723L91.4276 11.0723ZM40.3635 11.2256C41.0757 11.2256 41.4372 11.8403 41.5031 13.1356H39.1361C39.2455 11.8736 39.6622 11.2256 40.3635 11.2256ZM54.0306 11.2256C54.7428 11.2256 55.1044 11.8403 55.1702 13.1356H52.8032C52.9126 11.8736 53.3293 11.2256 54.0306 11.2256ZM64.4828 11.2256C65.195 11.2256 65.5566 11.8403 65.6225 13.1356H63.2554C63.3648 11.8736 63.7815 11.2256 64.4828 11.2256ZM82.6083 11.2256C83.3205 11.2256 83.6821 11.8403 83.748 13.1356H81.3809C81.4903 11.8736 81.907 11.2256 82.6083 11.2256ZM59.0485 11.3135C59.8593 11.3135 60.2759 12.1483 60.2759 13.7615C60.2759 15.2869 59.8706 16.0767 59.0817 16.0767C58.2927 16.0767 57.8766 15.2539 57.8766 13.6844C57.8766 12.093 58.2596 11.3135 59.0485 11.3135ZM76.0201 12.5984H77.0613C77.6422 12.5984 77.9703 12.6965 78.2224 12.9491C78.4745 13.2016 78.6163 13.6731 78.6163 14.2C78.6163 15.2972 78.0687 15.9126 77.0935 15.9126H76.6996C76.1186 15.9126 76.0201 15.8241 76.0201 15.3415V12.5984ZM71.6252 13.0333V13.601H74.0737V13.0333H71.6252Z" fill="#6B6F6E"/>
  </g>
  <defs>
    <clipPath id="clip0_0_842">
      <rect width="96" height="25" fill="white"/>
    </clipPath>
  </defs>
</svg>
