<svg width="30" height="20" viewBox="0 0 30 20" fill="none" xmlns="http://www.w3.org/2000/svg">
<rect width="30" height="20" rx="2" fill="white"/>
<g clip-path="url(#clip0_0_918)">
<path fill-rule="evenodd" clip-rule="evenodd" d="M20.7529 10.1626V14.0002H22.9943V11.7261H25.5345C26.6037 11.7185 27.5118 11.0689 27.8543 10.1626H20.7529Z" fill="#37A72E"/>
<path fill-rule="evenodd" clip-rule="evenodd" d="M20.4541 7C20.5847 8.56858 22.1448 9.80711 24.0501 9.80711C24.0564 9.80711 27.9474 9.80711 27.9474 9.80711C27.9762 9.66325 27.9912 9.51477 27.9912 9.36294C27.9912 8.06357 26.8891 7.00961 25.5257 7.00007L20.4541 7Z" fill="url(#paint0_linear_0_918)"/>
<path fill-rule="evenodd" clip-rule="evenodd" d="M17.1367 9.76978L17.1385 9.7662L17.1387 9.76625C17.1617 9.72704 17.2057 9.70051 17.2563 9.70051C17.3293 9.70051 17.3887 9.75586 17.3907 9.82486L17.3908 9.82487V13.9645H19.6321V7H17.3908C17.1065 7.009 16.7854 7.20739 16.666 7.45092L14.8823 11.0894C14.8779 11.1043 14.871 11.1181 14.8621 11.1306L14.8615 11.1318L14.8613 11.1318C14.8343 11.1687 14.7893 11.1929 14.7385 11.1929C14.6559 11.1929 14.589 11.1293 14.589 11.0508V7H12.3477V13.9645H14.589V13.9637C14.8702 13.9497 15.1837 13.7535 15.3014 13.5135L17.1321 9.77916C17.1335 9.77597 17.1351 9.77284 17.1367 9.76978Z" fill="#37A72E"/>
<path fill-rule="evenodd" clip-rule="evenodd" d="M8.76722 9.88883L7.45723 13.9645H5.84483L4.53405 9.88635C4.52141 9.82105 4.46125 9.77157 4.38894 9.77157C4.30744 9.77157 4.24138 9.83441 4.24138 9.91193C4.24138 9.91252 4.24138 9.91311 4.24139 9.9137L4.24138 13.9645H2V7H3.92385H4.49681C4.90923 7 5.34142 7.30444 5.46194 7.6794L6.55276 11.0732C6.60704 11.242 6.69509 11.2418 6.7493 11.0732L7.84013 7.6794C7.96073 7.30418 8.39278 7 8.80525 7L9.37804 7H11.3017V13.9645H9.06035V9.91371C9.06034 9.91311 9.06035 9.91252 9.06035 9.91193C9.06035 9.83441 8.99428 9.77157 8.91279 9.77157C8.83957 9.77157 8.7788 9.8223 8.76722 9.88883Z" fill="#37A72E"/>
</g>
<defs>
<linearGradient id="paint0_linear_0_918" x1="20.4541" y1="8.40355" x2="27.9912" y2="8.40355" gradientUnits="userSpaceOnUse">
<stop stop-color="#00A0E5"/>
<stop offset="1" stop-color="#0077C3"/>
</linearGradient>
<clipPath id="clip0_0_918">
<rect width="26" height="7" fill="white" transform="translate(2 7)"/>
</clipPath>
</defs>
</svg>
