<svg width="158" height="50" viewBox="0 0 158 50" fill="none" xmlns="http://www.w3.org/2000/svg">
<path d="M0.419838 15.6541H5.99316L9.1433 25.9791H9.1902L12.3911 15.6541H17.816V32.4691H14.232V20.5817H14.1812L10.7418 32.4691H7.44707L4.05461 20.5817H4.0038V32.4691H0.419838V15.6541Z" fill="#0066B2"/>
<path d="M0.419838 15.6541H5.99316L9.1433 25.9791H9.1902L12.3911 15.6541H17.816V32.4691H14.232V20.5817H14.1812L10.7418 32.4691H7.44707L4.05461 20.5817H4.0038V32.4691H0.419838V15.6541Z" fill="#0066B2"/>
<path d="M52.4517 15.6538H48.8638V18.9694H52.4517V15.6538Z" fill="#0066B2"/>
<path d="M52.4517 20.1538H48.8638V32.469H52.4517V20.1538Z" fill="#0066B2"/>
<path d="M58.025 15.6538H54.4371V32.4688H58.025V15.6538Z" fill="#0066B2"/>
<path d="M25.8045 29.3022C27.4929 29.3022 28.8608 27.9653 28.8608 26.3151C28.8608 24.6649 27.4929 23.328 25.8045 23.328C24.1161 23.328 22.7482 24.6649 22.7482 26.3151C22.7482 27.9653 24.1161 29.3022 25.8045 29.3022ZM19.1407 26.3113C19.1407 22.7091 22.1267 19.7908 25.8084 19.7908C29.494 19.7908 32.48 22.7091 32.48 26.3113C32.48 29.9096 29.494 32.8317 25.8084 32.8317C22.1306 32.8317 19.1407 29.9096 19.1407 26.3113Z" fill="#ED1C2E"/>
<path d="M40.6679 29.3021C42.3563 29.3021 43.7243 27.9652 43.7243 26.315C43.7243 24.6648 42.3563 23.3279 40.6679 23.3279C38.9795 23.3279 37.6116 24.6648 37.6116 26.315C37.6116 27.9652 38.9795 29.3021 40.6679 29.3021ZM33.9846 32.4688V15.6538H37.5686V21.1009C38.5613 20.272 39.7026 19.8709 41.008 19.8709C44.6427 19.8709 47.3551 22.8772 47.3551 26.3341C47.3551 29.7911 44.6154 32.7515 41.008 32.7515C39.6518 32.7515 38.4871 32.3733 37.5686 31.3763V32.465H33.9846V32.4688Z" fill="#0066B2"/>
<path d="M60.2998 17.3384H59.9402V15.9518H59.4204V15.6538H60.8196V15.9518H60.2998V17.3384Z" fill="#0066B2"/>
<path d="M62.6876 17.3384H62.3515V15.9327H62.3437L62.0232 17.3384H61.6714L61.3588 15.9327H61.3549V17.3384H61.0187V15.6538H61.5425L61.8551 16.9793H61.859L62.1639 15.6538H62.6876V17.3384Z" fill="#0066B2"/>
</svg>
