<svg xmlns="http://www.w3.org/2000/svg" width="30" height="25" viewBox="0 0 30 25" fill="none">
  <g clip-path="url(#clip0_0_874)">
    <path d="M17.4817 13.4985C17.4579 13.5044 17.3626 13.5044 17.321 13.5044H14.2495V14.2158H17.3745C17.3983 14.2158 17.5829 14.2158 17.6186 14.2099C18.2555 14.1506 18.5471 13.623 18.5471 13.1605C18.5471 12.6863 18.2436 12.1764 17.6662 12.1231C17.5531 12.1112 17.4579 12.1112 17.4162 12.1112H15.3745C15.2852 12.1112 15.1841 12.1053 15.1483 12.0934C14.9876 12.0519 14.9281 11.9097 14.9281 11.7911C14.9281 11.6844 14.9876 11.5421 15.1543 11.4947C15.2019 11.4828 15.2555 11.4769 15.3686 11.4769H18.315V10.7773H15.321C15.196 10.7773 15.1007 10.7833 15.0233 10.7951C14.5114 10.8663 14.1543 11.2753 14.1543 11.797C14.1543 12.2239 14.4222 12.7218 15.0114 12.8048C15.1186 12.8167 15.2674 12.8167 15.3329 12.8167H17.321C17.3567 12.8167 17.446 12.8167 17.4638 12.8226C17.69 12.8523 17.7674 13.0183 17.7674 13.1665C17.7674 13.3088 17.6781 13.4629 17.4817 13.4985Z" fill="#6B6F6E"/>
    <path d="M11.6604 13.4985C11.6366 13.5044 11.5414 13.5044 11.5056 13.5044H8.42825V14.2158H11.5533C11.5771 14.2158 11.7616 14.2158 11.7973 14.2099C12.4342 14.1506 12.7259 13.623 12.7259 13.1605C12.7259 12.6863 12.4223 12.1764 11.8449 12.1231C11.7318 12.1112 11.6366 12.1112 11.5949 12.1112H9.55325C9.46396 12.1112 9.36277 12.1053 9.32706 12.0934C9.16634 12.0519 9.10682 11.9097 9.10682 11.7911C9.10682 11.6844 9.16634 11.5421 9.33301 11.4947C9.38063 11.4828 9.4342 11.4769 9.5473 11.4769H12.4937V10.7773H9.49968C9.37468 10.7773 9.27944 10.7833 9.20206 10.7951C8.69015 10.8663 8.33301 11.2753 8.33301 11.797C8.33301 12.2239 8.60087 12.7218 9.19015 12.8048C9.2973 12.8167 9.44611 12.8167 9.51158 12.8167H11.4997C11.5354 12.8167 11.6247 12.8167 11.6425 12.8226C11.8687 12.8523 11.9461 13.0183 11.9461 13.1665C11.9461 13.3088 11.8628 13.4629 11.6604 13.4985Z" fill="#6B6F6E"/>
    <path d="M6.82752 10.7544H6.05371V14.2343H6.82752V10.7544Z" fill="#6B6F6E"/>
    <path d="M4.34525 14.2343V10.7544H3.57144V13.351L0.994051 10.7544H0V14.2343H0.773812V11.6259L3.36906 14.2343H4.34525Z" fill="#6B6F6E"/>
    <path d="M29.2325 10.7544V13.351L26.6552 10.7544H25.6611V14.2343H26.4349V11.6259L29.0242 14.2343H30.0004V10.7544H29.2325Z" fill="#6B6F6E"/>
    <path d="M21.6307 10.7544L19.4521 14.2343H20.3926L20.7795 13.6119H23.3212L23.7081 14.2343H24.6426L22.4641 10.7544H21.6307ZM22.9224 12.9538H21.1783L22.0533 11.5547L22.9224 12.9538Z" fill="#6B6F6E"/>
    <path d="M4.30349 8.77993C5.86302 4.24472 10.1607 1.19753 15.0059 1.19753C19.8512 1.19753 24.1548 4.24472 25.7083 8.77993L25.7202 8.8155H29.131V8.40644L27.7143 8.24045C26.8393 8.13967 26.6548 7.75432 26.4167 7.2682L26.3571 7.14963C24.3095 2.81005 19.8512 0 15.0059 0C10.1547 0 5.70231 2.81005 3.65468 7.16148L3.59516 7.28005C3.35706 7.76618 3.17253 8.15152 2.29753 8.25231L0.880859 8.4183V8.82736H4.28563L4.30349 8.77993Z" fill="#6B6F6E"/>
    <path d="M25.7201 16.1783L25.7082 16.2139C24.1487 20.7491 19.8511 23.7903 15.0058 23.7903C10.1606 23.7903 5.85698 20.7431 4.3034 16.2079L4.29149 16.1724H0.886719V16.5814L2.30339 16.7474C3.17839 16.8482 3.36292 17.2335 3.60101 17.7197L3.66054 17.8382C5.70817 22.1897 10.1665 24.9997 15.0118 24.9997C19.857 24.9997 24.3154 22.1897 26.363 17.8442L26.4225 17.7256C26.6606 17.2395 26.8452 16.8541 27.7202 16.7533L29.1368 16.5873V16.1783H25.7201Z" fill="#6B6F6E"/>
  </g>
  <defs>
    <clipPath id="clip0_0_874">
      <rect width="30" height="25" fill="white"/>
    </clipPath>
  </defs>
</svg>
