<svg xmlns="http://www.w3.org/2000/svg" width="32" height="25" viewBox="0 0 32 25" fill="none">
  <g clip-path="url(#clip0_0_886)">
    <path d="M15.9933 23.2353C9.98442 23.2353 5.0006 18.3683 5.0006 12.5002C5.0006 12.1951 5.01495 11.8927 5.0414 11.5936L14.2393 12.154L10.261 14.8381C10.2071 14.8752 10.1716 14.9361 10.1716 15.005C10.1716 15.1174 10.2651 15.2086 10.3801 15.2086H26.6234C25.3744 19.7932 21.0465 23.2353 15.9933 23.2353ZM15.9933 1.76469C22.0022 1.76469 26.9861 6.63212 26.9861 12.5002C26.9861 12.8029 26.9724 13.1033 26.9461 13.4005L17.7571 12.83L21.7445 10.1619C21.7987 10.1248 21.8338 10.0639 21.8338 9.99498C21.8338 9.88265 21.7408 9.79142 21.6262 9.79142H5.3632C6.61264 5.20682 10.9401 1.76469 15.9933 1.76469ZM31.759 13.6992L28.7515 13.5124C28.7789 13.1786 28.7935 12.8408 28.7935 12.5002C28.7935 5.59641 23.0628 0 15.9933 0C9.87672 0 4.76276 4.19024 3.4958 9.79142H1.134C0.979406 9.79142 0.841109 9.86313 0.753424 9.97467L0.050575 10.9223C0.0189283 10.9622 0 11.012 0 11.0661C0 11.196 0.107318 11.3008 0.2403 11.3008L3.23597 11.4832C3.20822 11.8186 3.19355 12.1576 3.19355 12.5002C3.19355 19.4036 8.92425 25 15.9933 25C22.1099 25 27.2239 20.8098 28.4913 15.2086H30.8649C31.0199 15.2086 31.1577 15.1369 31.2455 15.0253L31.9487 14.0777C31.9803 14.0378 31.9993 13.988 31.9993 13.9339C31.9993 13.804 31.8916 13.6992 31.759 13.6992Z" fill="#6B6F6E"/>
  </g>
  <defs>
    <clipPath id="clip0_0_886">
      <rect width="32" height="25" fill="white"/>
    </clipPath>
  </defs>
</svg>
