<svg width="158" height="48" viewBox="0 0 158 48" fill="none" xmlns="http://www.w3.org/2000/svg">
<path d="M27.617 23.5529C27.617 27.023 24.7989 29.8411 21.3287 29.8411C17.8586 29.8411 15.0405 27.023 15.0405 23.5529C15.0405 20.0828 17.8586 17.2646 21.3287 17.2646C24.7989 17.2646 27.617 20.0755 27.617 23.5529Z" fill="#00A99D"/>
<path d="M29.4121 14.8882L37.3738 1.09473H25.0799C21.6533 1.1889 20.755 1.86264 19.451 4.11568C19.451 4.11568 11.5472 17.8078 11.5472 17.815C10.5692 19.4957 9.98965 21.459 9.98965 23.5454C9.98965 27.6675 12.192 31.2825 15.4882 33.2603C17.1907 34.2817 19.1902 34.8758 21.32 34.8758C27.5793 34.8758 32.6504 29.8046 32.6504 23.5454C32.6504 21.401 32.0564 19.3943 31.0204 17.6846L29.4121 14.8882ZM25.1451 3.99252H32.3534L27.7386 11.9904L26.1666 9.26651L23.2398 4.19537C23.66 4.05048 24.2323 3.99252 25.1451 3.99252ZM21.3273 31.9997C19.2554 31.9997 17.3573 31.2535 15.8867 30.0147C14.0466 28.4644 12.8802 26.1462 12.8802 23.5526C12.8802 21.9878 13.3004 20.5317 14.0393 19.2711C14.0393 19.2711 21.2983 6.70196 21.32 6.65125L24.1526 11.5485V11.5558L28.6007 19.2639V19.2711C29.3397 20.5244 29.7599 21.9878 29.7599 23.5526C29.7671 28.2181 25.9855 31.9997 21.3273 31.9997Z" fill="#00A99D"/>
<path d="M21.9021 42.5261V42.5116C21.9021 41.2583 20.9821 40.5266 19.5621 40.5266H17.3598C17.1497 40.5266 16.9614 40.7005 16.9614 40.8961V46.1628H18.5189V44.7429C18.5189 44.656 18.6059 44.5546 18.6928 44.5546H19.2434L20.3301 46.1628H22.1339L20.8372 44.272C21.4964 43.946 21.9021 43.3592 21.9021 42.5261ZM20.3445 42.5985C20.3445 43.0405 20.004 43.3302 19.4535 43.3302H18.5189V42.0842C18.5189 41.9465 18.6276 41.8379 18.758 41.8379H19.439C20.004 41.8379 20.3445 42.0914 20.3445 42.5768V42.5985Z" fill="#414042"/>
<path d="M25.3417 40.4106C23.6031 40.4106 22.299 41.7219 22.299 43.3447V43.3519C22.299 44.9747 23.5886 46.2714 25.3273 46.2714C27.0659 46.2714 28.3699 44.9529 28.3699 43.3447V43.3229C28.3699 41.7147 27.0804 40.4106 25.3417 40.4106ZM26.7762 43.3592C26.7762 44.1705 26.2111 44.866 25.3417 44.866C24.4941 44.866 23.9001 44.156 23.9001 43.3519V43.3302C23.9001 42.5188 24.4724 41.8233 25.3273 41.8233C26.1893 41.8233 26.7762 42.5333 26.7762 43.3447V43.3592Z" fill="#414042"/>
<path d="M32.7947 40.8888V43.5113L30.4765 40.5266H29.4188C29.1942 40.5266 29.0203 40.7077 29.0203 40.9323V46.1628H30.5634V43.0767L32.9686 46.1628H34.3378V40.5266H33.1932C32.9831 40.5266 32.7947 40.686 32.7947 40.8888Z" fill="#414042"/>
<path d="M11.6569 40.9106V41.8958H13.3448V46.1556H14.9097V42.0697C14.9097 41.9755 14.9893 41.8958 15.1053 41.8958H16.5976V40.5266H12.0553C11.838 40.5266 11.6569 40.715 11.6569 40.9106Z" fill="#414042"/>
<path d="M4.08603 40.5266H2.07206C1.86197 40.5266 1.67361 40.6932 1.67361 40.8961V46.1628H3.23118V44.7429C3.23118 44.656 3.32536 44.5546 3.41229 44.5546H4.00634C5.40452 44.5546 6.43324 43.8591 6.43324 42.5333V42.5188C6.42599 41.2583 5.50594 40.5266 4.08603 40.5266ZM4.86843 42.5985C4.86843 43.0405 4.52794 43.3302 3.97736 43.3302H3.23118V41.8451H3.96287C4.52794 41.8451 4.86843 42.0987 4.86843 42.584V42.5985Z" fill="#414042"/>
<path d="M6.76728 40.9177V46.1627H11.2951V44.8298H8.31036V44.1488C8.31036 44.0474 8.40454 43.9387 8.50596 43.9387H10.9474V42.7071H8.31036V42.0624C8.31036 41.9609 8.39729 41.8523 8.49147 41.8523H11.2951V40.5193H7.16573C6.9484 40.5265 6.76728 40.7004 6.76728 40.9177Z" fill="#414042"/>
<path d="M43.6055 42.6487C42.8231 42.4748 42.6275 42.3589 42.6275 42.1054V42.0909C42.6275 41.888 42.8086 41.7286 43.1925 41.7286C43.5403 41.7286 43.9097 41.8228 44.2792 41.9967C44.2792 41.9967 44.3589 42.0402 44.3951 42.0547C44.5038 42.1054 44.6269 42.1416 44.7791 42.1126C44.8877 42.0909 44.9674 41.9895 45.0616 41.8735L45.547 41.1781C44.9385 40.6854 44.1923 40.4319 43.2288 40.4319C41.8813 40.4319 41.0482 41.1926 41.0482 42.2358V42.2503C41.0482 43.4094 41.9755 43.7426 43.1708 44.0252C43.9387 44.199 44.1198 44.3294 44.1198 44.5612V44.5757C44.1198 44.822 43.8952 44.9597 43.4751 44.9597C42.9824 44.9597 42.5043 44.8293 42.0624 44.5685C41.9392 44.5033 41.7799 44.4164 41.577 44.4671C41.4973 44.4888 41.4321 44.5395 41.3597 44.6192L40.7729 45.3219C41.4683 45.9377 42.4174 46.2492 43.4171 46.2492C44.7863 46.2492 45.6919 45.5682 45.6919 44.4164V44.4091C45.7064 43.3514 44.895 42.9312 43.6055 42.6487Z" fill="#414042"/>
<path d="M36.316 46.1628L36.5985 45.4529C36.642 45.337 36.7362 45.221 36.8593 45.1993H38.8733L39.2645 46.1628H40.938L38.5545 40.5266H37.2723C37.0839 40.5483 37.0042 40.6498 36.939 40.7874L34.6642 46.1628H36.316ZM37.7939 42.374L38.4241 43.975H37.1563L37.7939 42.374Z" fill="#414042"/>
</svg>
