<svg width="24" height="24" viewBox="0 0 24 24" fill="none" xmlns="http://www.w3.org/2000/svg">
<path fill-rule="evenodd" clip-rule="evenodd" d="M3.41786 16.869L2 22L7.28666 20.6191C8.74383 21.4146 10.3814 21.8309 12.0457 21.8287C17.5347 21.8287 22 17.3827 22 11.919C22 9.26786 20.9675 6.77816 19.0838 4.90311C17.2001 3.02806 14.699 2 12.0358 2C6.54685 2 2.08104 6.44547 2.09151 11.919C2.08884 13.6553 2.54615 15.362 3.41786 16.869ZM7.82359 19.0162L7.51984 18.8345L7.51874 18.8351L4.36935 19.6619L5.21003 16.6175L5.01764 16.3045C4.18688 14.9945 3.75138 13.4723 3.75138 11.9195C3.75138 7.38354 7.46802 3.68362 12.0353 3.68362C14.2431 3.68362 16.3291 4.55079 17.8897 6.10242C19.4493 7.65515 20.3098 9.73144 20.3098 11.9294C20.3098 16.4654 16.5932 20.1653 12.0364 20.1653C10.5532 20.1641 9.0978 19.7671 7.82359 19.0162ZM8.99781 7.34264C9.1698 7.34264 9.37267 7.35245 9.55459 7.76586C9.67594 8.0351 9.87258 8.5197 10.0362 8.92303C10.1729 9.25991 10.2866 9.5401 10.3142 9.59073C10.3749 9.71127 10.4157 9.86288 10.3346 10.0238C10.3095 10.0682 10.2882 10.1087 10.268 10.1471C10.2149 10.2484 10.1695 10.3348 10.0816 10.4372C10.044 10.4809 10.0044 10.5286 9.96439 10.5768C9.87516 10.6842 9.7836 10.7943 9.70674 10.8708C9.57498 10.9918 9.45371 11.1227 9.59538 11.3747C9.60187 11.385 9.60898 11.3964 9.61671 11.4088C9.79029 11.6862 10.2752 12.4612 10.9824 13.0883C11.7952 13.811 12.4964 14.1081 12.8422 14.2546C12.9017 14.2797 12.9507 14.3005 12.9879 14.3182C13.231 14.4392 13.3826 14.4191 13.5243 14.2576C13.6764 14.0967 14.1522 13.5421 14.3142 13.2901C14.4763 13.048 14.6384 13.0883 14.871 13.169C15.0517 13.232 15.8216 13.6089 16.277 13.8318C16.4094 13.8966 16.5152 13.9484 16.5722 13.9757C16.6371 14.0106 16.697 14.0406 16.7511 14.0676C16.8995 14.1418 17.0041 14.194 17.0485 14.268C17.1092 14.3689 17.1092 14.8728 16.9068 15.4471C16.6941 16.0323 15.6814 16.5766 15.226 16.6268C15.1867 16.6312 15.1476 16.6364 15.1077 16.6417C14.6843 16.6979 14.163 16.7672 12.2382 16.0122C9.89435 15.0881 8.34873 12.8071 8.03624 12.346C8.01123 12.3091 7.99412 12.2838 7.98513 12.2719L7.98428 12.2707C7.85975 12.1056 6.97245 10.9285 6.97245 9.71181C6.97245 8.56674 7.53429 7.97223 7.79613 7.69518C7.81327 7.67704 7.82913 7.66027 7.84345 7.64478C8.07609 7.39281 8.34952 7.33228 8.51159 7.33228C8.68359 7.33228 8.84566 7.33228 8.99781 7.34264Z" fill="#00A19C"/>
</svg>
