<svg width="24" height="24" viewBox="0 0 24 24" fill="none" xmlns="http://www.w3.org/2000/svg">
<path d="M12.7708 17.29C7.30078 17.29 4.18078 13.54 4.05078 7.30005H6.79078C6.88078 11.88 8.90078 13.82 10.5008 14.22V7.30005H13.0808V11.25C14.6608 11.08 16.3208 9.28005 16.8808 7.30005H19.4608C19.2498 8.32693 18.8291 9.29923 18.2252 10.1561C17.6212 11.013 16.8469 11.7361 15.9508 12.28C16.9511 12.7771 17.8347 13.4806 18.5431 14.3442C19.2516 15.2078 19.7688 16.2119 20.0608 17.29H17.2208C16.9587 16.3536 16.4261 15.5153 15.6896 14.8802C14.9531 14.2451 14.0456 13.8416 13.0808 13.72V17.29H12.7708Z" fill="#00A19C"/>
</svg>
