<svg width="158" height="48" viewBox="0 0 158 48" fill="none" xmlns="http://www.w3.org/2000/svg">
<path d="M21.6752 26.1722C21.6752 26.1245 21.6273 26.0768 21.6273 26.0291C19.9487 27.9379 15.7762 29.1786 12.0353 28.94C9.82915 28.7491 5.75255 27.6038 3.69028 26.3631C5.84847 28.4628 8.43831 30.0376 11.3159 30.8488C14.769 31.851 18.414 31.8033 20.4762 30.7057C21.963 29.7035 22.2987 27.8902 21.6752 26.1722Z" fill="#F59600"/>
<path d="M16.9754 14.051C23.7378 18.0119 19.7091 30.5147 14.3376 34.5232C9.3498 38.2454 4.02625 36.5275 2.87521 33.0916C3.88237 34.5709 5.89669 35.1436 7.67121 34.5232C12.5631 32.5667 15.153 23.6429 15.4407 20.5411C15.6805 17.9164 15.3448 16.103 14.3856 15.0055C13.3305 13.9079 11.6998 13.3352 9.30184 14.0988C10.9804 12.7149 14.4815 12.5717 16.9754 14.051Z" fill="#004196"/>
<path d="M20.7638 30.5624C20.7638 30.5624 20.8117 30.5147 20.8597 30.5147C21.0036 30.4192 21.1474 30.3238 21.2434 30.2283C21.2913 30.1806 21.3393 30.1329 21.4352 30.0374C24.073 27.3651 24.6005 20.0161 18.126 16.5325C15.8239 15.2918 10.4524 13.5261 5.12882 16.2462C3.35431 17.1529 1.53183 18.9663 0.572632 21.4955C1.29203 20.3024 2.53899 19.4912 5.0329 19.1571C7.47886 18.8708 10.884 19.2526 14.2412 20.3979C16.3994 21.1614 18.126 22.1635 19.4688 23.2611C20.5719 24.2155 21.2913 25.1222 21.675 26.0766C21.675 26.1244 21.7229 26.1721 21.7229 26.2198C22.3464 27.9855 21.9628 29.7988 20.476 30.801C20.524 30.7533 20.6199 30.7055 20.6678 30.7055C20.6678 30.7055 20.6678 30.7055 20.7158 30.7055C20.7158 30.6101 20.7158 30.5624 20.7638 30.5624Z" fill="#FC0019"/>
<path d="M1.38845 25.6948C1.53233 25.8857 1.77213 26.2197 1.96396 26.4106C3.25888 23.3565 10.357 21.3999 12.4672 21.4476C7.76712 19.9206 3.16296 20.6364 1.29253 22.2589C0.621087 22.9747 0.429247 24.12 1.38845 25.6948Z" fill="#F59600"/>
<path d="M15.2489 32.5667C11.4601 32.3758 5.94466 30.8965 2.05991 26.5062C2.05991 26.4584 2.01195 26.4585 1.96399 26.4107C1.77215 26.2198 1.48439 25.8858 1.38847 25.6949C0.429269 24.1201 0.621109 23.0226 1.29255 22.259C1.19663 22.3545 1.00479 22.4976 0.860908 22.7362C-0.14625 24.0247 -0.24217 26.1244 0.429269 28.3196C1.91603 33.0916 8.43858 36.0026 13.7142 35.1913C17.0714 34.6664 19.2296 32.8053 20.0928 32.0418C18.1744 32.5667 16.7356 32.6621 15.2489 32.5667Z" fill="#4B96CD"/>
<path fill-rule="evenodd" clip-rule="evenodd" d="M32.8496 28.7489C32.8496 30.3714 34.2405 31.469 36.5426 31.6599V21.8771H41.7222V19.6343H28.1496V21.8771H32.8496V28.7489ZM46.8061 22.1635C42.6816 22.1635 40.3315 23.9291 40.3315 26.9832C40.3315 29.9896 42.6816 31.7553 46.8061 31.7553C50.9307 31.7553 53.2807 29.9896 53.2807 26.9832C53.2327 23.9291 50.8827 22.1635 46.8061 22.1635ZM46.8061 29.5602C44.552 29.5602 43.401 28.7012 43.401 26.9832C43.401 25.2653 44.552 24.4063 46.8061 24.4063C49.0602 24.4063 50.2113 25.2653 50.2113 26.9832C50.1633 28.7012 49.0123 29.5602 46.8061 29.5602ZM54.0959 22.4021V24.4541H57.9807V30.8009C57.9807 31.4213 58.8919 31.6122 59.7072 31.6122C60.4746 31.6122 61.4338 31.4213 61.4338 30.8009V24.4541H65.3185V22.4021H54.0959ZM84.0228 28.9875C84.3586 29.2738 85.03 29.417 85.9892 29.417V29.3693H90.6893V31.0872V31.5167H87.8117L87.4276 31.517C85.2467 31.5195 83.0397 31.522 81.8167 30.8009C80.7616 30.1805 80.234 29.0352 80.234 27.365V23.0224C80.234 22.4498 81.0973 22.2589 81.8646 22.2589C82.632 22.2589 83.4953 22.4498 83.4953 23.0701V27.5559C83.4953 28.0331 83.5432 28.6057 84.0228 28.9875ZM78.7954 31.1826L78.8913 31.5644H75.7259L75.678 31.2781C75.582 30.7532 75.3902 30.1805 75.1025 29.5601H68.436C68.1962 30.1805 68.0044 30.7532 67.8605 31.2781L67.8125 31.5644H64.7911L64.887 31.1826C65.6543 27.4127 69.9707 23.1179 70.834 22.4975C71.1218 22.3066 71.4575 22.2589 71.8412 22.2589C72.2728 22.2589 72.5606 22.3066 72.8483 22.4975C73.7596 23.1179 78.028 27.4127 78.7954 31.1826ZM71.8412 24.9312C70.9779 25.7902 70.2105 26.7446 69.5871 27.699H74.0953C73.4718 26.6969 72.7045 25.7902 71.8412 24.9312Z" fill="#FC0019"/>
</svg>
