<svg width="122" height="25" viewBox="0 0 122 25" fill="none" xmlns="http://www.w3.org/2000/svg">
<g clip-path="url(#clip0_1162_1729)">
<path fill-rule="evenodd" clip-rule="evenodd" d="M14.3883 21.9824C12.7785 20.9741 11.5927 17.4945 11.5927 13.3603C11.5927 13.2086 11.5936 13.0591 11.597 12.9095L11.599 12.9117C7.1217 12.2081 3.88676 10.2803 3.80392 8.00076L3.79078 8.02704C2.69527 9.38848 2.06996 10.9626 2.06996 12.6398C2.06996 17.5753 7.48764 21.6192 14.3593 21.9769L14.3883 21.9824ZM0 12.9999C0 7.47752 6.87231 3 15.3503 3C23.8281 3 30.7007 7.47752 30.7007 12.9999C30.7007 18.5224 23.828 23 15.3503 23C6.87231 23 0 18.5222 0 12.9999ZM15.3503 4.4432C16.987 4.4432 18.3791 6.92581 18.8948 10.3898L18.8967 10.3846C22.0807 9.88897 24.31 8.74565 24.31 7.41523C24.31 5.62958 20.2982 4.18371 15.3503 4.18371C10.4021 4.18371 6.39067 5.6297 6.39067 7.41523C6.39067 8.74565 8.61964 9.88897 11.804 10.3846L11.8059 10.3898C12.3216 6.92594 13.7141 4.4432 15.3503 4.4432ZM16.3411 21.9768C23.2128 21.6192 28.6312 17.5751 28.6312 12.6397C28.6312 10.9626 28.0052 9.38848 26.9098 8.02692L26.8964 8.00064C26.8135 10.2802 23.5795 12.208 19.1017 12.9116L19.1036 12.9094C19.1067 13.0589 19.1083 13.2085 19.1083 13.3602C19.1083 17.4944 17.9215 20.974 16.3128 21.9822L16.3411 21.9768ZM15.3503 10.6472C16.0836 10.6472 16.7963 10.616 17.4783 10.5559L17.4774 10.557C17.1379 8.33641 16.3136 6.76924 15.3503 6.76924C14.3871 6.76924 13.5629 8.33641 13.223 10.557L13.2221 10.5559C13.9041 10.616 14.6171 10.6472 15.3503 10.6472ZM15.3503 18.8704C16.5825 18.8704 17.5876 16.3063 17.6412 13.0902L17.6478 13.0925C16.9051 13.1613 16.1368 13.1971 15.3505 13.1971C14.5634 13.1971 13.7958 13.1613 13.0531 13.0925L13.0601 13.0902C13.1129 16.3062 14.1177 18.8704 15.3503 18.8704Z" fill="#6B6F6E"/>
<path fill-rule="evenodd" clip-rule="evenodd" d="M78.3281 12.9998C78.3281 8.77885 81.7507 5.35693 85.9706 5.35693C90.1928 5.35693 93.6148 8.77873 93.6148 12.9998C93.6148 17.2212 90.1928 20.6427 85.9706 20.6427C81.7507 20.6427 78.3281 17.2212 78.3281 12.9998ZM85.9706 17.8401C88.3282 17.8401 90.2391 15.6728 90.2391 12.9998C90.2391 10.3269 88.3282 8.15938 85.9706 8.15938C83.6148 8.15938 81.7042 10.3269 81.7042 12.9998C81.7042 15.6727 83.6148 17.8401 85.9706 17.8401Z" fill="#6B6F6E"/>
<path fill-rule="evenodd" clip-rule="evenodd" d="M102.286 8.54123V20.2956H99.0661V8.54123H99.0767H94.5732V5.88379H106.778V8.54123H102.297H102.286Z" fill="#6B6F6E"/>
<path fill-rule="evenodd" clip-rule="evenodd" d="M110.674 17.0531L110.671 17.0561L109.435 20.2957H105.675L111.62 5.88379H113.625H115.628L121.574 20.2957H117.813L116.578 17.0561L116.575 17.0531H113.625H110.674V17.0531ZM113.625 14.6207H115.651L115.65 14.6213L113.639 9.34646H113.611L111.598 14.6213L111.598 14.6207H113.625Z" fill="#6B6F6E"/>
<path fill-rule="evenodd" clip-rule="evenodd" d="M42.9251 8.54123V20.2956H39.7048V8.54123H39.7157H35.2119V5.88379H47.4175V8.54123H42.9363H42.9251Z" fill="#6B6F6E"/>
<path fill-rule="evenodd" clip-rule="evenodd" d="M48.2412 12.9998C48.2412 8.77885 51.6636 5.35693 55.8851 5.35693C60.1063 5.35693 63.5283 8.77873 63.5283 12.9998C63.5283 17.2212 60.1063 20.6427 55.8851 20.6427C51.6636 20.6427 48.2412 17.2212 48.2412 12.9998ZM55.8851 17.8401C58.2414 17.8401 60.1525 15.6728 60.1525 12.9998C60.1525 10.3269 58.2415 8.15938 55.8851 8.15938C53.5284 8.15938 51.6173 10.3269 51.6173 12.9998C51.6173 15.6727 53.5284 17.8401 55.8851 17.8401Z" fill="#6B6F6E"/>
<path fill-rule="evenodd" clip-rule="evenodd" d="M70.9283 20.2956H72.5611V14.8905V14.8231L78.1791 5.88379H74.4191L70.9283 11.9414L67.438 5.88379H63.6768L69.2953 14.8231V14.8905V20.2956H70.9283Z" fill="#6B6F6E"/>
</g>
<defs>
<clipPath id="clip0_1162_1729">
<rect width="122" height="25" fill="white"/>
</clipPath>
</defs>
</svg>
