<svg width="158" height="50" viewBox="0 0 158 50" fill="none" xmlns="http://www.w3.org/2000/svg">
<path d="M65.6298 16.4739C65.6073 16.4739 65.6298 20.245 65.6298 20.2675H70.0519V31.581H74.4965V20.2675H78.9411C78.9635 20.2675 78.9411 16.4739 78.9411 16.4739H65.6298Z" fill="#10238C"/>
<path d="M29.8935 31.581C32.026 26.6425 34.2258 21.5021 36.1787 16.4739H31.4199C30.1404 19.7063 27.4916 26.3956 27.4916 26.3956C26.1672 23.2305 24.955 19.6614 23.5408 16.4739H18.9391C20.8696 21.547 22.9348 26.6425 25.1122 31.581H29.8935Z" fill="#10238C"/>
<path d="M61.9709 25.8793L61.8586 25.6998C63.834 24.5998 64.9339 22.0408 64.5748 20.3124C63.7667 16.4739 60.2649 16.4739 59.2323 16.4739C58.065 16.4739 52.0267 16.4739 52.0267 16.4739V31.581H56.4039V25.2957L61.6342 31.581H66.9991L61.9709 25.8793ZM58.3793 23.2979C57.7732 23.2979 56.3815 23.2979 56.3815 23.2979V19.8185C56.3815 19.8185 57.8405 19.8185 58.3793 19.8185C59.12 19.8185 60.2873 20.2899 60.2873 21.5694C60.2873 22.8489 58.9854 23.2979 58.3793 23.2979Z" fill="#10238C"/>
<path d="M44.5516 16.4739H39.905L33.5299 31.581H37.9969L38.9622 29.5607H45.4046L46.5045 31.581H51.1736C51.1736 31.581 46.7739 21.3899 44.5516 16.4739ZM40.4662 26.0589L42.1722 21.2552L44.0802 26.0589H40.4662Z" fill="#10238C"/>
<path d="M87.6057 16.4739H82.959L76.584 31.581H81.051L82.0163 29.5607H88.4587L89.5586 31.581H94.2277C94.2277 31.581 89.828 21.3899 87.6057 16.4739ZM83.5202 26.0589L85.2262 21.2552L87.1567 26.0589H83.5202Z" fill="#10238C"/>
<path d="M0.262848 16.9453H14.3823V31.1321H0.262848V16.9453Z" fill="#10238C"/>
<path d="M7.31135 29.4934L0.240417 16.9453H14.3823L7.31135 29.4934Z" fill="#FFC907"/>
<path d="M7.31136 29.4935L0.30777 17.0352L7.31136 29.4935ZM14.3374 17.0352L7.31136 29.4935L14.3374 17.0352Z" fill="#10238C"/>
</svg>
