<svg width="30" height="20" viewBox="0 0 30 20" fill="none" xmlns="http://www.w3.org/2000/svg">
<g id="visa 1" clip-path="url(#clip0_0_905)">
<g id="Group">
<path id="Vector" d="M30 0H0V20H30V0Z" fill="white"/>
<path id="Vector_2" d="M30 17H0V20H30V17Z" fill="#F7B600"/>
<path id="Vector_3" d="M30 0H0V3H30V0Z" fill="#1A1F71"/>
<path id="Vector_4" d="M12.1 6.31599L9.1 13.7897H7.2L5.7 7.78968C5.7 7.36863 5.6 7.26336 5.3 7.1581C4.9 6.84231 4.1 6.63178 3.5 6.52652V6.31599H6.6C7 6.31599 7.4 6.63178 7.4 7.05284L8.2 11.3686L10.2 6.31599H12.1ZM19.7 11.2634C19.7 9.26336 17.1 9.1581 17.1 8.31599C17.1 8.00021 17.3 7.78968 17.9 7.68442C18.2 7.68442 18.9 7.57915 19.7 8.00021L20 6.42126C19.6 6.21073 19 6.10547 18.3 6.10547C16.5 6.10547 15.2 7.1581 15.2 8.52652C15.2 9.57915 16.1 10.2107 16.8 10.5265C17.5 10.8423 17.8 11.1581 17.8 11.4739C17.8 12.0002 17.2 12.2107 16.7 12.2107C15.8 12.2107 15.2 12.0002 14.8 11.7897L14.5 13.4739C14.9 13.6844 15.7 13.8949 16.5 13.8949C18.5 13.8949 19.7 12.8423 19.7 11.2634ZM24.5 13.7897H26.2L24.7 6.31599H23.1C22.7 6.31599 22.4 6.52652 22.3 6.84231L19.5 13.7897H21.4L22 12.6318H24.4L24.5 13.7897ZM22.5 11.0528L23.5 8.21073L24.1 11.0528H22.5ZM14.8 6.31599L13.3 13.7897H11.5L12.9 6.31599H14.8Z" fill="#1A1F71"/>
</g>
</g>
<defs>
<clipPath id="clip0_0_905">
<rect width="30" height="20" fill="white"/>
</clipPath>
</defs>
</svg>
