<svg width="40" height="40" viewBox="0 0 40 40" fill="none" xmlns="http://www.w3.org/2000/svg">
<g id="Group 203">
<rect id="Rectangle 102" width="40" height="40" fill="#444D4C"/>
<path id="Vector" d="M14.9479 16.0617C15.4504 17.2961 16.0872 18.4599 16.926 19.5047C17.0373 19.6437 17.1775 19.7673 17.3253 19.868C17.541 20.0154 17.7446 19.9636 17.8324 19.7181C17.9252 19.4604 18.0103 18.9382 18.0154 18.6676C18.0292 17.9607 18.0133 17.4973 17.9751 16.7912C17.9504 16.339 17.7888 15.9419 17.12 15.822C16.9134 15.7849 16.8942 15.6158 17.0269 15.4471C17.3032 15.0959 17.688 15.0399 18.1053 15.0177C18.7816 14.9814 19.4605 15.0111 20.1376 15.0177C20.4135 15.0203 20.6909 15.0424 20.9626 15.1013C21.3169 15.1781 21.5066 15.4253 21.565 15.7694C21.5952 15.9469 21.6108 16.1293 21.6066 16.3089C21.5889 17.0806 21.5516 17.8519 21.5428 18.6232C21.539 18.9259 21.5612 19.2362 21.6263 19.531C21.7174 19.9419 21.9987 20.045 22.2863 19.7482C22.6515 19.3711 22.9735 18.9468 23.2757 18.5159C23.8249 17.7321 24.235 16.8719 24.5881 15.9849C24.7707 15.5273 24.9105 15.4279 25.4054 15.4267C26.3357 15.4245 27.266 15.4237 28.1963 15.4267C28.3613 15.4275 28.5339 15.4429 28.6896 15.4922C28.9423 15.5724 29.0427 15.7774 28.9835 16.0376C28.8454 16.6473 28.5141 17.1655 28.1594 17.6637C27.5901 18.4629 26.9936 19.243 26.4109 20.0331C26.3366 20.1337 26.2711 20.241 26.2102 20.35C25.9923 20.7417 26.0075 20.9613 26.3252 21.2874C26.8311 21.8065 27.3727 22.2921 27.8626 22.8254C28.2186 23.2133 28.5481 23.6342 28.8303 24.0773C29.1871 24.6377 28.9667 25.1655 28.3 25.2594C27.8807 25.3183 25.8321 25.2599 25.7262 25.2594C25.1754 25.257 24.6926 25.0669 24.3039 24.6949C23.8715 24.2807 23.4785 23.8263 23.0633 23.3941C22.9382 23.2638 22.8047 23.139 22.6607 23.0299C22.3211 22.7723 21.9878 22.8295 21.8291 23.2262C21.6935 23.567 21.5763 24.4618 21.5709 24.5383C21.5423 24.9379 21.2867 25.1926 20.8366 25.2172C19.5373 25.2874 18.2783 25.1433 17.1053 24.5182C16.1112 23.9887 15.3174 23.24 14.6297 22.3668C13.5374 20.98 12.6745 19.4555 11.8868 17.8863C11.8466 17.806 11.0487 16.1173 11.0273 16.0375C10.956 15.7704 11.0225 15.5153 11.2494 15.4275C11.3908 15.3727 14.0213 15.4273 14.0651 15.4296C14.4848 15.4522 14.7711 15.6284 14.9479 16.0617Z" fill="#FCFAF9"/>
</g>
</svg>
