<svg width="24" height="24" viewBox="0 0 24 24" fill="none" xmlns="http://www.w3.org/2000/svg">
<g id="Social / VK">
<path id="Vector" d="M12.7698 17.29C7.29981 17.29 4.1798 13.54 4.0498 7.30005H6.7898C6.8798 11.88 8.8998 13.82 10.4998 14.22V7.30005H13.0798V11.25C14.6598 11.08 16.3198 9.28005 16.8798 7.30005H19.4598C19.2488 8.32693 18.8281 9.29923 18.2242 10.1561C17.6202 11.013 16.846 11.7361 15.9498 12.28C16.9501 12.7771 17.8337 13.4806 18.5421 14.3442C19.2506 15.2078 19.7679 16.2119 20.0598 17.29H17.2198C16.9577 16.3536 16.4251 15.5153 15.6886 14.8802C14.9522 14.2451 14.0446 13.8416 13.0798 13.72V17.29H12.7698Z" fill="white"/>
</g>
</svg>
