<svg xmlns="http://www.w3.org/2000/svg" width="25" height="25" viewBox="0 0 25 25" fill="none">
  <g clip-path="url(#clip0_0_898)">
    <path d="M12.5 23.5268C6.47321 23.5268 1.51786 18.5268 1.51786 12.5C1.51786 11.25 1.74107 10.0446 2.14286 8.88393L8.57143 21.3839C8.66071 21.5625 8.75 21.6964 8.97321 21.6964C9.19643 21.6964 9.28571 21.5625 9.375 21.3839L12.3661 14.7321C12.4107 14.6429 12.4554 14.5982 12.5 14.5982C12.5893 14.5982 12.5893 14.6875 12.6339 14.7321L15.6696 21.3839C15.7589 21.5625 15.8482 21.6964 16.0714 21.6964C16.2946 21.6964 16.3839 21.5625 16.4732 21.3839L22.9018 8.88393C23.3036 10 23.5268 11.2054 23.5268 12.5C23.4821 18.5268 18.5268 23.5268 12.5 23.5268ZM12.5 9.64286C12.4107 9.64286 12.4107 9.55357 12.3661 9.50893L8.92857 2.09821C10.0446 1.69643 11.25 1.47321 12.5 1.47321C13.75 1.47321 14.9554 1.69643 16.0714 2.09821L12.6339 9.50893C12.5893 9.55357 12.5893 9.64286 12.5 9.64286ZM8.88393 17.6786C8.79464 17.6786 8.79464 17.5893 8.75 17.5446L3.125 6.74107C4.10714 5.13393 5.53571 3.79464 7.1875 2.85714L11.1607 11.4286C11.25 11.6071 11.3393 11.6518 11.4732 11.6518H13.5268C13.6607 11.6518 13.75 11.6071 13.8393 11.4286L17.7679 2.85714C19.4196 3.79464 20.8482 5.13393 21.8304 6.74107L16.25 17.5446C16.2054 17.6339 16.1607 17.6786 16.1161 17.6786C16.0268 17.6786 16.0268 17.5893 15.9821 17.5446L13.8393 12.8125C13.75 12.6339 13.6607 12.5893 13.5268 12.5893H11.4732C11.3393 12.5893 11.25 12.6339 11.1607 12.8125L9.01786 17.5446C8.97321 17.5893 8.97321 17.6786 8.88393 17.6786ZM12.5 25C19.4196 25 25 19.4196 25 12.5C25 5.58036 19.4196 0 12.5 0C5.58036 0 0 5.58036 0 12.5C0 19.4196 5.58036 25 12.5 25Z" fill="#6B6F6E"/>
  </g>
  <defs>
    <clipPath id="clip0_0_898">
      <rect width="25" height="25" fill="white"/>
    </clipPath>
  </defs>
</svg>
