<svg xmlns="http://www.w3.org/2000/svg" width="107" height="25" viewBox="0 0 107 25" fill="none">
  <g clip-path="url(#clip0_0_889)">
    <path fill-rule="evenodd" clip-rule="evenodd" d="M-15 4.88135V7.0932H-11.3621L-4.24281 20.4081H4.51784L11.6371 7.07109L15.2744 7.04823L15.2823 4.88135H4.39911V7.0558H7.29741L2.27017 16.5216L-3.16673 7.08881L0.79885 7.07109L0.791865 4.88135H-15Z" fill="#6B6F6E"/>
    <path fill-rule="evenodd" clip-rule="evenodd" d="M55.2109 4.88135V7.0932H58.8478L65.9672 20.4081H74.7282L81.8474 7.07109L85.4852 7.04823L85.4917 4.88135H74.6105V7.0558H77.5076L72.4805 16.5216L67.043 7.08881L71.0098 7.07109L71.0023 4.88135H55.2109Z" fill="#6B6F6E"/>
    <path fill-rule="evenodd" clip-rule="evenodd" d="M37.3105 4.8815V7.09335H40.9478L40.9538 17.9638H37.1191V20.3867L40.9564 20.4084H59.1182V13.1809H56.7524C56.6227 17.0075 53.2941 17.9689 51.892 17.9689C50.6073 17.9689 48.1181 17.9639 48.1181 17.9639V7.08896L51.7007 7.07109L51.6959 4.88135H37.3105V4.8815Z" fill="#6B6F6E"/>
    <path fill-rule="evenodd" clip-rule="evenodd" d="M24.9047 18.4195C22.7251 18.4195 20.959 15.8158 20.959 12.6023C20.959 9.38799 22.7251 6.78228 24.9047 6.78228C27.0838 6.78228 28.8504 9.38799 28.8504 12.6023C28.8504 15.8158 27.0838 18.4195 24.9047 18.4195ZM25.0651 4.43506C18.8822 4.43506 13.8701 8.10664 13.8701 12.6339C13.8701 17.1615 18.882 20.8326 25.0651 20.8326C31.2475 20.8326 36.2603 17.1615 36.2603 12.6339C36.2603 8.10664 31.2475 4.43506 25.0651 4.43506Z" fill="#6B6F6E"/>
    <path fill-rule="evenodd" clip-rule="evenodd" d="M95.1157 18.3782C92.9368 18.3782 91.1709 15.7313 91.1709 12.4647C91.1709 9.1992 92.937 6.5517 95.1157 6.5517C97.2949 6.5517 99.0605 9.1992 99.0605 12.4647C99.0606 15.7312 97.2949 18.3782 95.1157 18.3782ZM95.2768 4.16602C89.0926 4.16602 84.082 7.89741 84.082 12.4986C84.082 17.0996 89.0924 20.8302 95.2768 20.8302C101.459 20.8302 106.471 17.0996 106.471 12.4986C106.471 7.89741 101.459 4.16602 95.2768 4.16602Z" fill="#6B6F6E"/>
  </g>
  <defs>
    <clipPath id="clip0_0_889">
      <rect width="107" height="25" fill="white"/>
    </clipPath>
  </defs>
</svg>
