<svg width="122" height="17" viewBox="0 0 122 17" fill="none" xmlns="http://www.w3.org/2000/svg">
<g clip-path="url(#clip0_1162_1753)">
<path fill-rule="evenodd" clip-rule="evenodd" d="M0 0.881348V3.0932H3.63791L10.7572 16.4081H19.5178L26.6371 3.07109L30.2744 3.04823L30.2823 0.881348H19.3991V3.0558H22.2974L17.2702 12.5216L11.8333 3.08881L15.7989 3.07109L15.7919 0.881348H0Z" fill="#6B6F6E"/>
<path fill-rule="evenodd" clip-rule="evenodd" d="M70.2109 0.881348V3.0932H73.8478L80.9672 16.4081H89.7282L96.8474 3.07109L100.485 3.04823L100.492 0.881348H89.6105V3.0558H92.5076L87.4805 12.5216L82.043 3.08881L86.0098 3.07109L86.0023 0.881348H70.2109Z" fill="#6B6F6E"/>
<path fill-rule="evenodd" clip-rule="evenodd" d="M52.3105 0.881499V3.09335H55.9478L55.9538 13.9638H52.1191V16.3867L55.9564 16.4084H74.1182V9.18091H71.7524C71.6227 13.0075 68.2941 13.9689 66.892 13.9689C65.6073 13.9689 63.1181 13.9639 63.1181 13.9639V3.08896L66.7007 3.07109L66.6959 0.881348H52.3105V0.881499Z" fill="#6B6F6E"/>
<path fill-rule="evenodd" clip-rule="evenodd" d="M39.9047 14.4195C37.7251 14.4195 35.959 11.8158 35.959 8.60227C35.959 5.38799 37.7251 2.78228 39.9047 2.78228C42.0838 2.78228 43.8504 5.38799 43.8504 8.60227C43.8504 11.8158 42.0838 14.4195 39.9047 14.4195ZM40.0651 0.435059C33.8822 0.435059 28.8701 4.10664 28.8701 8.63392C28.8701 13.1615 33.882 16.8326 40.0651 16.8326C46.2475 16.8326 51.2603 13.1615 51.2603 8.63392C51.2603 4.10664 46.2475 0.435059 40.0651 0.435059Z" fill="#6B6F6E"/>
<path fill-rule="evenodd" clip-rule="evenodd" d="M110.116 14.3782C107.937 14.3782 106.171 11.7313 106.171 8.46466C106.171 5.1992 107.937 2.5517 110.116 2.5517C112.295 2.5517 114.06 5.1992 114.06 8.46466C114.061 11.7312 112.295 14.3782 110.116 14.3782ZM110.277 0.166016C104.093 0.166016 99.082 3.89741 99.082 8.49858C99.082 13.0996 104.092 16.8302 110.277 16.8302C116.459 16.8302 121.471 13.0996 121.471 8.49858C121.471 3.89741 116.459 0.166016 110.277 0.166016Z" fill="#6B6F6E"/>
</g>
<defs>
<clipPath id="clip0_1162_1753">
<rect width="122" height="17" fill="white"/>
</clipPath>
</defs>
</svg>
