<svg width="30" height="30" viewBox="0 0 30 30" fill="none" xmlns="http://www.w3.org/2000/svg">
<g id="Yandex_znak 2" clip-path="url(#clip0_0_678)">
<path id="Vector" d="M15.0002 29.9692C23.2676 29.9692 29.9697 23.2671 29.9697 14.9997C29.9697 6.73232 23.2676 0.0302734 15.0002 0.0302734C6.73281 0.0302734 0.0307617 6.73232 0.0307617 14.9997C0.0307617 23.2671 6.73281 29.9692 15.0002 29.9692Z" fill="#FC3F1D"/>
<path id="Glyph" d="M20.4163 24.3973H17.1302V8.14454H15.6663C12.983 8.14454 11.5774 9.48621 11.5774 11.489C11.5774 13.7612 12.5469 14.814 14.5524 16.1557L16.2052 17.2695L11.4552 24.3945H7.92188L12.1969 18.0334C9.73854 16.2779 8.35521 14.564 8.35521 11.6723C8.35521 8.05843 10.8747 5.6001 15.6441 5.6001H20.3941V24.3918H20.4163V24.3973Z" fill="white"/>
</g>
<defs>
<clipPath id="clip0_0_678">
<rect width="30" height="30" fill="white"/>
</clipPath>
</defs>
</svg>
