<svg width="158" height="48" viewBox="0 0 158 48" fill="none" xmlns="http://www.w3.org/2000/svg">
<path d="M0 17.0066L6.72641 23.733L6.75305 23.7552L6.72641 23.7907L0.0443987 30.4638H1.22541L7.92962 23.7552L1.18101 17.011L0 17.0066ZM5.33673 17.0066L4.15128 17.011L10.8821 23.733L10.8999 23.7552L10.8821 23.7907L4.20012 30.4638H5.38557L12.0898 23.7552L5.33673 17.0066ZM6.23358 17.0066L12.9556 23.733L12.9822 23.7552L12.9556 23.7907L6.28242 30.4638H7.46343L14.1632 23.7552L7.41459 17.0066H6.23358ZM8.307 17.0066L15.0334 23.733L15.0556 23.7552L15.0334 23.7907L8.35584 30.4638H9.53685C9.55887 30.4431 16.2677 23.733 16.2677 23.733L22.9941 17.0066H21.8087L15.6728 23.1381L15.6506 23.1647L15.6239 23.1381L15.2288 22.7473L15.1977 22.7207L15.2288 22.6941L20.9162 17.0066H19.7308L14.6116 22.1302L14.585 22.1036L14.1898 21.7129L14.1632 21.6818L18.8384 17.011H17.6574L13.6038 21.0646L13.5727 21.0957L13.5461 21.0646L13.1509 20.6695L13.1243 20.6473L13.1509 20.6206L16.7694 17.011L15.584 17.0066L12.5648 20.0301L12.5338 20.0523L12.5071 20.0257L12.112 19.635L12.0853 19.6039L12.112 19.5773L14.6827 17.011H13.5061L11.5215 18.9823L11.4993 19.0134L11.4726 18.9823L9.49245 17.011L8.307 17.0066ZM2.07786 17.011L8.79983 23.733L8.83091 23.7552L8.79983 23.7907L2.13114 30.4638H3.30771L10.0119 23.7552L3.25887 17.011H2.07786Z" fill="#DE2027"/>
<path d="M34.6353 18.6006C31.7698 18.6006 29.4407 20.9333 29.4407 23.8041C29.4407 26.6693 31.7698 28.9988 34.6353 28.9988C37.5021 28.9988 39.83 26.6693 39.83 23.8041C39.83 20.9333 37.5071 18.6006 34.6353 18.6006ZM45.1934 18.6006L42.0499 22.9561V18.605H40.2695V28.8212H42.0499V24.6122L45.038 28.8212H47.2757L43.4751 23.813L47.4266 18.6006H45.1934ZM50.9608 18.6006C48.0912 18.6006 45.7617 20.9324 45.7617 23.7952C45.7592 26.6684 48.0912 28.9988 50.9608 28.9988C53.8312 28.9988 56.1625 26.6684 56.1599 23.7952C56.1599 20.9324 53.8275 18.6006 50.9608 18.6006ZM22.701 18.6894L25.9199 25.0917V28.91H27.6026V25.0917L30.8215 18.6894H28.9123L26.7634 23.0982L24.6101 18.6894H22.701ZM56.6038 18.6894V28.91H58.4242V24.7764H62.0915V28.91H63.9074V18.6894H62.0915V23.0227H58.4242V18.6894H56.6038ZM68.0765 18.6894L64.3026 28.91H66.2073L67.153 26.2993H70.8248L71.7571 28.91H73.6707L69.8968 18.6894H68.0765ZM74.0525 18.6894V28.91H75.8729L75.904 22.228L78.4613 28.91H80.1574L82.7103 22.228L82.7414 28.91H84.5662V18.6894H84.0467H82.7059H82.3196L79.3138 26.5258L76.2947 18.6894H75.904H74.5765H74.0525ZM88.8684 18.6894L85.0945 28.91H87.0081L87.9449 26.2993H91.6167L92.5579 28.91H94.4671L90.6976 18.6894H90.4978H88.9483H88.8684ZM50.9652 20.2966C52.899 20.2966 54.4594 21.8666 54.4594 23.7952C54.462 25.7305 52.8933 27.2983 50.9608 27.2983C49.0307 27.2983 47.4577 25.7305 47.4577 23.7952C47.4577 21.8666 49.0324 20.2966 50.9652 20.2966ZM34.6353 20.3011C36.569 20.3011 38.134 21.8701 38.134 23.8041C38.134 25.7314 36.569 27.3027 34.6353 27.3027C32.7067 27.3027 31.1367 25.7314 31.1367 23.8041C31.1367 21.8701 32.7067 20.3011 34.6353 20.3011ZM89.783 21.3844L91.0661 24.8652H88.4955L89.783 21.3844ZM68.9822 21.3888L70.2698 24.8652H67.7035L68.9822 21.3888Z" fill="#231F20"/>
</svg>
